<svg width="92" height="106" viewBox="0 0 92 106" fill="none" xmlns="http://www.w3.org/2000/svg">
<g clip-path="url(#clip0_2121_12150)">
<path d="M0 83.334L46 106L92 83.334V0H0V83.334Z" fill="white"/>
<path d="M0 83.334L46 106L92 83.334V0H0V83.334Z" fill="white"/>
<path d="M12.8295 13.3298C12.5828 13.3298 12.3528 13.2998 12.1395 13.2398C11.9261 13.1798 11.7361 13.0964 11.5695 12.9898C11.3961 12.8764 11.2561 12.7531 11.1495 12.6198C11.0428 12.4864 10.9728 12.3431 10.9395 12.1898L11.8695 11.9098C11.9295 12.0698 12.0395 12.2064 12.1995 12.3198C12.3528 12.4331 12.5461 12.4931 12.7795 12.4998C13.0261 12.5064 13.2261 12.4531 13.3795 12.3398C13.5395 12.2264 13.6195 12.0831 13.6195 11.9098C13.6195 11.7564 13.5561 11.6264 13.4295 11.5198C13.3095 11.4131 13.1395 11.3331 12.9195 11.2798L12.2895 11.1098C12.0495 11.0498 11.8395 10.9564 11.6595 10.8298C11.4728 10.7098 11.3295 10.5564 11.2295 10.3698C11.1295 10.1898 11.0795 9.97977 11.0795 9.73977C11.0795 9.2731 11.2295 8.90977 11.5295 8.64977C11.8361 8.39643 12.2695 8.26977 12.8295 8.26977C13.1428 8.26977 13.4195 8.3131 13.6595 8.39977C13.8928 8.4931 14.0895 8.6231 14.2495 8.78977C14.4095 8.95643 14.5295 9.15643 14.6095 9.38977L13.6795 9.66977C13.6261 9.50977 13.5228 9.37643 13.3695 9.26977C13.2228 9.15643 13.0328 9.09977 12.7995 9.09977C12.5661 9.09977 12.3861 9.1531 12.2595 9.25977C12.1261 9.36643 12.0595 9.51977 12.0595 9.71977C12.0595 9.8731 12.1095 9.9931 12.2095 10.0798C12.3161 10.1664 12.4595 10.2331 12.6395 10.2798L13.2895 10.4398C13.7095 10.5464 14.0361 10.7331 14.2695 10.9998C14.5028 11.2664 14.6195 11.5631 14.6195 11.8898C14.6195 12.1764 14.5495 12.4264 14.4095 12.6398C14.2695 12.8598 14.0661 13.0298 13.7995 13.1498C13.5328 13.2698 13.2095 13.3298 12.8295 13.3298ZM16.1395 13.2498V8.34977H17.9595C18.2995 8.34977 18.6028 8.41977 18.8695 8.55977C19.1361 8.6931 19.3461 8.8831 19.4995 9.12977C19.6461 9.37643 19.7195 9.65977 19.7195 9.97976C19.7195 10.2998 19.6461 10.5831 19.4995 10.8298C19.3595 11.0764 19.1628 11.2698 18.9095 11.4098C18.6561 11.5564 18.3628 11.6298 18.0295 11.6298H17.0995V13.2498H16.1395ZM17.0995 10.7398H18.0095C18.2228 10.7398 18.3995 10.6698 18.5395 10.5298C18.6795 10.3898 18.7495 10.2064 18.7495 9.97976C18.7495 9.75976 18.6728 9.57643 18.5195 9.42977C18.3661 9.29643 18.1728 9.22976 17.9395 9.22976H17.0995V10.7398ZM21.0595 13.2498V8.34977H22.8795C23.2261 8.34977 23.5295 8.41643 23.7895 8.54977C24.0561 8.68977 24.2661 8.87643 24.4195 9.10977C24.5661 9.3431 24.6395 9.61643 24.6395 9.92977C24.6395 10.2364 24.5628 10.5098 24.4095 10.7498C24.2495 10.9898 24.0361 11.1764 23.7695 11.3098C23.4961 11.4431 23.1861 11.5098 22.8395 11.5098H22.0195V13.2498H21.0595ZM23.7495 13.2498L22.6195 11.2798L23.3495 10.7598L24.8395 13.2498H23.7495ZM22.0195 10.6398H22.8795C23.0261 10.6398 23.1561 10.6098 23.2695 10.5498C23.3828 10.4898 23.4761 10.4064 23.5495 10.2998C23.6161 10.1931 23.6495 10.0698 23.6495 9.92977C23.6495 9.7231 23.5728 9.5531 23.4195 9.41977C23.2661 9.2931 23.0728 9.22976 22.8395 9.22976H22.0195V10.6398ZM26.2695 13.2498V8.34977H27.2295V13.2498H26.2695ZM28.9995 13.2498V8.34977H29.9995L32.3895 11.6398V8.34977H33.3395V13.2498H32.3895L29.9495 9.89977V13.2498H28.9995ZM37.3795 13.3298C36.8795 13.3298 36.4395 13.2231 36.0595 13.0098C35.6728 12.7898 35.3695 12.4898 35.1495 12.1098C34.9295 11.7298 34.8195 11.2931 34.8195 10.7998C34.8195 10.3064 34.9295 9.86977 35.1495 9.48977C35.3695 9.10977 35.6728 8.80977 36.0595 8.58977C36.4395 8.37643 36.8795 8.26977 37.3795 8.26977C37.6795 8.26977 37.9561 8.3131 38.2095 8.39977C38.4628 8.48643 38.6861 8.60977 38.8795 8.76977C39.0728 8.9231 39.2328 9.09977 39.3595 9.29977L38.5795 9.78977C38.4995 9.6631 38.3961 9.5531 38.2695 9.45977C38.1361 9.35977 37.9928 9.2831 37.8395 9.22976C37.6861 9.16976 37.5328 9.13977 37.3795 9.13977C37.0728 9.13977 36.7995 9.20977 36.5595 9.34977C36.3261 9.49643 36.1395 9.6931 35.9995 9.93976C35.8661 10.1864 35.7995 10.4731 35.7995 10.7998C35.7995 11.1198 35.8661 11.4064 35.9995 11.6598C36.1328 11.9131 36.3195 12.1098 36.5595 12.2498C36.8061 12.3964 37.0861 12.4698 37.3995 12.4698C37.6461 12.4698 37.8661 12.4198 38.0595 12.3198C38.2528 12.2198 38.4061 12.0831 38.5195 11.9098C38.6328 11.7298 38.6895 11.5231 38.6895 11.2898L39.5995 11.1498C39.5995 11.6098 39.5061 12.0031 39.3195 12.3298C39.1261 12.6564 38.8628 12.9064 38.5295 13.0798C38.1961 13.2464 37.8128 13.3298 37.3795 13.3298ZM37.5395 11.3698V10.6298H39.5995V11.2198L39.0795 11.3698H37.5395ZM43.1995 13.2498V12.5398C43.1995 12.4064 43.2395 12.2598 43.3195 12.0998C43.4061 11.9331 43.5228 11.7698 43.6695 11.6098C43.8228 11.4431 43.9995 11.2898 44.1995 11.1498L44.9395 10.6198C45.0461 10.5464 45.1428 10.4664 45.2295 10.3798C45.3228 10.2931 45.3995 10.1964 45.4595 10.0898C45.5128 9.9831 45.5395 9.8831 45.5395 9.78977C45.5395 9.6631 45.5128 9.5531 45.4595 9.45977C45.3995 9.35977 45.3128 9.2831 45.1995 9.22976C45.0861 9.16976 44.9495 9.13977 44.7895 9.13977C44.6495 9.13977 44.5228 9.16976 44.4095 9.22976C44.3028 9.2831 44.2128 9.35643 44.1395 9.44977C44.0728 9.5431 44.0261 9.6431 43.9995 9.74977L43.0095 9.57977C43.0561 9.34643 43.1561 9.12977 43.3095 8.92977C43.4628 8.72977 43.6661 8.56643 43.9195 8.43976C44.1661 8.31976 44.4495 8.25977 44.7695 8.25977C45.1295 8.25977 45.4395 8.32643 45.6995 8.45977C45.9661 8.58643 46.1695 8.7631 46.3095 8.98977C46.4495 9.21643 46.5195 9.47977 46.5195 9.77977C46.5195 10.0798 46.4395 10.3498 46.2795 10.5898C46.1128 10.8231 45.8828 11.0431 45.5895 11.2498L44.9295 11.7298C44.7895 11.8231 44.6728 11.9264 44.5795 12.0398C44.4795 12.1531 44.4028 12.2764 44.3495 12.4098H46.5895V13.2498H43.1995ZM49.8595 13.3298C49.4661 13.3298 49.1161 13.2231 48.8095 13.0098C48.5095 12.7898 48.2728 12.4898 48.0995 12.1098C47.9261 11.7298 47.8395 11.2931 47.8395 10.7998C47.8395 10.3064 47.9261 9.86977 48.0995 9.48977C48.2728 9.10977 48.5095 8.80977 48.8095 8.58977C49.1095 8.37643 49.4595 8.26977 49.8595 8.26977C50.2528 8.26977 50.6028 8.37643 50.9095 8.58977C51.2161 8.80977 51.4561 9.10977 51.6295 9.48977C51.8028 9.86977 51.8895 10.3064 51.8895 10.7998C51.8895 11.2931 51.8028 11.7298 51.6295 12.1098C51.4561 12.4898 51.2161 12.7898 50.9095 13.0098C50.6095 13.2231 50.2595 13.3298 49.8595 13.3298ZM49.8595 12.4698C50.0728 12.4698 50.2628 12.3964 50.4295 12.2498C50.5895 12.1098 50.7161 11.9131 50.8095 11.6598C50.9028 11.4131 50.9495 11.1264 50.9495 10.7998C50.9495 10.4731 50.9028 10.1831 50.8095 9.92977C50.7161 9.67643 50.5895 9.47977 50.4295 9.33977C50.2628 9.19977 50.0728 9.12977 49.8595 9.12977C49.6461 9.12977 49.4595 9.19977 49.2995 9.33977C49.1328 9.47977 49.0028 9.67643 48.9095 9.92977C48.8228 10.1831 48.7795 10.4731 48.7795 10.7998C48.7795 11.1264 48.8228 11.4131 48.9095 11.6598C49.0028 11.9131 49.1328 12.1098 49.2995 12.2498C49.4661 12.3964 49.6528 12.4698 49.8595 12.4698ZM53.1895 13.2498V12.5398C53.1895 12.4064 53.2295 12.2598 53.3095 12.0998C53.3961 11.9331 53.5128 11.7698 53.6595 11.6098C53.8128 11.4431 53.9895 11.2898 54.1895 11.1498L54.9295 10.6198C55.0295 10.5464 55.1261 10.4664 55.2195 10.3798C55.3128 10.2931 55.3895 10.1964 55.4495 10.0898C55.5028 9.9831 55.5295 9.8831 55.5295 9.78977C55.5295 9.6631 55.5028 9.5531 55.4495 9.45977C55.3895 9.35977 55.3028 9.2831 55.1895 9.22976C55.0761 9.16976 54.9395 9.13977 54.7795 9.13977C54.6395 9.13977 54.5128 9.16976 54.3995 9.22976C54.2928 9.2831 54.2028 9.35643 54.1295 9.44977C54.0628 9.5431 54.0161 9.6431 53.9895 9.74977L52.9995 9.57977C53.0461 9.34643 53.1461 9.12977 53.2995 8.92977C53.4528 8.72977 53.6561 8.56643 53.9095 8.43976C54.1561 8.31976 54.4395 8.25977 54.7595 8.25977C55.1195 8.25977 55.4295 8.32643 55.6895 8.45977C55.9561 8.58643 56.1595 8.7631 56.2995 8.98977C56.4395 9.21643 56.5095 9.47977 56.5095 9.77977C56.5095 10.0798 56.4261 10.3498 56.2595 10.5898C56.0995 10.8231 55.8728 11.0431 55.5795 11.2498L54.9195 11.7298C54.7795 11.8231 54.6628 11.9264 54.5695 12.0398C54.4695 12.1531 54.3928 12.2764 54.3395 12.4098H56.5795V13.2498H53.1895ZM59.6795 13.3298C59.3461 13.3298 59.0628 13.2731 58.8295 13.1598C58.6028 13.0398 58.4161 12.8731 58.2695 12.6598C58.1228 12.4531 58.0128 12.2098 57.9395 11.9298C57.8728 11.6498 57.8395 11.3498 57.8395 11.0298C57.8395 10.6564 57.8795 10.3031 57.9595 9.96977C58.0395 9.63643 58.1595 9.3431 58.3195 9.08977C58.4795 8.82977 58.6861 8.62643 58.9395 8.47976C59.1928 8.33976 59.4961 8.26977 59.8495 8.26977C60.1095 8.26977 60.3595 8.30643 60.5995 8.37977C60.8461 8.4531 61.0695 8.55977 61.2695 8.69977L60.7895 9.39977C60.6428 9.29976 60.4861 9.22643 60.3195 9.17977C60.1595 9.1331 60.0095 9.10977 59.8695 9.10977C59.5095 9.10977 59.2261 9.26643 59.0195 9.57977C58.8128 9.89977 58.7128 10.4031 58.7195 11.0898L58.5395 10.9498C58.6461 10.6964 58.8095 10.4931 59.0295 10.3398C59.2561 10.1864 59.5228 10.1098 59.8295 10.1098C60.1428 10.1098 60.4195 10.1798 60.6595 10.3198C60.8995 10.4664 61.0895 10.6664 61.2295 10.9198C61.3628 11.1664 61.4295 11.4431 61.4295 11.7498C61.4295 12.0564 61.3595 12.3298 61.2195 12.5698C61.0728 12.8098 60.8661 12.9964 60.5995 13.1298C60.3395 13.2631 60.0328 13.3298 59.6795 13.3298ZM59.6795 12.5198C59.8328 12.5198 59.9695 12.4864 60.0895 12.4198C60.2095 12.3464 60.3061 12.2498 60.3795 12.1298C60.4461 12.0098 60.4795 11.8698 60.4795 11.7098C60.4795 11.5498 60.4461 11.4098 60.3795 11.2898C60.3061 11.1631 60.2095 11.0631 60.0895 10.9898C59.9695 10.9164 59.8328 10.8798 59.6795 10.8798C59.5261 10.8798 59.3861 10.9164 59.2595 10.9898C59.1395 11.0631 59.0428 11.1631 58.9695 11.2898C58.8961 11.4098 58.8595 11.5498 58.8595 11.7098C58.8595 11.8698 58.8961 12.0098 58.9695 12.1298C59.0428 12.2498 59.1395 12.3464 59.2595 12.4198C59.3861 12.4864 59.5261 12.5198 59.6795 12.5198Z" fill="black"/>
<path d="M31.0603 46.0008V34.8008H34.9803C35.747 34.8008 36.4236 34.9175 37.0103 35.1508C37.597 35.3841 38.057 35.7408 38.3903 36.2208C38.717 36.7008 38.8803 37.3108 38.8803 38.0508C38.8803 38.4441 38.777 38.8141 38.5703 39.1608C38.3636 39.5074 38.0803 39.8208 37.7203 40.1008C38.227 40.3674 38.617 40.7141 38.8903 41.1408C39.1636 41.5741 39.3003 42.1075 39.3003 42.7408C39.3003 43.4408 39.1403 44.0341 38.8203 44.5208C38.5003 45.0074 38.057 45.3741 37.4903 45.6208C36.9236 45.8741 36.2636 46.0008 35.5103 46.0008H31.0603ZM33.5703 43.7308H35.2203C35.6603 43.7308 36.007 43.6141 36.2603 43.3808C36.5136 43.1541 36.6403 42.8608 36.6403 42.5008C36.6403 42.1141 36.507 41.8108 36.2403 41.5908C35.9736 41.3708 35.607 41.2608 35.1403 41.2608H33.5703V43.7308ZM33.5703 39.2008H34.9003C35.307 39.2008 35.6336 39.0974 35.8803 38.8908C36.1203 38.6841 36.2403 38.3941 36.2403 38.0208C36.2403 37.6341 36.1103 37.3374 35.8503 37.1308C35.5903 36.9241 35.2403 36.8208 34.8003 36.8208H33.5703V39.2008ZM44.4403 46.1908C43.607 46.1908 42.8703 46.0141 42.2303 45.6608C41.5903 45.3008 41.087 44.8074 40.7203 44.1808C40.3603 43.5474 40.1803 42.8208 40.1803 42.0008C40.1803 41.1674 40.3636 40.4374 40.7303 39.8108C41.097 39.1775 41.6003 38.6874 42.2403 38.3408C42.8803 37.9874 43.6236 37.8108 44.4703 37.8108C45.2236 37.8108 45.907 37.9908 46.5203 38.3508C47.127 38.7174 47.607 39.2575 47.9603 39.9708C48.3203 40.6841 48.5003 41.5741 48.5003 42.6408H42.4803L42.7603 42.3408C42.7603 42.7008 42.8336 43.0208 42.9803 43.3008C43.127 43.5741 43.3336 43.7841 43.6003 43.9308C43.867 44.0708 44.167 44.1408 44.5003 44.1408C44.8936 44.1408 45.227 44.0541 45.5003 43.8808C45.7736 43.7074 45.9636 43.4874 46.0703 43.2208L48.2803 43.9708C48.067 44.4708 47.7636 44.8875 47.3703 45.2208C46.9836 45.5475 46.5403 45.7908 46.0403 45.9508C45.5336 46.1108 45.0003 46.1908 44.4403 46.1908ZM42.8203 41.3008L42.5603 40.9808H46.1503L45.9203 41.3008C45.9203 40.9008 45.8403 40.5841 45.6803 40.3508C45.5203 40.1174 45.3236 39.9508 45.0903 39.8508C44.857 39.7508 44.6236 39.7008 44.3903 39.7008C44.157 39.7008 43.9203 39.7508 43.6803 39.8508C43.4403 39.9508 43.237 40.1174 43.0703 40.3508C42.9036 40.5841 42.8203 40.9008 42.8203 41.3008ZM52.5603 46.1908C52.0403 46.1908 51.5536 46.1141 51.1003 45.9608C50.647 45.8074 50.2536 45.5874 49.9203 45.3008C49.5936 45.0208 49.3503 44.6774 49.1903 44.2708L51.2403 43.4108C51.3736 43.6841 51.5636 43.8874 51.8103 44.0208C52.057 44.1541 52.307 44.2208 52.5603 44.2208C52.827 44.2208 53.037 44.1774 53.1903 44.0908C53.337 43.9974 53.4103 43.8708 53.4103 43.7108C53.4103 43.5441 53.3336 43.4108 53.1803 43.3108C53.027 43.2175 52.807 43.1341 52.5203 43.0608L51.8303 42.8808C51.0836 42.6874 50.5103 42.3708 50.1103 41.9308C49.7103 41.4841 49.5103 40.9674 49.5103 40.3808C49.5103 39.5608 49.7936 38.9274 50.3603 38.4808C50.9203 38.0341 51.7036 37.8108 52.7103 37.8108C53.277 37.8108 53.7736 37.8841 54.2003 38.0308C54.6336 38.1841 54.997 38.3941 55.2903 38.6608C55.5836 38.9341 55.7936 39.2541 55.9203 39.6208L53.9403 40.4308C53.867 40.2174 53.7136 40.0541 53.4803 39.9408C53.2536 39.8341 53.0003 39.7808 52.7203 39.7808C52.487 39.7808 52.307 39.8308 52.1803 39.9308C52.0536 40.0308 51.9903 40.1674 51.9903 40.3408C51.9903 40.4674 52.067 40.5741 52.2203 40.6608C52.3736 40.7541 52.6003 40.8374 52.9003 40.9108L53.7503 41.1208C54.2503 41.2474 54.6703 41.4408 55.0103 41.7008C55.3503 41.9674 55.607 42.2741 55.7803 42.6208C55.9536 42.9674 56.0403 43.3374 56.0403 43.7308C56.0403 44.2308 55.8936 44.6641 55.6003 45.0308C55.307 45.3974 54.897 45.6841 54.3703 45.8908C53.8503 46.0908 53.247 46.1908 52.5603 46.1908ZM60.6603 46.1908C59.7136 46.1908 59.007 45.9641 58.5403 45.5108C58.0736 45.0574 57.8403 44.4108 57.8403 43.5708V35.5008H60.3403V42.9408C60.3403 43.2608 60.4003 43.4974 60.5203 43.6508C60.6336 43.7975 60.8136 43.8708 61.0603 43.8708C61.1536 43.8708 61.267 43.8474 61.4003 43.8008C61.527 43.7541 61.6436 43.6941 61.7503 43.6208L62.6103 45.4408C62.357 45.6541 62.0503 45.8341 61.6903 45.9808C61.337 46.1208 60.9936 46.1908 60.6603 46.1908ZM56.6003 40.1008V38.0008H62.1603V40.1008H56.6003ZM21.1903 62.1908C20.6436 62.1908 20.1236 62.1208 19.6303 61.9808C19.1303 61.8341 18.6803 61.6341 18.2803 61.3808C17.8803 61.1341 17.5536 60.8541 17.3003 60.5408C17.047 60.2208 16.887 59.8808 16.8203 59.5208L19.3603 58.8008C19.4803 59.1074 19.687 59.3774 19.9803 59.6108C20.2736 59.8375 20.6436 59.9574 21.0903 59.9708C21.5303 59.9774 21.897 59.8741 22.1903 59.6608C22.4836 59.4474 22.6303 59.1708 22.6303 58.8308C22.6303 58.5641 22.527 58.3308 22.3203 58.1308C22.107 57.9241 21.8103 57.7674 21.4303 57.6608L19.8403 57.2608C19.287 57.1274 18.807 56.9108 18.4003 56.6108C17.987 56.3108 17.667 55.9441 17.4403 55.5108C17.207 55.0774 17.0903 54.5841 17.0903 54.0308C17.0903 52.9574 17.447 52.1174 18.1603 51.5108C18.8803 50.9108 19.8903 50.6108 21.1903 50.6108C21.9036 50.6108 22.527 50.7074 23.0603 50.9008C23.5936 51.1008 24.0503 51.3941 24.4303 51.7808C24.8103 52.1608 25.1103 52.6408 25.3303 53.2208L22.8003 53.9708C22.7203 53.6841 22.537 53.4208 22.2503 53.1808C21.9703 52.9474 21.607 52.8308 21.1603 52.8308C20.707 52.8308 20.357 52.9341 20.1103 53.1408C19.857 53.3408 19.7303 53.6341 19.7303 54.0208C19.7303 54.2874 19.8336 54.5074 20.0403 54.6808C20.2403 54.8541 20.517 54.9841 20.8703 55.0708L22.4503 55.4708C23.357 55.6975 24.0636 56.1174 24.5703 56.7308C25.077 57.3441 25.3303 58.0408 25.3303 58.8208C25.3303 59.5208 25.167 60.1208 24.8403 60.6208C24.5203 61.1274 24.0503 61.5141 23.4303 61.7808C22.8103 62.0541 22.0636 62.1908 21.1903 62.1908ZM31.9103 62.0008L31.7603 60.5308V54.0008H34.2603V62.0008H31.9103ZM26.6103 58.1008V54.0008H29.1103V58.1008H26.6103ZM29.1103 58.1008C29.1103 58.5141 29.157 58.8474 29.2503 59.1008C29.3503 59.3608 29.4903 59.5474 29.6703 59.6608C29.8503 59.7808 30.0636 59.8474 30.3103 59.8608C30.7903 59.8608 31.1536 59.7241 31.4003 59.4508C31.6403 59.1775 31.7603 58.7675 31.7603 58.2208H32.5203C32.5203 59.0674 32.3903 59.7874 32.1303 60.3808C31.877 60.9674 31.527 61.4174 31.0803 61.7308C30.6403 62.0374 30.127 62.1908 29.5403 62.1908C28.9003 62.1908 28.3603 62.0608 27.9203 61.8008C27.487 61.5408 27.1603 61.1441 26.9403 60.6108C26.7203 60.0774 26.6103 59.3941 26.6103 58.5608V58.1008H29.1103ZM35.9703 65.2008V54.0008H38.3203L38.4703 55.4708V65.2008H35.9703ZM40.7403 62.1908C40.0803 62.1908 39.527 62.0241 39.0803 61.6908C38.627 61.3508 38.2903 60.8675 38.0703 60.2408C37.8436 59.6141 37.7303 58.8674 37.7303 58.0008C37.7303 57.1274 37.8436 56.3774 38.0703 55.7508C38.2903 55.1308 38.627 54.6508 39.0803 54.3108C39.527 53.9774 40.0803 53.8108 40.7403 53.8108C41.487 53.8108 42.1336 53.9774 42.6803 54.3108C43.2203 54.6508 43.6336 55.1308 43.9203 55.7508C44.2136 56.3774 44.3603 57.1274 44.3603 58.0008C44.3603 58.8674 44.2136 59.6141 43.9203 60.2408C43.6336 60.8675 43.2203 61.3508 42.6803 61.6908C42.1336 62.0241 41.487 62.1908 40.7403 62.1908ZM40.1003 59.8908C40.4203 59.8908 40.7036 59.8108 40.9503 59.6508C41.197 59.4908 41.3936 59.2674 41.5403 58.9808C41.687 58.7008 41.7603 58.3741 41.7603 58.0008C41.7603 57.6274 41.6936 57.3008 41.5603 57.0208C41.4203 56.7341 41.2236 56.5108 40.9703 56.3508C40.7236 56.1908 40.4403 56.1108 40.1203 56.1108C39.8003 56.1108 39.5136 56.1908 39.2603 56.3508C39.007 56.5108 38.8136 56.7341 38.6803 57.0208C38.5403 57.3141 38.4703 57.6408 38.4703 58.0008C38.4703 58.3741 38.5403 58.7008 38.6803 58.9808C38.8136 59.2674 39.0036 59.4908 39.2503 59.6508C39.497 59.8108 39.7803 59.8908 40.1003 59.8908ZM45.6503 65.2008V54.0008H48.0003L48.1503 55.4708V65.2008H45.6503ZM50.4203 62.1908C49.7603 62.1908 49.207 62.0241 48.7603 61.6908C48.307 61.3508 47.9703 60.8675 47.7503 60.2408C47.5236 59.6141 47.4103 58.8674 47.4103 58.0008C47.4103 57.1274 47.5236 56.3774 47.7503 55.7508C47.9703 55.1308 48.307 54.6508 48.7603 54.3108C49.207 53.9774 49.7603 53.8108 50.4203 53.8108C51.167 53.8108 51.8136 53.9774 52.3603 54.3108C52.9003 54.6508 53.3136 55.1308 53.6003 55.7508C53.8936 56.3774 54.0403 57.1274 54.0403 58.0008C54.0403 58.8674 53.8936 59.6141 53.6003 60.2408C53.3136 60.8675 52.9003 61.3508 52.3603 61.6908C51.8136 62.0241 51.167 62.1908 50.4203 62.1908ZM49.7803 59.8908C50.1003 59.8908 50.3836 59.8108 50.6303 59.6508C50.877 59.4908 51.0736 59.2674 51.2203 58.9808C51.367 58.7008 51.4403 58.3741 51.4403 58.0008C51.4403 57.6274 51.3736 57.3008 51.2403 57.0208C51.1003 56.7341 50.9036 56.5108 50.6503 56.3508C50.4036 56.1908 50.1203 56.1108 49.8003 56.1108C49.4803 56.1108 49.1936 56.1908 48.9403 56.3508C48.687 56.5108 48.4936 56.7341 48.3603 57.0208C48.2203 57.3141 48.1503 57.6408 48.1503 58.0008C48.1503 58.3741 48.2203 58.7008 48.3603 58.9808C48.4936 59.2674 48.6836 59.4908 48.9303 59.6508C49.177 59.8108 49.4603 59.8908 49.7803 59.8908ZM59.1203 62.1908C58.2803 62.1908 57.5403 62.0141 56.9003 61.6608C56.2603 61.3008 55.757 60.8074 55.3903 60.1808C55.0236 59.5474 54.8403 58.8208 54.8403 58.0008C54.8403 57.1808 55.017 56.4541 55.3703 55.8208C55.7303 55.1941 56.2336 54.7008 56.8803 54.3408C57.5203 53.9874 58.2536 53.8108 59.0803 53.8108C59.9203 53.8108 60.6636 53.9874 61.3103 54.3408C61.957 54.7008 62.457 55.1941 62.8103 55.8208C63.1703 56.4541 63.3503 57.1808 63.3503 58.0008C63.3503 58.8208 63.1703 59.5474 62.8103 60.1808C62.457 60.8074 61.9603 61.3008 61.3203 61.6608C60.6803 62.0141 59.947 62.1908 59.1203 62.1908ZM59.1203 59.8908C59.4403 59.8908 59.727 59.8108 59.9803 59.6508C60.2336 59.4908 60.4303 59.2674 60.5703 58.9808C60.717 58.7008 60.7903 58.3741 60.7903 58.0008C60.7903 57.6274 60.717 57.3008 60.5703 57.0208C60.4303 56.7341 60.2303 56.5108 59.9703 56.3508C59.717 56.1908 59.4236 56.1108 59.0903 56.1108C58.7636 56.1108 58.4703 56.1908 58.2103 56.3508C57.957 56.5108 57.757 56.7341 57.6103 57.0208C57.4703 57.3008 57.4003 57.6274 57.4003 58.0008C57.4003 58.3741 57.4703 58.7008 57.6103 58.9808C57.757 59.2674 57.9603 59.4908 58.2203 59.6508C58.4803 59.8108 58.7803 59.8908 59.1203 59.8908ZM66.4003 57.8608C66.4003 56.9941 66.5736 56.2741 66.9203 55.7008C67.267 55.1208 67.707 54.6875 68.2403 54.4008C68.767 54.1141 69.317 53.9708 69.8903 53.9708V56.4008C69.4036 56.4008 68.9436 56.4541 68.5103 56.5608C68.077 56.6674 67.727 56.8308 67.4603 57.0508C67.1936 57.2708 67.0603 57.5508 67.0603 57.8908L66.4003 57.8608ZM64.5603 62.0008V54.0008H67.0603V62.0008H64.5603ZM74.3703 62.1908C73.4236 62.1908 72.717 61.9641 72.2503 61.5108C71.7903 61.0574 71.5603 60.4108 71.5603 59.5708V51.5008H74.0503V58.9408C74.0503 59.2608 74.1103 59.4974 74.2303 59.6508C74.3437 59.7975 74.5236 59.8708 74.7703 59.8708C74.8703 59.8708 74.9836 59.8474 75.1103 59.8008C75.237 59.7541 75.3536 59.6941 75.4603 59.6208L76.3203 61.4408C76.067 61.6541 75.7603 61.8341 75.4003 61.9808C75.047 62.1208 74.7036 62.1908 74.3703 62.1908ZM70.3103 56.1008V54.0008H75.8803V56.1008H70.3103Z" fill="black"/>
<path d="M71 0H92V21H71V0Z" fill="#FF492C"/>
<path fill-rule="evenodd" clip-rule="evenodd" d="M86.0495 8.04164H84.2555C84.3045 7.76164 84.4775 7.60364 84.8305 7.42564L85.1605 7.25764C85.7525 6.95464 86.0665 6.61364 86.0665 6.05764C86.0725 5.89671 86.0385 5.7368 85.9675 5.59227C85.8964 5.44775 85.7906 5.32314 85.6595 5.22964C85.3945 5.02964 85.0695 4.93164 84.6945 4.93164C84.3965 4.93164 84.1255 5.00764 83.8765 5.16464C83.6415 5.30352 83.453 5.50881 83.3345 5.75464L83.8545 6.27364C84.0545 5.86764 84.3475 5.66764 84.7325 5.66764C85.0585 5.66764 85.2585 5.83564 85.2585 6.06764C85.2585 6.26264 85.1615 6.42464 84.7865 6.61364L84.5765 6.71664C84.1145 6.94964 83.7945 7.21464 83.6105 7.51664C83.4265 7.81464 83.3345 8.19864 83.3345 8.65864V8.78264H86.0505V8.04264L86.0495 8.04164ZM85.8055 9.64164H82.8385L81.3555 12.2116H84.3225L85.8055 14.7816L87.2885 12.2116L85.8055 9.64164Z" fill="white"/>
<path fill-rule="evenodd" clip-rule="evenodd" d="M81.6075 13.9276C80.6984 13.9268 79.8267 13.5654 79.1837 12.9228C78.5406 12.2801 78.1788 11.4087 78.1775 10.4996C78.1791 9.59065 78.541 8.71945 79.184 8.07702C79.827 7.43459 80.6985 7.07337 81.6075 7.07258L82.7825 4.61658C81.912 4.44244 81.0138 4.46362 80.1525 4.67859C79.2912 4.89356 78.4884 5.29696 77.8018 5.85971C77.1153 6.42247 76.5622 7.13054 76.1824 7.93289C75.8026 8.73524 75.6055 9.61187 75.6055 10.4996C75.6057 11.2875 75.7612 12.0677 76.063 12.7955C76.3647 13.5234 76.8069 14.1847 77.3642 14.7416C77.9216 15.2986 78.5832 15.7403 79.3112 16.0416C80.0393 16.3429 80.8195 16.4978 81.6075 16.4976C82.8781 16.4997 84.1163 16.0968 85.1425 15.3476L83.8425 13.0976C83.2425 13.6136 82.4605 13.9276 81.6075 13.9276Z" fill="white"/>
<path d="M0 83.2235V77.0195L46 100.063L92 77.0195V83.2915L46 106.001L0 83.2235Z" fill="#27D3BC"/>
<path d="M0 77.5664V71.0664L46 94.1084L92 71.0664V77.5664L46 100.046L0 77.5664Z" fill="white"/>
<path d="M0 71.6319V65.1319L46 88.1749L92 65.1309V71.6309L46 94.1109L0 71.6319Z" fill="white"/>
<path d="M91.53 20.533H0.625M71.262 0.909V20.533M91.5 0.5V83.022L46 105.441L0.5 83.022V0.5H91.5Z" stroke="black"/>
</g>
<defs>
<clipPath id="clip0_2121_12150">
<rect width="92" height="106" fill="white"/>
</clipPath>
</defs>
</svg>
