<svg width="120" height="109" viewBox="0 0 120 109" fill="none" xmlns="http://www.w3.org/2000/svg">
<g clip-path="url(#clip0_933_6892)">
<path d="M9.58503 43.8147H0.046875L9.18835 40.5422L9.58503 43.8147Z" fill="#A4DEF9"/>
<path d="M120.4 43.8509L120.418 43.8147H110.952L111.349 40.5422L120.49 43.8147L120.4 43.8509Z" fill="#A4DEF9"/>
<path d="M104.552 43.8146H0.046875L6.80832 65.3117H107.022C105.94 58.1701 104.732 51.0285 104.57 43.8146H104.552Z" fill="#68C5ED"/>
<path d="M112.648 48.4611C106.319 74.8579 81.3111 98.1269 60.2334 108.794C39.1557 98.1269 14.1474 74.8579 7.81866 48.4611C3.58149 30.797 5.07802 12.0299 7.74654 0.314087H112.738C115.389 12.0299 116.903 30.797 112.666 48.4611H112.648Z" fill="#044D80"/>
<path d="M60.2329 104.997L59.9805 104.853C49.4146 99.1938 38.8848 90.9312 30.3563 81.5658C20.4756 70.7178 13.8043 59.0019 11.0817 47.6658C7.9624 34.6482 7.69194 18.3762 10.3785 4.11104L10.4686 3.67712H110.015L110.105 4.11104C112.792 18.3762 112.521 34.6482 109.402 47.6658C106.68 59.0019 100.026 70.7178 90.1275 81.5658C81.581 90.9312 71.0693 99.1938 60.5034 104.853L60.2509 104.997H60.2329ZM11.3702 4.76192C8.80983 18.7739 9.09832 34.6843 12.1455 47.4126C14.814 58.568 21.3951 70.1211 31.1677 80.8426C39.5519 90.0453 49.8834 98.1813 60.2509 103.768C70.6185 98.1813 80.95 90.0453 89.3342 80.8426C99.1067 70.1392 105.67 58.568 108.356 47.4126C111.404 34.6662 111.692 18.7558 109.132 4.76192H11.3702Z" fill="white"/>
<path d="M120.419 43.8146L120.401 43.8507L113.657 65.3298H6.80832L0.046875 43.8146H120.419Z" fill="#68C5ED"/>
<path d="M14.1104 21.3592H22.4765H27.5611V16.2245L14.1104 21.3592Z" fill="#FF9D28"/>
<path d="M27.561 16.2246V34.3227L33.9078 13.8019L27.561 16.2246Z" fill="#68C5ED"/>
<path d="M27.5612 21.3593H22.4766L27.5612 34.3226V21.3593Z" fill="#16729B"/>
<path d="M14.1104 21.3593L23.7747 24.686L22.4765 21.3593H14.1104Z" fill="#E54747"/>
<path d="M44.9246 29.5676C44.8525 29.6399 44.7263 29.7303 44.564 29.8568C44.3837 29.9653 44.1674 30.0738 43.8969 30.2004C43.6264 30.3088 43.2839 30.4173 42.8872 30.4896C42.4905 30.562 42.0217 30.6162 41.5169 30.6162C40.5252 30.6162 39.6597 30.4535 38.9385 30.128C38.2173 29.8026 37.6223 29.3506 37.1355 28.772C36.6667 28.1935 36.3241 27.5064 36.0897 26.7109C35.8733 25.9154 35.7651 25.0476 35.7651 24.0893C35.7651 23.1311 35.8914 22.2632 36.1257 21.4496C36.3601 20.636 36.7208 19.949 37.2076 19.3524C37.6944 18.7738 38.2894 18.3037 39.0106 17.9783C39.7319 17.6528 40.5793 17.4901 41.5529 17.4901C42.5266 17.4901 42.4725 17.5263 42.8511 17.6167C43.2298 17.7071 43.5724 17.8156 43.8608 17.924C44.1493 18.0506 44.3837 18.1591 44.5821 18.3037C44.7804 18.4303 44.9246 18.5388 45.0148 18.6292C45.123 18.7376 45.2131 18.8461 45.3033 18.9908C45.3754 19.1354 45.4295 19.28 45.4295 19.4428C45.4295 19.6959 45.3393 19.949 45.159 20.184C44.9787 20.4372 44.7804 20.6722 44.546 20.8711C44.4018 20.7264 44.2395 20.5637 44.0411 20.4191C43.8608 20.2564 43.6445 20.1298 43.4281 20.0032C43.1937 19.8767 42.9413 19.7863 42.6528 19.6959C42.3643 19.6236 42.0398 19.5693 41.6791 19.5693C41.0481 19.5693 40.5252 19.6959 40.1105 19.949C39.6778 20.2021 39.3532 20.5456 39.0828 20.9434C38.8303 21.3592 38.632 21.8293 38.5238 22.3536C38.4156 22.878 38.3615 23.4204 38.3615 23.9808C38.3615 24.5413 38.4156 25.138 38.5238 25.6623C38.632 26.2047 38.8303 26.6748 39.1008 27.0906C39.3712 27.5064 39.7319 27.8319 40.1646 28.085C40.5973 28.3381 41.1382 28.4647 41.7873 28.4647C42.4364 28.4647 42.4545 28.4285 42.7429 28.3381C43.0314 28.2477 43.2839 28.1392 43.5002 28.0127C43.7166 27.8861 43.9149 27.7596 44.0772 27.6149C44.2395 27.4703 44.3837 27.3618 44.4919 27.2533C44.564 27.3437 44.6542 27.4522 44.7443 27.5788C44.8345 27.7053 44.9427 27.8319 45.0148 27.9765C45.1049 28.1212 45.1771 28.2477 45.2312 28.3924C45.2853 28.537 45.3213 28.6636 45.3213 28.772C45.3213 28.9348 45.2853 29.0794 45.2312 29.1879C45.1771 29.2964 45.0689 29.4229 44.9427 29.5676" fill="white"/>
<path d="M54.427 28.1212C54.427 29.1156 54.5712 29.8388 54.8597 30.2908C54.6433 30.3812 54.427 30.4355 54.2467 30.4716C54.0483 30.5078 53.85 30.5259 53.6516 30.5259C53.2009 30.5259 52.8763 30.4355 52.6419 30.2547C52.4075 30.0739 52.2633 29.8208 52.2092 29.4953C51.9387 29.7846 51.5781 30.0377 51.1274 30.2366C50.6766 30.4355 50.1357 30.544 49.5046 30.544C48.8735 30.544 48.8375 30.4897 48.4949 30.3993C48.1523 30.3089 47.8638 30.1462 47.5934 29.9473C47.3229 29.7304 47.1066 29.4411 46.9263 29.0976C46.7459 28.736 46.6738 28.302 46.6738 27.7958C46.6738 27.2896 46.8181 26.6387 47.1246 26.2409C47.4311 25.8432 47.8097 25.5177 48.2605 25.2827C48.7113 25.0476 49.2161 24.8849 49.739 24.7945C50.2619 24.7041 50.7668 24.6499 51.1995 24.6318C51.3437 24.6318 51.488 24.6137 51.6322 24.6137H52.0289V24.2702C52.0289 23.782 51.9027 23.4385 51.6503 23.2396C51.3978 23.0408 50.9831 22.9323 50.4242 22.9323C49.8652 22.9323 49.4145 23.0227 48.9998 23.2035C48.5851 23.3843 48.1884 23.5832 47.7917 23.8001C47.6114 23.5832 47.4852 23.3481 47.377 23.095C47.2688 22.8419 47.2147 22.643 47.2147 22.5164C47.2147 22.3899 47.3049 22.1729 47.5032 22.0102C47.7016 21.8475 47.954 21.7028 48.2966 21.5582C48.6392 21.4316 49.0178 21.3232 49.4505 21.2328C49.8833 21.1424 50.334 21.1062 50.8208 21.1062C51.3077 21.1062 52.0469 21.1785 52.5157 21.3051C52.9845 21.4497 53.3632 21.6486 53.6516 21.9379C53.9401 22.2272 54.1565 22.5888 54.2647 23.0227C54.3909 23.4566 54.445 23.9628 54.445 24.5414V28.0851L54.427 28.1212ZM52.0469 25.9336H51.7945C51.7043 25.9336 51.6142 25.9336 51.5421 25.9516C51.2356 25.9697 50.929 26.0059 50.6225 26.0601C50.316 26.1144 50.0455 26.2048 49.8111 26.3313C49.5767 26.4579 49.3784 26.6206 49.2342 26.8195C49.0899 27.0184 49.0178 27.2715 49.0178 27.5969C49.0178 27.9224 49.108 28.2478 49.3063 28.5009C49.5046 28.754 49.8292 28.8625 50.316 28.8625C50.8028 28.8625 50.7668 28.8264 50.9831 28.7721C51.1995 28.7179 51.3798 28.6275 51.5421 28.519C51.7043 28.4105 51.8306 28.302 51.9207 28.1936C52.0109 28.067 52.065 27.9585 52.065 27.8681V25.9516L52.0469 25.9336Z" fill="white"/>
<path d="M59.0425 22.2271C59.2409 21.9921 59.5474 21.739 59.9621 21.5039C60.3768 21.2508 60.9177 21.1423 61.5488 21.1423C62.1798 21.1423 62.4323 21.2147 62.847 21.3774C63.2617 21.5401 63.6223 21.7932 63.9468 22.1367C64.2714 22.4803 64.5238 22.9503 64.7221 23.5289C64.9205 24.1075 65.0106 24.8126 65.0106 25.6623C65.0106 26.5121 64.9024 27.4523 64.6861 28.0851C64.4697 28.7179 64.1812 29.2241 63.8206 29.5857C63.478 29.9654 63.0814 30.2185 62.6486 30.3631C62.2159 30.5078 61.7832 30.5982 61.3504 30.5982C60.9177 30.5982 60.6833 30.562 60.4128 30.4716C60.1424 30.3812 59.926 30.2908 59.7457 30.2004C59.5654 30.0919 59.4212 30.0015 59.313 29.8931C59.2228 29.7846 59.1507 29.7303 59.1327 29.6942V34.3227H56.6084V21.3955C56.6625 21.3955 56.7526 21.3774 56.8248 21.3593C56.8969 21.3593 56.987 21.3412 57.0952 21.3231C57.2034 21.3231 57.3116 21.3231 57.4558 21.3231C57.8705 21.3231 58.2131 21.3955 58.5016 21.522C58.7901 21.6667 58.9704 21.9017 59.0425 22.2271ZM62.3782 25.7166C62.3782 25.3369 62.3421 24.9934 62.288 24.6679C62.2339 24.3425 62.1257 24.0532 61.9815 23.8182C61.8373 23.5831 61.6569 23.4023 61.4045 23.2577C61.1701 23.1311 60.8816 23.0588 60.521 23.0588C59.9981 23.0588 59.6375 23.1673 59.4392 23.3662C59.2409 23.5651 59.1327 23.782 59.1327 24.0351V28.0308C59.2228 28.1393 59.4031 28.2478 59.6556 28.3924C59.908 28.5371 60.1965 28.5913 60.5391 28.5913C61.1701 28.5913 61.6209 28.3382 61.9274 27.8319C62.2159 27.3257 62.3782 26.6206 62.3782 25.7166Z" fill="white"/>
<path d="M66.9576 28.9528C66.8675 28.6997 66.8134 28.4285 66.7953 28.1573C66.7773 27.8861 66.7593 27.5968 66.7593 27.3256V18.5749C66.8494 18.5749 66.9396 18.5568 67.0297 18.5387C67.1199 18.5387 67.21 18.5206 67.3002 18.5026C67.3903 18.5026 67.4985 18.5026 67.5887 18.5026C67.787 18.5026 67.9854 18.5206 68.1837 18.5568C68.382 18.593 68.5623 18.6653 68.7246 18.7918C68.8869 18.9003 69.0131 19.063 69.1213 19.2619C69.2114 19.4608 69.2655 19.7139 69.2655 20.0213V21.3592H71.8619V23.2576H69.2655V27.2714C69.2655 28.1573 69.6261 28.5912 70.3293 28.5912C71.0325 28.5912 70.6719 28.555 70.8161 28.5008C70.9784 28.4466 71.1046 28.3742 71.2308 28.32C71.3571 28.2477 71.4652 28.1754 71.5554 28.103C71.6456 28.0307 71.7177 27.9765 71.7537 27.9403C71.934 28.2115 72.0783 28.4646 72.1865 28.6635C72.2766 28.8624 72.3307 29.0613 72.3307 29.2421C72.3307 29.4229 72.2586 29.5675 72.1324 29.7302C72.0062 29.893 71.8259 30.0376 71.5915 30.1642C71.3571 30.2907 71.0686 30.3992 70.744 30.4896C70.4195 30.58 70.0408 30.6162 69.6442 30.6162C68.8688 30.6162 68.2738 30.4715 67.8591 30.1642C67.4264 29.8568 67.1379 29.459 66.9576 28.9709" fill="white"/>
<path d="M78.2456 28.718C78.5521 28.718 78.8226 28.6818 79.057 28.6095C79.2914 28.5372 79.5077 28.4468 79.688 28.3564C79.8683 28.2479 80.0306 28.1394 80.1748 28.031C80.3191 27.9044 80.4273 27.7959 80.5535 27.7055C80.6977 27.8863 80.86 28.1394 81.0223 28.4287C81.1845 28.718 81.2567 28.9711 81.2567 29.1519C81.2567 29.4231 81.0944 29.6762 80.7879 29.9113C80.5355 30.1101 80.1568 30.291 79.688 30.4356C79.2192 30.5802 78.6603 30.6526 78.0112 30.6526C77.3621 30.6526 76.8572 30.5802 76.2983 30.4175C75.7393 30.2729 75.2345 30.0017 74.8017 29.622C74.369 29.2423 74.0084 28.7361 73.7379 28.1033C73.4675 27.4705 73.3232 26.6749 73.3232 25.6986C73.3232 24.7223 73.4495 24.2161 73.6839 23.6556C73.9182 23.077 74.2428 22.6069 74.6395 22.2273C75.0361 21.8476 75.4869 21.5764 76.0098 21.3956C76.5146 21.2148 77.0375 21.1244 77.5604 21.1244C78.0833 21.1244 78.8406 21.2329 79.3274 21.4498C79.8142 21.6668 80.1929 21.9742 80.4994 22.3358C80.8059 22.7154 81.0223 23.1313 81.1485 23.6014C81.2927 24.0714 81.3468 24.5777 81.3468 25.102V25.3732C81.3468 25.4817 81.3468 25.5721 81.3468 25.6986C81.3468 25.8071 81.3468 25.9156 81.3288 26.0241C81.3288 26.1325 81.3288 26.223 81.2927 26.2772H75.8295C75.8836 26.9642 76.0819 27.5428 76.4606 27.9948C76.8392 28.4468 77.4162 28.6818 78.2275 28.6818M79.093 24.885C79.093 24.2884 78.9848 23.7822 78.7504 23.4206C78.516 23.0409 78.1013 22.8601 77.5063 22.8601C76.9113 22.8601 76.5868 23.0409 76.2802 23.4025C75.9737 23.7641 75.8295 24.2522 75.8295 24.9031H79.093V24.885Z" fill="white"/>
<path d="M85.7638 22.2633C85.8359 22.1548 85.9441 22.0283 86.0522 21.8836C86.1784 21.739 86.3227 21.6305 86.503 21.504C86.6833 21.3955 86.8816 21.3051 87.098 21.2147C87.3144 21.1424 87.5488 21.1062 87.8012 21.1062C88.0536 21.1062 88.1077 21.1062 88.27 21.1424C88.4323 21.1604 88.5945 21.2147 88.7388 21.287C88.883 21.3593 88.9912 21.4497 89.0814 21.5763C89.1715 21.7028 89.2076 21.8475 89.2076 22.0102C89.2076 22.2814 89.1355 22.6068 89.0092 22.9504C88.865 23.312 88.7388 23.6012 88.5945 23.8544C88.3782 23.6736 88.1798 23.547 87.9635 23.4566C87.7471 23.3662 87.5127 23.312 87.2242 23.312C86.9357 23.312 86.521 23.4204 86.2686 23.6555C86.0162 23.8905 85.8719 24.1617 85.8719 24.4691V30.5801H83.3477V21.3774C83.4017 21.3774 83.4919 21.3593 83.564 21.3412C83.6361 21.3412 83.7263 21.3232 83.8164 21.3051C83.9066 21.3051 84.0328 21.3051 84.1771 21.3051C84.5737 21.3051 84.9163 21.3774 85.2048 21.5401C85.4933 21.7028 85.6736 21.9379 85.7457 22.2633" fill="white"/>
<path d="M92.9219 22.2633C92.9941 22.1548 93.1023 22.0283 93.2104 21.8836C93.3367 21.739 93.4809 21.6305 93.6612 21.504C93.8415 21.3955 94.0398 21.3051 94.2562 21.2147C94.4726 21.1424 94.707 21.1062 94.9594 21.1062C95.2118 21.1062 95.2659 21.1062 95.4282 21.1424C95.5905 21.1604 95.7527 21.2147 95.897 21.287C96.0412 21.3593 96.1494 21.4497 96.2396 21.5763C96.3297 21.7028 96.3658 21.8475 96.3658 22.0102C96.3658 22.2814 96.2937 22.6068 96.1674 22.9504C96.0232 23.312 95.897 23.6012 95.7527 23.8544C95.5364 23.6736 95.338 23.547 95.1217 23.4566C94.9053 23.3662 94.6709 23.312 94.3824 23.312C94.0939 23.312 93.6792 23.4204 93.4268 23.6555C93.1744 23.8905 93.0301 24.1617 93.0301 24.4691V30.5801H90.5059V21.3774C90.56 21.3774 90.6501 21.3593 90.7222 21.3412C90.7944 21.3412 90.8845 21.3232 90.9746 21.3051C91.0648 21.3051 91.191 21.3051 91.3353 21.3051C91.7319 21.3051 92.0745 21.3774 92.363 21.5401C92.6515 21.7028 92.8318 21.9379 92.9039 22.2633" fill="white"/>
<path d="M104.966 28.1212C104.966 29.1156 105.11 29.8388 105.399 30.2908C105.182 30.3812 104.966 30.4355 104.786 30.4716C104.587 30.5078 104.389 30.5259 104.191 30.5259C103.74 30.5259 103.415 30.4355 103.181 30.2547C102.947 30.0739 102.802 29.8208 102.748 29.4953C102.478 29.7846 102.117 30.0377 101.666 30.2366C101.216 30.4355 100.675 30.544 100.044 30.544C99.4126 30.544 99.3765 30.4897 99.034 30.3993C98.6914 30.3089 98.4029 30.1462 98.1324 29.9473C97.862 29.7304 97.6456 29.4411 97.4653 29.0976C97.285 28.736 97.2129 28.302 97.2129 27.7958C97.2129 27.2896 97.3571 26.6387 97.6637 26.2409C97.9702 25.8432 98.3488 25.5177 98.7996 25.2827C99.2503 25.0476 99.7552 24.8849 100.278 24.7945C100.801 24.7041 101.306 24.6499 101.739 24.6318C101.883 24.6318 102.027 24.6137 102.171 24.6137H102.568V24.2702C102.568 23.782 102.442 23.4385 102.189 23.2396C101.937 23.0408 101.522 22.9323 100.963 22.9323C100.404 22.9323 99.9535 23.0227 99.5388 23.2035C99.1241 23.3843 98.7274 23.5832 98.3308 23.8001C98.1505 23.5832 98.0243 23.3481 97.9161 23.095C97.8079 22.8419 97.7538 22.643 97.7538 22.5164C97.7538 22.3899 97.844 22.1729 98.0423 22.0102C98.2406 21.8475 98.4931 21.7028 98.8356 21.5582C99.1782 21.4316 99.5569 21.3232 99.9896 21.2328C100.422 21.1424 100.873 21.1062 101.36 21.1062C101.847 21.1062 102.586 21.1785 103.055 21.3051C103.524 21.4497 103.902 21.6486 104.191 21.9379C104.479 22.2272 104.696 22.5888 104.804 23.0227C104.93 23.4566 104.984 23.9628 104.984 24.5414V28.0851L104.966 28.1212ZM102.586 25.9336H102.334C102.243 25.9336 102.153 25.9336 102.081 25.9516C101.775 25.9697 101.468 26.0059 101.162 26.0601C100.855 26.1144 100.585 26.2048 100.35 26.3313C100.116 26.4579 99.9175 26.6206 99.7732 26.8195C99.629 27.0184 99.5569 27.2715 99.5569 27.5969C99.5569 27.9224 99.647 28.2478 99.8453 28.5009C100.044 28.754 100.368 28.8625 100.855 28.8625C101.342 28.8625 101.306 28.8264 101.522 28.7721C101.739 28.7179 101.919 28.6275 102.081 28.519C102.243 28.4105 102.37 28.302 102.46 28.1936C102.55 28.067 102.604 27.9585 102.604 27.8681V25.9516L102.586 25.9336Z" fill="white"/>
<path d="M21.936 49.8173H25.2176C26.4978 49.8173 27.4353 50.0161 28.0664 50.3958C28.6795 50.7755 28.986 51.3721 28.986 52.1677C28.986 52.9632 28.8598 53.144 28.5893 53.5237C28.3188 53.9033 27.9582 54.1384 27.5255 54.2469V54.3192C28.1025 54.4819 28.5352 54.735 28.7876 55.0966C29.0401 55.4582 29.1843 55.9283 29.1843 56.5069C29.1843 57.3566 28.8598 58.0437 28.2287 58.5318C27.5796 59.02 26.7141 59.2731 25.6143 59.2731H21.9541V49.8534L21.936 49.8173ZM24.4783 53.4333H25.2356C25.5962 53.4333 25.8847 53.3609 26.0831 53.2163C26.2814 53.0717 26.3896 52.8366 26.3896 52.5473C26.3896 52.023 25.9929 51.7518 25.1996 51.7518H24.4783V53.4333ZM24.4783 55.2955V57.2662H25.3799C26.1732 57.2662 26.5699 56.9227 26.5699 56.2537C26.5699 55.5848 26.4617 55.6933 26.2453 55.5305C26.029 55.3678 25.7224 55.2774 25.3258 55.2774H24.4783V55.2955Z" fill="#002E47"/>
<path d="M36.3781 59.2369H30.8066V49.8173H36.3781V51.8603H33.3309V53.3429H36.1437V55.3859H33.3309V57.1577H36.3781V59.2369Z" fill="#002E47"/>
<path d="M44.1681 56.3804C44.1681 56.9589 44.0238 57.4833 43.7173 57.9353C43.4288 58.3873 42.9961 58.7489 42.4371 58.9839C41.8782 59.237 41.2291 59.3636 40.4718 59.3636C39.7145 59.3636 39.3178 59.3274 38.9031 59.237C38.4704 59.1466 38.0377 59.002 37.5869 58.785V56.525C38.0737 56.7781 38.5786 56.977 39.1015 57.1036C39.6244 57.2482 40.1112 57.3205 40.5439 57.3205C40.9767 57.3205 41.193 57.2482 41.3733 57.1217C41.5536 56.9951 41.6438 56.8143 41.6438 56.6154C41.6438 56.4165 41.6077 56.3804 41.5356 56.2719C41.4635 56.1815 41.3553 56.073 41.193 55.9826C41.0307 55.8922 40.616 55.6753 39.9489 55.386C39.3359 55.1148 38.8851 54.8436 38.5786 54.5724C38.2721 54.3193 38.0377 54.0119 37.8934 53.6684C37.7492 53.3249 37.6771 52.9271 37.6771 52.457C37.6771 51.5892 37.9836 50.9202 38.6147 50.4321C39.2457 49.9439 40.1112 49.7089 41.211 49.7089C42.3109 49.7089 43.1764 49.9258 44.1861 50.3778L43.4108 52.3485C42.5273 51.9508 41.77 51.7519 41.1389 51.7519C40.5079 51.7519 40.5619 51.8061 40.4177 51.9327C40.2735 52.0412 40.2013 52.1858 40.2013 52.3666C40.2013 52.5474 40.2915 52.7101 40.4898 52.8548C40.6882 52.9994 41.193 53.2706 42.0405 53.6503C42.8518 54.0119 43.4108 54.4097 43.7353 54.8255C44.0599 55.2413 44.2041 55.7657 44.2041 56.3985L44.1681 56.3804Z" fill="#002E47"/>
<path d="M49.7751 59.2369H47.2328V51.8965H44.9429V49.8173H52.0649V51.8965H49.7751V59.2369Z" fill="#002E47"/>
<path d="M62.0895 49.8173H64.9203L61.8371 59.2369H58.844L55.7788 49.8173H58.6276L59.9078 54.5904C60.1783 55.6571 60.3225 56.3984 60.3405 56.8142C60.3766 56.5069 60.4307 56.1453 60.5208 55.6933C60.611 55.2413 60.6831 54.8797 60.7552 54.6265L62.0534 49.8353L62.0895 49.8173Z" fill="#002E47"/>
<path d="M71.6999 59.237L71.2311 57.4651H68.1839L67.7151 59.237H64.9204L67.9856 49.7811H71.3753L74.4766 59.237H71.6999ZM70.7082 55.3859L70.3115 53.831C70.2214 53.4875 70.0952 53.0355 69.969 52.4931C69.8427 51.9507 69.7526 51.553 69.6985 51.3179C69.6624 51.5349 69.5903 51.8965 69.4641 52.4027C69.3559 52.909 69.1035 53.9034 68.7068 55.3678H70.7082V55.3859Z" fill="#002E47"/>
<path d="M75.5049 59.2369V49.8173H78.0472V57.1758H81.6713V59.2369H75.5229H75.5049Z" fill="#002E47"/>
<path d="M91.1368 49.8171V55.4943C91.1368 56.7237 90.7943 57.682 90.0911 58.3509C89.3879 59.0199 88.3962 59.3634 87.08 59.3634C85.7637 59.3634 84.8081 59.038 84.123 58.369C83.4378 57.7181 83.0952 56.7599 83.0952 55.5304V49.7991H85.6375V55.3315C85.6375 56.0005 85.7637 56.4887 86.0162 56.7779C86.2686 57.0853 86.6292 57.2299 87.116 57.2299C87.6029 57.2299 88.0176 57.0853 88.252 56.7779C88.4864 56.4706 88.5945 55.9824 88.5945 55.3135V49.7991H91.1368V49.8171Z" fill="#002E47"/>
<path d="M98.692 59.2369H93.1206V49.8173H98.692V51.8603H95.6449V53.3429H98.4576V55.3859H95.6449V57.1577H98.692V59.2369Z" fill="#002E47"/>
<path d="M52.9123 84.4404H45.9705V82.7409L48.3145 80.3724C48.9816 79.6673 49.4144 79.1972 49.6307 78.9441C49.8291 78.691 49.9733 78.474 50.0635 78.2932C50.1356 78.1124 50.1897 77.9135 50.1897 77.7146C50.1897 77.5158 50.1175 77.2626 49.9553 77.118C49.793 76.9734 49.5586 76.901 49.2701 76.901C48.9816 76.901 48.6571 76.9914 48.3506 77.1542C48.044 77.335 47.7015 77.5881 47.3048 77.9135L45.8804 76.2502C46.3672 75.8162 46.7819 75.4908 47.1245 75.31C47.4671 75.1111 47.8277 74.9665 48.2243 74.8761C48.621 74.7676 49.0718 74.7314 49.5586 74.7314C50.0454 74.7314 50.7306 74.8399 51.2174 75.0569C51.7042 75.2738 52.0829 75.5812 52.3533 75.997C52.6238 76.3948 52.75 76.8468 52.75 77.353C52.75 77.8593 52.6959 78.0762 52.6058 78.4017C52.5156 78.7271 52.3714 79.0345 52.173 79.3418C51.9747 79.6492 51.7223 79.9746 51.3977 80.3182C51.0732 80.6617 50.388 81.3126 49.3242 82.2527V82.325H52.9483V84.4585L52.9123 84.4404Z" fill="white"/>
<path d="M60.666 79.6493C60.666 81.3489 60.3775 82.5964 59.8185 83.3738C59.2596 84.1693 58.3761 84.5671 57.2222 84.5671C56.0682 84.5671 55.2208 84.1513 54.6438 83.3377C54.0668 82.506 53.7783 81.2946 53.7783 79.6674C53.7783 78.0402 54.0668 76.7023 54.6258 75.9068C55.1847 75.1113 56.0682 74.7135 57.2222 74.7135C58.3761 74.7135 59.2235 75.1293 59.8005 75.961C60.3775 76.7927 60.666 78.0221 60.666 79.6674V79.6493ZM56.3206 79.6493C56.3206 80.7341 56.3927 81.4754 56.519 81.8913C56.6452 82.289 56.8796 82.506 57.2041 82.506C57.5287 82.506 57.7631 82.289 57.8893 81.8732C58.0155 81.4573 58.0876 80.7161 58.0876 79.6493C58.0876 78.5826 58.0155 77.8413 57.8893 77.4074C57.745 76.9735 57.5287 76.7746 57.2041 76.7746C56.8796 76.7746 56.6632 76.9735 56.519 77.3893C56.3747 77.8052 56.3206 78.5465 56.3206 79.6493Z" fill="white"/>
<path d="M68.2013 84.4404H61.2596V82.7409L63.6036 80.3724C64.2707 79.6673 64.7034 79.1972 64.9198 78.9441C65.1181 78.691 65.2624 78.474 65.3525 78.2932C65.4246 78.1124 65.4787 77.9135 65.4787 77.7146C65.4787 77.5158 65.4066 77.2626 65.2443 77.118C65.0821 76.9734 64.8477 76.901 64.5592 76.901C64.2707 76.901 63.9461 76.9914 63.6396 77.1542C63.3331 77.335 62.9905 77.5881 62.5938 77.9135L61.1694 76.2502C61.6563 75.8162 62.071 75.4908 62.4135 75.31C62.7561 75.1111 63.1167 74.9665 63.5134 74.8761C63.9101 74.7676 64.3608 74.7314 64.8477 74.7314C65.3345 74.7314 66.0196 74.8399 66.5065 75.0569C66.9933 75.2738 67.3719 75.5812 67.6424 75.997C67.9129 76.3948 68.0391 76.8468 68.0391 77.353C68.0391 77.8593 67.985 78.0762 67.8948 78.4017C67.8047 78.7271 67.6604 79.0345 67.4621 79.3418C67.2638 79.6492 67.0113 79.9746 66.6868 80.3182C66.3622 80.6617 65.6771 81.3126 64.6133 82.2527V82.325H68.2374V84.4585L68.2013 84.4404Z" fill="white"/>
<path d="M68.959 80.3724C68.959 79.0345 69.1573 77.9497 69.536 77.118C69.9146 76.2864 70.4735 75.6716 71.2308 75.292C71.9701 74.8942 72.8896 74.6953 73.9895 74.6953C75.0894 74.6953 74.8369 74.7315 75.3418 74.8038V76.8288C74.9091 76.7384 74.4403 76.7022 73.9174 76.7022C73.0519 76.7022 72.4028 76.9011 71.9881 77.2808C71.5734 77.6604 71.339 78.2752 71.303 79.143H71.3751C71.7717 78.4017 72.4028 78.022 73.2683 78.022C74.1337 78.022 74.7828 78.2932 75.2516 78.8537C75.7204 79.3961 75.9548 80.1736 75.9548 81.1499C75.9548 82.1262 75.6663 83.0302 75.0713 83.6449C74.4763 84.2596 73.6469 84.567 72.5831 84.567C71.5193 84.567 70.5637 84.2054 69.9326 83.4641C69.3016 82.7228 68.977 81.6923 68.977 80.3724H68.959ZM72.511 82.5059C72.7815 82.5059 73.0159 82.3974 73.1781 82.1985C73.3584 81.9996 73.4306 81.6561 73.4306 81.2041C73.4306 80.4267 73.124 80.0289 72.529 80.0289C71.934 80.0289 71.9881 80.1374 71.8078 80.3363C71.6275 80.5352 71.5373 80.7883 71.5373 81.0776C71.5373 81.4934 71.6275 81.8369 71.8078 82.1081C71.9881 82.3793 72.2225 82.5059 72.511 82.5059Z" fill="white"/>
</g>
<defs>
<clipPath id="clip0_933_6892">
<rect width="120" height="109" fill="white"/>
</clipPath>
</defs>
</svg>
