<?xml version="1.0" encoding="utf-8"?>
<!-- Generator: Adobe Illustrator 28.6.0, SVG Export Plug-In . SVG Version: 9.03 Build 54939)  -->
<svg version="1.1" xmlns="http://www.w3.org/2000/svg" xmlns:xlink="http://www.w3.org/1999/xlink" x="0px" y="0px"
	 viewBox="0 0 800 625" style="enable-background:new 0 0 800 625;" xml:space="preserve">
<style type="text/css">
	.st0{fill:#444A51;}
	.st1{fill:#41E3E2;}
	.st2{fill:#009C9C;}
	.st3{opacity:0.7;}
	.st4{fill:#FFFFFF;}
	.st5{opacity:0.3;}
	.st6{fill:none;stroke:#FFFFFF;stroke-width:4;stroke-miterlimit:10;}
	.st7{fill:none;stroke:#444A51;stroke-width:4;stroke-miterlimit:10;}
	.st8{fill:#444A51;stroke:#FFFFFF;stroke-width:4;stroke-miterlimit:10;}
	.st9{fill:#19BAB8;}
	.st10{fill:#87EFEF;}
	.st11{fill:#17CFCE;}
	.st12{fill:#FFFFFF;stroke:#444A51;stroke-width:4;stroke-miterlimit:10;}
</style>
<g id="Knockout_Preview">
</g>
<g id="Positive">
</g>
<g id="Knockout">
</g>
<g id="Full_Color">
	<g>
		<g>
			<g>
				<path class="st4" d="M790.5,169.7L689.9,18.5c-4.8-7.2-12.1-11.3-20.1-11.3H130.5c-8.9,0-16.1,4-20.1,11.3L9.8,169.7
					c-5.6,8.9-5.6,20.1,1.6,28.1l355.4,411c4,5.6,10.5,8.8,17.7,8.8h32.1c7.2,0,13.7-3.2,17.7-8.8l354.6-411
					C795.3,189.8,796.1,178.6,790.5,169.7z"/>
				<path class="st0" d="M416.6,620h-32.1c-7.9,0-15-3.5-19.5-9.7L9.7,199.4c-7.5-8.3-8.2-20.7-1.8-30.8L108.5,17.3
					c4.4-7.8,12.4-12.3,22-12.3h539.2c8.8,0,16.8,4.5,22,12.3l100.6,151.3c6.1,9.5,5.4,21.9-1.8,30.8L436,610.3
					C431.6,616.5,424.5,620,416.6,620z M130.5,9.5c-8.1,0-14.5,3.6-18.2,10.1l-0.1,0.2L11.7,171c-5.4,8.5-4.8,18.4,1.4,25.4
					l355.5,411.1l0.1,0.1c3.6,5,9.4,7.9,15.9,7.9h32.1c6.5,0,12.3-2.9,15.9-7.9l0.1-0.2l354.6-411c5.8-7.3,6.4-17.6,1.4-25.4
					L688,19.8c-4.4-6.6-10.9-10.3-18.2-10.3H130.5z"/>
			</g>
			<g>
				<path class="st0" d="M411.6,593.9l-22.3,0c-2.6,0-5-1.2-6.6-3.2L33.6,187.6c-2.3-2.9-2.5-7-0.5-10
					C48.9,153.7,114.3,55.4,128,34.8c1.6-2.4,4.2-3.8,7.1-3.8h529.8c2.8,0,5.5,1.4,7.1,3.8c13.7,20.6,79.1,118.8,94.9,142.6
					c2.1,3.1,1.9,7.1-0.4,10c-35,43.7-319.6,367.7-348.2,403.4C416.6,592.8,414.1,593.9,411.6,593.9z"/>
			</g>
		</g>
		<g>
			<g>
				<path class="st4" d="M284.2,268.1c-0.1,1.5-0.1,2.9-0.1,4.2s0,2.7,0.1,4.2c0.1,2.8,0.9,5,2.5,6.8c1.6,1.7,3.9,2.6,6.9,2.6
					c1.6,0,3-0.2,4.1-0.6c1.1-0.4,2-0.9,2.7-1.6c0.7-0.6,1.3-1.4,1.7-2.2c0.4-0.8,0.7-1.7,0.9-2.5c0.1-0.4,0.2-0.6,0.5-0.8
					c0.3-0.2,0.5-0.3,0.8-0.3h2.3c0.3,0,0.6,0.1,0.8,0.3c0.2,0.2,0.3,0.5,0.3,0.8c0,1.1-0.3,2.3-0.9,3.6c-0.5,1.3-1.4,2.5-2.5,3.7
					c-1.1,1.2-2.6,2.1-4.3,2.9c-1.8,0.8-3.9,1.2-6.4,1.2c-2.2,0-4.1-0.3-5.8-1c-1.7-0.7-3.2-1.6-4.4-2.8c-1.2-1.2-2.2-2.6-2.8-4.3
					c-0.7-1.7-1-3.5-1.1-5.5c-0.1-3-0.1-6,0-9c0.1-1.9,0.4-3.8,1.1-5.4c0.7-1.7,1.6-3.1,2.8-4.3c1.2-1.2,2.7-2.2,4.4-2.8
					c1.7-0.7,3.7-1,5.8-1c2.5,0,4.7,0.4,6.4,1.2c1.8,0.8,3.2,1.7,4.3,2.9c1.1,1.2,2,2.4,2.5,3.7c0.5,1.3,0.8,2.5,0.9,3.6
					c0,0.3-0.1,0.6-0.3,0.8c-0.2,0.2-0.5,0.3-0.8,0.3h-2.3c-0.3,0-0.5-0.1-0.8-0.3c-0.3-0.2-0.4-0.5-0.5-0.8
					c-0.2-0.8-0.5-1.7-0.9-2.5c-0.4-0.8-0.9-1.6-1.7-2.2c-0.7-0.6-1.6-1.2-2.7-1.6c-1.1-0.4-2.5-0.6-4.1-0.6c-3,0-5.3,0.9-6.9,2.6
					C285.1,263,284.3,265.3,284.2,268.1z"/>
				<path class="st4" d="M335.5,282H318l-2.6,6.7c-0.1,0.3-0.3,0.5-0.6,0.8c-0.3,0.3-0.7,0.4-1.4,0.4h-1.9c-0.3,0-0.6-0.1-0.8-0.3
					c-0.2-0.2-0.3-0.5-0.3-0.8c0-0.2,0.1-0.4,0.2-0.7l12.3-31.7c0.2-0.4,0.4-0.7,0.8-1.1c0.3-0.4,0.8-0.6,1.5-0.6h3
					c0.7,0,1.2,0.2,1.5,0.6c0.3,0.4,0.6,0.7,0.8,1.1l12.3,31.7c0.1,0.3,0.2,0.5,0.2,0.7c0,0.3-0.1,0.6-0.3,0.8
					c-0.2,0.2-0.5,0.3-0.8,0.3H340c-0.7,0-1.1-0.1-1.4-0.4c-0.3-0.3-0.5-0.6-0.6-0.8L335.5,282z M319.8,277.4h13.9l-6.9-18
					L319.8,277.4z"/>
				<path class="st4" d="M366.4,254.7c0.4,0,0.7,0.1,1,0.4c0.3,0.3,0.4,0.6,0.4,1v1.8c0,0.4-0.1,0.7-0.4,1c-0.3,0.3-0.6,0.4-1,0.4
					H357v29.3c0,0.4-0.1,0.7-0.4,1c-0.3,0.3-0.6,0.4-1,0.4h-2.1c-0.4,0-0.7-0.1-1-0.4c-0.3-0.3-0.4-0.6-0.4-1v-29.3h-9.4
					c-0.4,0-0.7-0.1-1-0.4c-0.3-0.3-0.4-0.6-0.4-1v-1.8c0-0.4,0.1-0.7,0.4-1c0.3-0.3,0.6-0.4,1-0.4H366.4z"/>
				<path class="st4" d="M394.9,285.4c0.4,0,0.7,0.1,1,0.4c0.3,0.3,0.4,0.6,0.4,1v1.8c0,0.4-0.1,0.7-0.4,1c-0.3,0.3-0.6,0.4-1,0.4
					h-20.3c-0.4,0-0.7-0.1-1-0.4c-0.3-0.3-0.4-0.6-0.4-1v-32.5c0-0.4,0.1-0.7,0.4-1c0.3-0.3,0.6-0.4,1-0.4h19.9c0.4,0,0.7,0.1,1,0.4
					c0.3,0.3,0.4,0.6,0.4,1v1.8c0,0.4-0.1,0.7-0.4,1c-0.3,0.3-0.6,0.4-1,0.4H378v10.6h15.4c0.4,0,0.7,0.1,1,0.4
					c0.3,0.3,0.4,0.6,0.4,1v1.8c0,0.4-0.1,0.7-0.4,1c-0.3,0.3-0.6,0.4-1,0.4H378v11H394.9z"/>
				<path class="st4" d="M401.4,267.7c0.1-1.8,0.4-3.6,1-5.2c0.6-1.6,1.5-3.1,2.7-4.3c1.2-1.2,2.7-2.2,4.5-2.9
					c1.8-0.7,3.9-1.1,6.3-1.1c2.3,0,4.3,0.3,6,1c1.7,0.7,3.2,1.5,4.3,2.5c1.2,1,2,2,2.6,3.2c0.6,1.1,0.9,2.1,0.9,3
					c0,0.3-0.1,0.6-0.3,0.8c-0.2,0.2-0.5,0.3-0.8,0.3h-2.1c-0.8,0-1.3-0.2-1.5-0.6c-0.4-0.8-0.9-1.6-1.4-2.3
					c-0.5-0.7-1.1-1.3-1.8-1.8c-0.7-0.5-1.6-0.9-2.5-1.2c-1-0.3-2.2-0.5-3.5-0.5c-1.4,0-2.6,0.2-3.8,0.6c-1.2,0.4-2.2,1-3,1.7
					c-0.8,0.8-1.5,1.7-2,2.9c-0.5,1.2-0.8,2.5-0.8,4.1c-0.1,1.5-0.1,2.9-0.1,4.2c0,1.3,0,2.7,0.1,4.2c0,1.6,0.3,3,0.8,4.2
					c0.5,1.2,1.2,2.2,2,3c0.8,0.8,1.8,1.4,3,1.8c1.2,0.4,2.4,0.6,3.8,0.6c1.3,0,2.6-0.2,3.8-0.5c1.2-0.3,2.2-0.9,3.1-1.6
					c0.9-0.8,1.6-1.7,2-2.9c0.5-1.2,0.7-2.7,0.7-4.4V275h-7.2c-0.4,0-0.7-0.1-1-0.4c-0.3-0.3-0.4-0.6-0.4-1v-1.8
					c0-0.4,0.1-0.7,0.4-1c0.3-0.3,0.6-0.4,1-0.4h10.7c0.4,0,0.7,0.1,1,0.4c0.3,0.3,0.4,0.6,0.4,1v4.8c0,2-0.3,3.9-1,5.6
					c-0.6,1.7-1.6,3.2-2.8,4.4c-1.2,1.2-2.7,2.2-4.5,2.9c-1.8,0.7-3.8,1-6.1,1c-2.4,0-4.5-0.4-6.3-1.1c-1.8-0.7-3.3-1.7-4.4-2.9
					c-1.2-1.2-2.1-2.7-2.7-4.4c-0.6-1.7-0.9-3.5-1-5.4C401.3,273.6,401.3,270.7,401.4,267.7z"/>
				<path class="st4" d="M435.8,267.8c0-1.9,0.4-3.6,1-5.3c0.6-1.7,1.5-3.1,2.7-4.3c1.2-1.2,2.6-2.2,4.3-2.9
					c1.7-0.7,3.7-1.1,5.9-1.1s4.2,0.4,5.9,1.1c1.7,0.7,3.2,1.7,4.3,2.9c1.2,1.2,2.1,2.7,2.7,4.3c0.6,1.7,0.9,3.4,1,5.3
					c0.1,3,0.1,6,0,9c-0.1,1.9-0.4,3.6-1,5.3c-0.6,1.7-1.5,3.1-2.7,4.4c-1.2,1.2-2.6,2.2-4.3,2.9c-1.7,0.7-3.6,1.1-5.9,1.1
					s-4.2-0.4-5.9-1.1c-1.7-0.7-3.1-1.7-4.3-2.9c-1.2-1.2-2.1-2.7-2.7-4.4c-0.6-1.7-1-3.4-1-5.3
					C435.7,273.8,435.7,270.8,435.8,267.8z M458.8,268.1c-0.1-1.6-0.3-3-0.8-4.1c-0.5-1.2-1.1-2.1-1.9-2.9c-0.8-0.8-1.8-1.3-2.8-1.7
					c-1.1-0.4-2.3-0.6-3.6-0.6c-1.3,0-2.5,0.2-3.6,0.6c-1.1,0.4-2,1-2.8,1.7c-0.8,0.8-1.4,1.7-1.9,2.9c-0.5,1.2-0.7,2.5-0.8,4.1
					c-0.1,1.5-0.1,2.9-0.1,4.2s0,2.7,0.1,4.2c0,1.6,0.3,3,0.8,4.1c0.5,1.2,1.1,2.1,1.9,2.9c0.8,0.8,1.8,1.4,2.8,1.7
					c1.1,0.4,2.3,0.6,3.6,0.6c1.3,0,2.5-0.2,3.6-0.6c1.1-0.4,2-1,2.8-1.7c0.8-0.8,1.4-1.7,1.9-2.9c0.5-1.2,0.7-2.5,0.8-4.1
					c0.1-1.5,0.1-2.9,0.1-4.2S458.9,269.6,458.8,268.1z"/>
				<path class="st4" d="M484.5,254.7c1.6,0,3.2,0.2,4.7,0.6c1.5,0.4,2.7,1,3.9,1.9c1.1,0.8,2,1.9,2.6,3.2c0.7,1.3,1,2.9,1,4.7
					c0,2.7-0.7,4.9-2,6.5c-1.4,1.6-3.1,2.8-5.2,3.4l7.6,13.2c0.1,0.2,0.2,0.4,0.2,0.6c0,0.3-0.1,0.6-0.3,0.8
					c-0.2,0.2-0.5,0.3-0.8,0.3h-2.2c-0.7,0-1.2-0.2-1.5-0.5c-0.3-0.3-0.5-0.6-0.7-0.9l-7.3-12.8h-8.7v12.8c0,0.4-0.1,0.7-0.4,1
					c-0.3,0.3-0.6,0.4-1,0.4h-2.1c-0.4,0-0.7-0.1-1-0.4c-0.3-0.3-0.4-0.6-0.4-1v-32.5c0-0.4,0.1-0.7,0.4-1c0.3-0.3,0.6-0.4,1-0.4
					H484.5z M475.7,271.2h8.5c2.4,0,4.3-0.5,5.6-1.4c1.3-1,2-2.5,2-4.7c0-2.1-0.7-3.7-2-4.6c-1.3-0.9-3.2-1.3-5.6-1.3h-8.5V271.2z"
					/>
				<path class="st4" d="M516.7,288.6c0,0.4-0.1,0.7-0.4,1c-0.3,0.3-0.6,0.4-1,0.4h-2.1c-0.4,0-0.7-0.1-1-0.4
					c-0.3-0.3-0.4-0.6-0.4-1v-11.8l-12-20.3c-0.2-0.3-0.3-0.5-0.3-0.7c0-0.3,0.1-0.6,0.3-0.8c0.2-0.2,0.5-0.3,0.8-0.3h2.2
					c0.7,0,1.1,0.1,1.4,0.4c0.3,0.3,0.5,0.6,0.7,0.9l9.3,16l9.3-16c0.2-0.3,0.4-0.6,0.7-0.9c0.3-0.3,0.8-0.4,1.4-0.4h2.2
					c0.3,0,0.6,0.1,0.8,0.3c0.2,0.2,0.3,0.5,0.3,0.8c0,0.2-0.1,0.4-0.3,0.7l-12,20.3V288.6z"/>
				<path class="st4" d="M273.7,343.6c0.5,0,1,0.2,1.4,0.6c0.4,0.4,0.6,0.8,0.6,1.4v7.6c0,0.5-0.2,1-0.6,1.4
					c-0.4,0.4-0.8,0.6-1.4,0.6h-33.4c-0.5,0-1-0.2-1.4-0.6c-0.4-0.4-0.6-0.8-0.6-1.4v-46.6c0-0.5,0.2-1,0.6-1.4
					c0.4-0.4,0.8-0.6,1.4-0.6h9.4c0.5,0,1,0.2,1.4,0.6c0.4,0.4,0.6,0.8,0.6,1.4v37H273.7z"/>
				<path class="st4" d="M318,343.6c0.5,0,1,0.2,1.4,0.6c0.4,0.4,0.6,0.8,0.6,1.4v7.6c0,0.5-0.2,1-0.6,1.4c-0.4,0.4-0.8,0.6-1.4,0.6
					h-34.2c-0.5,0-1-0.2-1.4-0.6c-0.4-0.4-0.6-0.8-0.6-1.4v-46.6c0-0.5,0.2-1,0.6-1.4c0.4-0.4,0.8-0.6,1.4-0.6h33.6
					c0.5,0,1,0.2,1.4,0.6c0.4,0.4,0.6,0.8,0.6,1.4v7.6c0,0.5-0.2,1-0.6,1.4c-0.4,0.4-0.8,0.6-1.4,0.6h-22.2v7.8h20.6
					c0.5,0,1,0.2,1.4,0.6c0.4,0.4,0.6,0.8,0.6,1.4v7.6c0,0.5-0.2,1-0.6,1.4c-0.4,0.4-0.8,0.6-1.4,0.6h-20.6v8.1H318z"/>
				<path class="st4" d="M354.9,304.7c1,0,1.7,0.3,2.2,0.8c0.5,0.5,0.9,1.1,1,1.6l15.7,45.4c0.2,0.5,0.3,0.8,0.3,1.1
					c0,0.4-0.2,0.8-0.5,1.1c-0.3,0.3-0.7,0.5-1.1,0.5h-9.1c-1,0-1.6-0.2-2.1-0.6c-0.4-0.4-0.7-0.8-0.8-1.2l-2-6h-19.2l-2,6
					c-0.1,0.4-0.3,0.8-0.8,1.2c-0.4,0.4-1.1,0.6-2.1,0.6h-9.1c-0.4,0-0.8-0.2-1.1-0.5c-0.3-0.3-0.5-0.7-0.5-1.1
					c0-0.2,0.1-0.6,0.3-1.1l15.7-45.4c0.2-0.5,0.5-1.1,1-1.6c0.5-0.5,1.2-0.8,2.2-0.8H354.9z M343.2,336.2h11.7l-5.8-17.3
					L343.2,336.2z"/>
				<path class="st4" d="M401,304.7c3.3,0,6.3,0.5,9.1,1.5c2.7,1,5.1,2.4,7.1,4.1c2,1.8,3.6,3.9,4.7,6.4c1.1,2.5,1.8,5.2,1.9,8.1
					c0,1,0.1,1.9,0.1,2.8c0,0.8,0,1.6,0,2.4c0,0.8,0,1.6,0,2.4c0,0.8,0,1.7-0.1,2.7c-0.1,3-0.8,5.7-1.9,8.1
					c-1.1,2.5-2.6,4.6-4.6,6.3c-1.9,1.8-4.3,3.2-7,4.1c-2.7,1-5.7,1.5-9,1.5h-19.5c-0.5,0-1-0.2-1.4-0.6c-0.4-0.4-0.6-0.8-0.6-1.4
					v-46.6c0-0.5,0.2-1,0.6-1.4c0.4-0.4,0.8-0.6,1.4-0.6H401z M410.5,324.5c-0.3-5.5-3.6-8.3-9.8-8.3h-7.4v27.4h7.7
					c6.1,0,9.2-2.8,9.4-8.3c0-1,0.1-2,0.1-2.8c0-0.9,0-1.8,0-2.6c0-0.8,0-1.7,0-2.6C410.5,326.5,410.5,325.5,410.5,324.5z"/>
				<path class="st4" d="M468.2,343.6c0.5,0,1,0.2,1.4,0.6c0.4,0.4,0.6,0.8,0.6,1.4v7.6c0,0.5-0.2,1-0.6,1.4
					c-0.4,0.4-0.8,0.6-1.4,0.6h-34.2c-0.5,0-1-0.2-1.4-0.6c-0.4-0.4-0.6-0.8-0.6-1.4v-46.6c0-0.5,0.2-1,0.6-1.4
					c0.4-0.4,0.8-0.6,1.4-0.6h33.6c0.5,0,1,0.2,1.4,0.6c0.4,0.4,0.6,0.8,0.6,1.4v7.6c0,0.5-0.2,1-0.6,1.4c-0.4,0.4-0.8,0.6-1.4,0.6
					h-22.2v7.8h20.6c0.5,0,1,0.2,1.4,0.6c0.4,0.4,0.6,0.8,0.6,1.4v7.6c0,0.5-0.2,1-0.6,1.4c-0.4,0.4-0.8,0.6-1.4,0.6h-20.6v8.1
					H468.2z"/>
				<path class="st4" d="M500,304.7c3.2,0,6,0.3,8.5,1c2.5,0.7,4.6,1.7,6.4,3c1.8,1.3,3.1,3.1,4,5.2c0.9,2.1,1.4,4.5,1.4,7.3
					c0,3.6-0.7,6.6-2.2,9c-1.5,2.4-3.6,4.2-6.3,5.4l8.9,17.2c0.1,0.3,0.2,0.6,0.2,0.8c0,0.4-0.2,0.8-0.5,1.1
					c-0.3,0.3-0.7,0.5-1.1,0.5h-9.8c-1,0-1.6-0.2-2.1-0.6c-0.4-0.4-0.7-0.9-1-1.3l-8-15.4h-6.6v15.4c0,0.5-0.2,1-0.6,1.4
					c-0.4,0.4-0.8,0.6-1.4,0.6h-9.4c-0.5,0-1-0.2-1.4-0.6c-0.4-0.4-0.6-0.8-0.6-1.4v-46.6c0-0.5,0.2-1,0.6-1.4
					c0.4-0.4,0.8-0.6,1.4-0.6H500z M491.8,326.5h8.1c2,0,3.7-0.4,5-1.2c1.3-0.8,2-2.2,2-4.2c0-2-0.7-3.4-2-4.2c-1.3-0.8-3-1.2-5-1.2
					h-8.1V326.5z"/>
				<path class="st4" d="M547.3,304c3.1,0,5.9,0.4,8.5,1.3c2.6,0.9,4.8,2,6.7,3.4c1.9,1.4,3.3,2.9,4.4,4.6c1.1,1.7,1.6,3.3,1.7,4.8
					c0,0.4-0.2,0.8-0.5,1.1c-0.3,0.3-0.7,0.5-1,0.5h-9.4c-0.7,0-1.2-0.1-1.6-0.3c-0.4-0.2-0.8-0.5-1.3-0.9c-0.1-0.1-0.4-0.4-0.7-0.7
					c-0.3-0.3-0.8-0.7-1.3-1c-0.6-0.4-1.3-0.7-2.2-0.9c-0.9-0.3-1.9-0.4-3.2-0.4c-0.9,0-1.8,0.1-2.6,0.2c-0.8,0.1-1.6,0.3-2.2,0.6
					c-0.6,0.3-1.2,0.6-1.6,1.1c-0.4,0.5-0.6,1.1-0.6,1.8c0,0.7,0.2,1.3,0.7,1.8c0.5,0.5,1.2,0.9,2.3,1.3c1.1,0.4,2.5,0.8,4.3,1.2
					c1.8,0.4,4,0.8,6.6,1.4c2.6,0.5,5,1.2,6.9,2c2,0.8,3.6,1.8,4.9,3.1c1.3,1.2,2.3,2.7,3,4.3c0.6,1.7,1,3.6,1,5.9
					c0,2.5-0.6,4.6-1.7,6.6c-1.1,1.9-2.7,3.6-4.7,4.9c-2,1.4-4.4,2.4-7.1,3.1c-2.7,0.7-5.7,1.1-8.9,1.1c-3.3,0-6.2-0.4-8.9-1.3
					c-2.7-0.9-5-2-7-3.4c-1.9-1.4-3.5-3-4.6-4.8c-1.1-1.8-1.7-3.6-1.7-5.4c0-0.4,0.2-0.8,0.5-1.1c0.3-0.3,0.7-0.5,1-0.5h9.4
					c0.7,0,1.2,0.1,1.6,0.3c0.4,0.2,0.8,0.4,1.2,0.8c0.2,0.2,0.5,0.5,0.9,0.9c0.4,0.4,0.9,0.9,1.6,1.3c0.6,0.5,1.5,0.9,2.5,1.2
					c1,0.3,2.2,0.5,3.6,0.5c2.5,0,4.7-0.3,6.4-0.8c1.7-0.6,2.6-1.5,2.6-3c0-0.7-0.3-1.3-0.9-1.8c-0.6-0.5-1.6-0.9-2.8-1.3
					c-1.3-0.4-2.8-0.8-4.8-1.2c-1.9-0.4-4.2-0.9-6.9-1.4c-5-1.1-8.6-2.8-10.9-5.3c-2.3-2.5-3.4-5.8-3.4-9.9c0-2.1,0.5-4,1.4-5.9
					c0.9-1.9,2.3-3.5,4.1-5c1.8-1.4,3.9-2.6,6.5-3.4C541.4,304.4,544.2,304,547.3,304z"/>
			</g>
			<g>
				<g>
					<path class="st4" d="M283.1,145.5c0.1-4.2,0.9-8,2.3-11.5c1.4-3.5,3.4-6.4,6.1-8.9c2.7-2.5,5.9-4.4,9.8-5.8
						c3.9-1.4,8.4-2,13.6-2c6.1,0,11.1,0.8,15.1,2.4c4,1.6,7.1,3.5,9.5,5.7c2.3,2.2,4,4.5,4.9,6.8c0.9,2.3,1.5,4.3,1.6,5.9
						c0.1,0.8-0.2,1.5-0.8,2c-0.6,0.5-1.3,0.8-2,0.8h-8.5c-0.8,0-1.4-0.2-1.8-0.6c-0.5-0.4-0.8-0.8-1-1.2c-0.1-0.3-0.5-0.9-1.1-1.8
						c-0.6-0.9-1.5-1.9-2.8-2.9c-1.3-1-3-1.9-5.1-2.7c-2.1-0.8-4.7-1.2-7.9-1.2c-5.3,0-9.5,1.4-12.6,4.3c-3.2,2.8-4.8,6.6-5,11.4
						c-0.1,2.7-0.2,5.5-0.2,8.6c0,3,0.1,5.9,0.2,8.6c0.2,5.8,1.9,10,5,12.7c3.2,2.6,7.4,3.9,12.6,3.9c2.6,0,5-0.3,7.1-0.8
						c2.2-0.6,4-1.5,5.6-2.7c1.6-1.3,2.8-2.9,3.7-5c0.9-2.1,1.3-4.6,1.3-7.6v-0.8h-12.8c-0.8,0-1.4-0.3-2-0.8
						c-0.6-0.6-0.8-1.2-0.8-2v-7.5c0-0.8,0.3-1.4,0.8-2c0.6-0.6,1.2-0.8,2-0.8h24.2c0.8,0,1.4,0.3,2,0.8c0.6,0.6,0.8,1.2,0.8,2V164
						c0,4.2-0.7,8.1-2,11.6c-1.3,3.5-3.3,6.6-6,9.1c-2.7,2.6-6,4.6-10,6s-8.7,2.2-14,2.2c-5.3,0-9.9-0.7-13.9-2.1
						c-3.9-1.4-7.2-3.4-9.8-5.9c-2.6-2.5-4.6-5.5-5.9-9.1c-1.4-3.5-2.1-7.4-2.3-11.6c-0.1-1.3-0.1-2.8-0.2-4.4
						c0-1.6-0.1-3.3-0.1-4.9s0-3.3,0.1-4.9C283,148.3,283.1,146.8,283.1,145.5z"/>
					<path class="st4" d="M353.1,164.5c0-3.9,0.6-7.6,1.8-11.1c1.2-3.5,2.9-6.5,5.1-9c2.2-2.6,5-4.6,8.1-6c3.2-1.5,6.7-2.2,10.7-2.2
						c3.9,0,7.5,0.7,10.7,2.2c3.2,1.4,5.9,3.4,8.1,5.8c2.2,2.4,4,5.3,5.2,8.5c1.2,3.3,1.8,6.7,1.8,10.2v4.7c0,0.8-0.3,1.4-0.8,2
						c-0.6,0.6-1.2,0.8-2,0.8h-35.1c0,1.6,0.3,3,1,4.3c0.7,1.2,1.6,2.3,2.7,3.1c1.1,0.8,2.4,1.5,3.9,1.9s3,0.6,4.5,0.6
						c2.2,0,4.1-0.2,5.5-0.7c1.4-0.5,2.6-1,3.5-1.7c0.8-0.6,1.4-0.9,1.9-1.2c0.5-0.2,1.2-0.3,2-0.3h8.4c0.8,0,1.5,0.3,2,0.8
						c0.6,0.6,0.9,1.2,0.8,2c-0.1,1-0.6,2.2-1.6,3.8c-1,1.5-2.5,3-4.6,4.5c-2,1.5-4.5,2.7-7.5,3.8c-3,1.1-6.4,1.6-10.4,1.6
						c-3.9,0-7.5-0.7-10.7-2c-3.2-1.4-5.9-3.3-8.1-5.8c-2.2-2.5-4-5.5-5.1-9C353.7,172.6,353.1,168.7,353.1,164.5z M378.9,148.8
						c-2,0-3.8,0.3-5.2,0.9c-1.4,0.6-2.6,1.4-3.6,2.3c-1,0.9-1.7,2-2.3,3.2c-0.5,1.2-0.9,2.3-1,3.3h23.7c-0.1-1.1-0.4-2.2-0.8-3.3
						c-0.4-1.2-1-2.2-1.9-3.2c-0.9-0.9-2-1.7-3.5-2.3C382.9,149.1,381.1,148.8,378.9,148.8z"/>
					<path class="st4" d="M427.7,172.1c0,2.2,0.6,3.9,1.7,5.2c1.2,1.3,3.3,1.9,6.5,1.9h6.4c0.8,0,1.4,0.3,2,0.8
						c0.6,0.6,0.8,1.2,0.8,2v6.9c0,0.8-0.3,1.4-0.8,2c-0.6,0.6-1.2,0.8-2,0.8h-7.8c-6.6,0-11.6-1.6-15.2-4.8
						c-3.5-3.2-5.3-8.1-5.3-14.7v-22.6H408c-0.8,0-1.4-0.3-2-0.8c-0.6-0.6-0.8-1.2-0.8-2V140c0-0.8,0.3-1.4,0.8-2
						c0.6-0.6,1.2-0.8,2-0.8h6.1v-14.6c0-0.8,0.3-1.4,0.8-2c0.6-0.6,1.2-0.8,2-0.8h8c0.8,0,1.4,0.3,2,0.8c0.6,0.6,0.8,1.2,0.8,2
						v14.6h13.6c0.8,0,1.4,0.3,2,0.8c0.6,0.6,0.8,1.2,0.8,2v6.9c0,0.8-0.3,1.4-0.8,2c-0.6,0.6-1.2,0.8-2,0.8h-13.6V172.1z"/>
					<path class="st4" d="M490.3,121.2c1.1,0,1.9,0.3,2.5,0.9c0.5,0.6,1,1.4,1.4,2.6l25,63.7c0.1,0.2,0.1,0.4,0.1,0.7
						c0,0.8-0.3,1.4-0.8,1.9c-0.5,0.5-1.2,0.8-1.9,0.8h-7.4c-1.4,0-2.3-0.3-2.9-0.9c-0.5-0.6-0.9-1.1-1.1-1.7l-4.4-11.3h-32.3
						l-4.4,11.3c-0.2,0.5-0.6,1.1-1.1,1.7c-0.5,0.6-1.5,0.9-2.9,0.9h-7.4c-0.8,0-1.4-0.3-1.9-0.8c-0.5-0.5-0.8-1.2-0.8-1.9
						c0-0.3,0-0.5,0.1-0.7l25-63.7c0.4-1.2,0.9-2,1.4-2.6c0.5-0.6,1.4-0.9,2.5-0.9H490.3z M495.9,165.2L484.6,136l-11.2,29.1H495.9z
						"/>
					<path class="st4" d="M553.4,192.9c-2.2,0-4.1-0.2-5.8-0.6c-1.7-0.4-3.2-0.9-4.5-1.6c-1.3-0.6-2.4-1.3-3.3-2
						c-0.9-0.7-1.6-1.4-2.2-2v19c0,0.8-0.3,1.4-0.8,2c-0.6,0.6-1.2,0.8-2,0.8h-8c-0.8,0-1.4-0.3-2-0.8c-0.6-0.6-0.8-1.2-0.8-2V140
						c0-0.8,0.3-1.4,0.8-2c0.6-0.6,1.2-0.8,2-0.8h8c0.8,0,1.4,0.3,2,0.8c0.6,0.6,0.8,1.2,0.8,2v2.4c0.6-0.6,1.3-1.3,2.2-2
						c0.9-0.7,2-1.4,3.3-2c1.3-0.6,2.8-1.2,4.5-1.6c1.7-0.4,3.7-0.6,5.8-0.6c3.5,0,6.7,0.7,9.5,2c2.8,1.4,5.3,3.2,7.3,5.5
						c2,2.3,3.6,4.9,4.7,7.9c1.2,3,1.8,6.1,1.9,9.3c0.1,1.1,0.1,2.3,0.1,3.7c0,1.4,0,2.6-0.1,3.7c-0.1,3.2-0.8,6.3-1.9,9.3
						c-1.2,3-2.7,5.6-4.7,7.9c-2,2.3-4.4,4.1-7.3,5.5C560.1,192.2,556.9,192.9,553.4,192.9z M563.2,167.5c0.2-2,0.2-3.9,0-5.9
						c-0.4-4.6-1.8-7.8-4.2-9.8c-2.4-2-5.3-3-8.7-3c-3.4,0-6.3,1-8.7,3c-2.3,2-3.7,4.9-4,8.7c-0.1,1.1-0.2,2.4-0.2,4
						c0,1.6,0.1,2.9,0.2,4c0.3,3.6,1.7,6.5,4,8.6c2.3,2.1,5.2,3.2,8.7,3.2c3.4,0,6.3-1,8.7-3C561.4,175.3,562.8,172,563.2,167.5z"/>
					<path class="st4" d="M612.4,192.9c-2.2,0-4.1-0.2-5.8-0.6c-1.7-0.4-3.2-0.9-4.5-1.6c-1.3-0.6-2.4-1.3-3.3-2
						c-0.9-0.7-1.6-1.4-2.2-2v19c0,0.8-0.3,1.4-0.8,2c-0.6,0.6-1.2,0.8-2,0.8h-8c-0.8,0-1.4-0.3-2-0.8c-0.6-0.6-0.8-1.2-0.8-2V140
						c0-0.8,0.3-1.4,0.8-2c0.6-0.6,1.2-0.8,2-0.8h8c0.8,0,1.4,0.3,2,0.8c0.6,0.6,0.8,1.2,0.8,2v2.4c0.6-0.6,1.3-1.3,2.2-2
						c0.9-0.7,2-1.4,3.3-2c1.3-0.6,2.8-1.2,4.5-1.6c1.7-0.4,3.7-0.6,5.8-0.6c3.5,0,6.7,0.7,9.5,2c2.8,1.4,5.3,3.2,7.3,5.5
						c2,2.3,3.6,4.9,4.7,7.9c1.2,3,1.8,6.1,1.9,9.3c0.1,1.1,0.1,2.3,0.1,3.7c0,1.4,0,2.6-0.1,3.7c-0.1,3.2-0.8,6.3-1.9,9.3
						c-1.2,3-2.7,5.6-4.7,7.9c-2,2.3-4.4,4.1-7.3,5.5C619,192.2,615.9,192.9,612.4,192.9z M622.1,167.5c0.2-2,0.2-3.9,0-5.9
						c-0.4-4.6-1.8-7.8-4.2-9.8c-2.4-2-5.3-3-8.7-3c-3.4,0-6.3,1-8.7,3c-2.3,2-3.7,4.9-4,8.7c-0.1,1.1-0.2,2.4-0.2,4
						c0,1.6,0.1,2.9,0.2,4c0.3,3.6,1.7,6.5,4,8.6c2.3,2.1,5.2,3.2,8.7,3.2c3.4,0,6.3-1,8.7-3C620.3,175.3,621.7,172,622.1,167.5z"/>
				</g>
				<g>
					<path class="st2" d="M266.7,151.6l-35-35c-1.2-1.2-3-1.2-4.2,0l-6.9,6.9l28.1,28.1c1.2,1.2,1.2,3,0,4.2l-29,29l6.9,6.9
						c1.2,1.2,3,1.2,4.2,0l35.9-35.8C267.8,154.6,267.8,152.7,266.7,151.6z"/>
					<path class="st0" d="M207,119.1l-2.5-2.5c-1.2-1.2-3-1.2-4.2,0l-6.9,6.9l4.6,4.6l9,9l9-9L207,119.1z"/>
					<path class="st0" d="M206.2,171.1l-9,9l-4.6,4.6l6.9,6.9c1.2,1.2,3,1.2,4.2,0l2.5-2.5l9-9L206.2,171.1z"/>
					<path class="st0" d="M221.5,151.6c1.2,1.2,1.2,3,0,4.2l-15.4,15.4l9,9l24.4-24.3c1.2-1.2,1.2-3,0-4.2L216,128l-9,9L221.5,151.6
						z"/>
					<path class="st0" d="M164.4,152.4l24.4-24.3l-9-9l-2.5-2.5c-1.2-1.2-3-1.2-4.2,0l-35.9,35.8c-1.2,1.2-1.2,3,0,4.2l35,35
						c1.2,1.2,3,1.2,4.2,0l2.5-2.5l9-9l-23.5-23.5C163.3,155.4,163.3,153.5,164.4,152.4z"/>
					<path class="st0" d="M191.6,152.4l10.8-10.8l-9-9l-4.6-4.6l-24.4,24.3c-1.2,1.2-1.2,3,0,4.2l23.5,23.5l4.6-4.6l9-9l-9.9-9.9
						C190.5,155.4,190.5,153.5,191.6,152.4z"/>
					<path class="st0" d="M191.6,156.6l9.9,9.9l10.8-10.8c1.2-1.2,1.2-3,0-4.2l-9.9-9.9l-10.8,10.8
						C190.5,153.5,190.5,155.4,191.6,156.6z"/>
					<path class="st1" d="M207,119.1l-2.5-2.5c-1.2-1.2-3-1.2-4.2,0l-6.9,6.9l4.6,4.6l9,9l9-9L207,119.1z"/>
					<path class="st1" d="M206.2,171.1l-9,9l-4.6,4.6l6.9,6.9c1.2,1.2,3,1.2,4.2,0l2.5-2.5l9-9L206.2,171.1z"/>
					<path class="st9" d="M221.5,151.6c1.2,1.2,1.2,3,0,4.2l-15.4,15.4l9,9l24.4-24.3c1.2-1.2,1.2-3,0-4.2L216,128l-9,9L221.5,151.6
						z"/>
					<path class="st10" d="M164.4,152.4l24.4-24.3l-9-9l-2.5-2.5c-1.2-1.2-3-1.2-4.2,0l-35.9,35.8c-1.2,1.2-1.2,3,0,4.2l35,35
						c1.2,1.2,3,1.2,4.2,0l2.5-2.5l9-9l-23.5-23.5C163.3,155.4,163.3,153.5,164.4,152.4z"/>
					<path class="st1" d="M191.6,152.4l10.8-10.8l-9-9l-4.6-4.6l-24.4,24.3c-1.2,1.2-1.2,3,0,4.2l23.5,23.5l4.6-4.6l9-9l-9.9-9.9
						C190.5,155.4,190.5,153.5,191.6,152.4z"/>
					<path class="st11" d="M191.6,156.6l9.9,9.9l10.8-10.8c1.2-1.2,1.2-3,0-4.2l-9.9-9.9l-10.8,10.8
						C190.5,153.5,190.5,155.4,191.6,156.6z"/>
				</g>
			</g>
			<g>
				<path class="st11" d="M335.8,443.4c-0.4,0-0.7-0.1-1-0.4c-0.3-0.3-0.4-0.6-0.4-1v-3c0-0.3,0.1-0.8,0.3-1.2
					c0.2-0.5,0.6-1,1.2-1.5l9.1-9.1c2.5-2,4.6-3.7,6.2-5.1c1.6-1.4,2.7-2.7,3.4-3.9c0.7-1.2,1.1-2.3,1.1-3.5c0-1.7-0.5-3.1-1.4-4.2
					c-0.9-1.1-2.4-1.6-4.5-1.6c-1.4,0-2.5,0.3-3.4,0.8c-0.9,0.6-1.6,1.3-2.2,2.2c-0.5,0.9-0.9,1.9-1.1,3.1c-0.1,0.5-0.3,0.8-0.6,1
					c-0.3,0.2-0.7,0.3-1,0.3h-5.1c-0.3,0-0.6-0.1-0.9-0.3c-0.2-0.2-0.3-0.5-0.3-0.8c0-1.7,0.4-3.3,1-4.8c0.7-1.6,1.6-3,2.9-4.2
					c1.3-1.2,2.8-2.2,4.6-2.9c1.8-0.7,3.9-1.1,6.1-1.1c3.2,0,5.9,0.5,8,1.6c2.1,1.1,3.7,2.5,4.7,4.4c1.1,1.9,1.6,3.9,1.6,6.2
					c0,1.8-0.3,3.5-1,5c-0.7,1.5-1.7,3-3,4.4c-1.3,1.4-2.9,2.8-4.7,4.3l-8.2,8.3h16.5c0.4,0,0.8,0.1,1,0.4c0.3,0.3,0.4,0.6,0.4,1
					v4.1c0,0.4-0.1,0.7-0.4,1c-0.3,0.3-0.6,0.4-1,0.4H335.8z"/>
				<path class="st11" d="M383.7,444c-2.7,0-5.1-0.4-7-1.2c-1.9-0.8-3.5-1.9-4.7-3.4c-1.2-1.4-2.2-3.1-2.8-4.9c-0.6-1.9-1-3.9-1.1-6
					c0-1-0.1-2.2-0.1-3.4c0-1.3,0-2.5,0-3.8c0-1.3,0-2.4,0.1-3.5c0.1-2.1,0.4-4.1,1.1-6c0.7-1.9,1.6-3.5,2.9-4.9
					c1.3-1.4,2.8-2.5,4.8-3.3c1.9-0.8,4.2-1.2,6.9-1.2c2.7,0,5,0.4,6.9,1.2c1.9,0.8,3.5,1.9,4.8,3.3c1.3,1.4,2.2,3,2.8,4.9
					c0.6,1.9,1,3.9,1.1,6c0.1,1.1,0.1,2.3,0.1,3.5c0,1.3,0,2.5,0,3.8c0,1.3,0,2.4-0.1,3.4c-0.1,2.1-0.4,4.1-1,6
					c-0.6,1.9-1.5,3.5-2.8,4.9c-1.2,1.4-2.8,2.5-4.8,3.4C388.8,443.6,386.4,444,383.7,444z M383.7,437.3c2.5,0,4.3-0.8,5.5-2.5
					c1.2-1.6,1.8-3.9,1.8-6.7c0.1-1.1,0.1-2.2,0.1-3.4c0-1.1,0-2.3,0-3.4c0-1.2,0-2.3-0.1-3.3c0-2.7-0.6-4.9-1.8-6.6
					c-1.2-1.7-3-2.5-5.5-2.5c-2.5,0-4.3,0.8-5.5,2.5c-1.2,1.7-1.8,3.9-1.9,6.6c0,1,0,2.1,0,3.3c0,1.2,0,2.3,0,3.4c0,1.1,0,2.3,0,3.4
					c0.1,2.8,0.7,5,1.9,6.7C379.4,436.5,381.2,437.3,383.7,437.3z"/>
				<path class="st11" d="M403.8,443.4c-0.4,0-0.7-0.1-1-0.4c-0.3-0.3-0.4-0.6-0.4-1v-3c0-0.3,0.1-0.8,0.3-1.2
					c0.2-0.5,0.6-1,1.2-1.5l9.1-9.1c2.5-2,4.6-3.7,6.2-5.1c1.6-1.4,2.7-2.7,3.4-3.9c0.7-1.2,1.1-2.3,1.1-3.5c0-1.7-0.5-3.1-1.4-4.2
					c-0.9-1.1-2.4-1.6-4.5-1.6c-1.4,0-2.5,0.3-3.4,0.8c-0.9,0.6-1.6,1.3-2.2,2.2c-0.5,0.9-0.9,1.9-1.1,3.1c-0.1,0.5-0.3,0.8-0.6,1
					c-0.3,0.2-0.7,0.3-1,0.3h-5.1c-0.3,0-0.6-0.1-0.9-0.3c-0.2-0.2-0.3-0.5-0.3-0.8c0-1.7,0.4-3.3,1-4.8c0.7-1.6,1.6-3,2.9-4.2
					c1.3-1.2,2.8-2.2,4.6-2.9c1.8-0.7,3.9-1.1,6.1-1.1c3.2,0,5.9,0.5,8,1.6c2.1,1.1,3.7,2.5,4.7,4.4c1.1,1.9,1.6,3.9,1.6,6.2
					c0,1.8-0.3,3.5-1,5c-0.7,1.5-1.7,3-3,4.4c-1.3,1.4-2.9,2.8-4.7,4.3l-8.2,8.3h16.5c0.4,0,0.8,0.1,1,0.4c0.3,0.3,0.4,0.6,0.4,1
					v4.1c0,0.4-0.1,0.7-0.4,1c-0.3,0.3-0.6,0.4-1,0.4H403.8z"/>
				<path class="st11" d="M450.4,444.1c-3.3,0-6.1-0.5-8.4-1.6c-2.3-1.1-4-2.5-5.2-4.3c-1.2-1.8-1.8-3.7-1.9-5.7
					c0-0.3,0.1-0.6,0.3-0.8c0.2-0.2,0.5-0.3,0.9-0.3h5.4c0.4,0,0.8,0.1,1.1,0.3c0.3,0.2,0.5,0.5,0.7,0.9c0.4,1.2,0.9,2.1,1.6,2.8
					c0.7,0.7,1.5,1.3,2.5,1.6c0.9,0.3,1.9,0.5,3,0.5c1.4,0,2.7-0.3,3.8-0.8c1.1-0.6,2.1-1.4,2.7-2.5c0.7-1.1,1-2.5,1-4.1
					c0-1.4-0.3-2.7-1-3.7c-0.7-1-1.6-1.9-2.7-2.5c-1.1-0.6-2.4-0.9-3.9-0.9c-1.1,0-2,0.1-2.7,0.4c-0.7,0.3-1.3,0.6-1.8,0.9
					c-0.5,0.3-0.9,0.7-1.3,0.9c-0.4,0.3-0.8,0.4-1.2,0.4h-5.3c-0.3,0-0.6-0.1-0.9-0.4c-0.3-0.3-0.4-0.5-0.4-0.9l2-19.8
					c0-0.5,0.2-0.9,0.5-1.2c0.3-0.3,0.7-0.4,1.1-0.4h21.7c0.4,0,0.7,0.1,1,0.4c0.3,0.3,0.4,0.6,0.4,1v3.9c0,0.4-0.1,0.7-0.4,1
					c-0.3,0.3-0.6,0.4-1,0.4h-16.7l-0.9,9.4c0.7-0.5,1.6-0.9,2.8-1.3c1.2-0.4,2.8-0.6,4.8-0.6c1.9,0,3.6,0.3,5.3,0.9
					c1.7,0.6,3.2,1.5,4.5,2.6c1.3,1.1,2.3,2.5,3.1,4.1c0.8,1.6,1.1,3.4,1.1,5.5c0,2.8-0.7,5.3-2,7.3c-1.3,2.1-3.1,3.7-5.5,4.9
					C456.4,443.5,453.6,444.1,450.4,444.1z"/>
			</g>
		</g>
	</g>
</g>
</svg>
