<svg width="92" height="106" viewBox="0 0 92 106" fill="none" xmlns="http://www.w3.org/2000/svg">
<g clip-path="url(#clip0_2121_12562)">
<path d="M0 83.334L46 106L92 83.334V0H0V83.334Z" fill="white"/>
<path d="M0 83.334L46 106L92 83.334V0H0V83.334Z" fill="white"/>
<path d="M12.8295 9.82977C12.5828 9.82977 12.3528 9.79977 12.1395 9.73977C11.9261 9.67977 11.7361 9.59643 11.5695 9.48977C11.3961 9.37643 11.2561 9.2531 11.1495 9.11977C11.0428 8.98643 10.9728 8.8431 10.9395 8.68976L11.8695 8.40977C11.9295 8.56977 12.0395 8.70643 12.1995 8.81977C12.3528 8.9331 12.5461 8.9931 12.7795 8.99977C13.0261 9.00643 13.2261 8.9531 13.3795 8.83977C13.5395 8.72643 13.6195 8.5831 13.6195 8.40977C13.6195 8.24977 13.5561 8.11977 13.4295 8.01977C13.3095 7.9131 13.1395 7.8331 12.9195 7.77977L12.2895 7.60977C12.0495 7.54977 11.8395 7.45643 11.6595 7.32977C11.4728 7.20977 11.3295 7.05643 11.2295 6.86977C11.1295 6.68977 11.0795 6.47977 11.0795 6.23977C11.0795 5.7731 11.2295 5.40977 11.5295 5.14977C11.8361 4.89643 12.2695 4.76977 12.8295 4.76977C13.1428 4.76977 13.4195 4.8131 13.6595 4.89977C13.8928 4.9931 14.0895 5.1231 14.2495 5.28977C14.4095 5.45643 14.5295 5.65643 14.6095 5.88977L13.6795 6.16977C13.6261 6.01643 13.5228 5.8831 13.3695 5.76977C13.2228 5.65643 13.0328 5.59977 12.7995 5.59977C12.5661 5.59977 12.3861 5.6531 12.2595 5.75977C12.1261 5.86643 12.0595 6.01977 12.0595 6.21977C12.0595 6.3731 12.1095 6.4931 12.2095 6.57977C12.3161 6.66643 12.4595 6.7331 12.6395 6.77977L13.2895 6.93977C13.7095 7.04643 14.0361 7.2331 14.2695 7.49977C14.5028 7.76643 14.6195 8.0631 14.6195 8.38977C14.6195 8.67643 14.5495 8.92643 14.4095 9.13977C14.2695 9.35977 14.0661 9.52977 13.7995 9.64977C13.5328 9.76976 13.2095 9.82977 12.8295 9.82977ZM16.1395 9.74977V4.84977H17.9595C18.2995 4.84977 18.6028 4.91977 18.8695 5.05977C19.1361 5.1931 19.3461 5.3831 19.4995 5.62977C19.6461 5.87643 19.7195 6.15977 19.7195 6.47977C19.7195 6.79977 19.6461 7.0831 19.4995 7.32977C19.3595 7.57643 19.1628 7.76977 18.9095 7.90977C18.6561 8.05643 18.3628 8.12977 18.0295 8.12977H17.0995V9.74977H16.1395ZM17.0995 7.23977H18.0095C18.2228 7.23977 18.3995 7.16977 18.5395 7.02977C18.6795 6.88977 18.7495 6.70643 18.7495 6.47977C18.7495 6.25977 18.6728 6.07977 18.5195 5.93977C18.3661 5.79977 18.1728 5.72977 17.9395 5.72977H17.0995V7.23977ZM21.0595 9.74977V4.84977H22.8795C23.2261 4.84977 23.5295 4.91643 23.7895 5.04977C24.0561 5.18977 24.2661 5.37643 24.4195 5.60977C24.5661 5.8431 24.6395 6.11643 24.6395 6.42977C24.6395 6.73643 24.5628 7.00977 24.4095 7.24977C24.2495 7.48977 24.0361 7.67643 23.7695 7.80977C23.4961 7.9431 23.1861 8.00977 22.8395 8.00977H22.0195V9.74977H21.0595ZM23.7495 9.74977L22.6195 7.77977L23.3495 7.25977L24.8395 9.74977H23.7495ZM22.0195 7.13977H22.8795C23.0261 7.13977 23.1561 7.10977 23.2695 7.04977C23.3828 6.98977 23.4761 6.90643 23.5495 6.79977C23.6161 6.6931 23.6495 6.56977 23.6495 6.42977C23.6495 6.2231 23.5728 6.0531 23.4195 5.91977C23.2661 5.7931 23.0728 5.72977 22.8395 5.72977H22.0195V7.13977ZM26.2695 9.74977V4.84977H27.2295V9.74977H26.2695ZM28.9995 9.74977V4.84977H29.9995L32.3895 8.13977V4.84977H33.3395V9.74977H32.3895L29.9495 6.39977V9.74977H28.9995ZM37.3795 9.82977C36.8795 9.82977 36.4395 9.7231 36.0595 9.50977C35.6728 9.28977 35.3695 8.98977 35.1495 8.60977C34.9295 8.22976 34.8195 7.7931 34.8195 7.29977C34.8195 6.80643 34.9295 6.36977 35.1495 5.98977C35.3695 5.60977 35.6728 5.30977 36.0595 5.08977C36.4395 4.87643 36.8795 4.76977 37.3795 4.76977C37.6795 4.76977 37.9561 4.8131 38.2095 4.89977C38.4628 4.98643 38.6861 5.10977 38.8795 5.26977C39.0728 5.4231 39.2328 5.59977 39.3595 5.79977L38.5795 6.28977C38.4995 6.1631 38.3961 6.0531 38.2695 5.95977C38.1361 5.85977 37.9928 5.7831 37.8395 5.72977C37.6861 5.66977 37.5328 5.63977 37.3795 5.63977C37.0728 5.63977 36.7995 5.70977 36.5595 5.84977C36.3261 5.99643 36.1395 6.1931 35.9995 6.43977C35.8661 6.68643 35.7995 6.9731 35.7995 7.29977C35.7995 7.61977 35.8661 7.90643 35.9995 8.15977C36.1328 8.4131 36.3195 8.60977 36.5595 8.74977C36.8061 8.89643 37.0861 8.96977 37.3995 8.96977C37.6461 8.96977 37.8661 8.91976 38.0595 8.81977C38.2528 8.71977 38.4061 8.5831 38.5195 8.40977C38.6328 8.22977 38.6895 8.0231 38.6895 7.78977L39.5995 7.64977C39.5995 8.10977 39.5061 8.5031 39.3195 8.82977C39.1261 9.15643 38.8628 9.40643 38.5295 9.57977C38.1961 9.74643 37.8128 9.82977 37.3795 9.82977ZM37.5395 7.86977V7.12977H39.5995V7.71977L39.0795 7.86977H37.5395ZM43.1995 9.74977V9.03977C43.1995 8.90643 43.2395 8.75977 43.3195 8.59977C43.4061 8.4331 43.5228 8.26977 43.6695 8.10977C43.8228 7.9431 43.9995 7.78977 44.1995 7.64977L44.9395 7.11977C45.0461 7.04643 45.1428 6.96643 45.2295 6.87977C45.3228 6.7931 45.3995 6.69643 45.4595 6.58977C45.5128 6.4831 45.5395 6.3831 45.5395 6.28977C45.5395 6.1631 45.5128 6.0531 45.4595 5.95977C45.3995 5.85977 45.3128 5.7831 45.1995 5.72977C45.0861 5.66977 44.9495 5.63977 44.7895 5.63977C44.6495 5.63977 44.5228 5.66977 44.4095 5.72977C44.3028 5.7831 44.2128 5.85643 44.1395 5.94977C44.0728 6.0431 44.0261 6.1431 43.9995 6.24977L43.0095 6.07977C43.0561 5.84643 43.1561 5.62977 43.3095 5.42977C43.4628 5.22977 43.6661 5.06643 43.9195 4.93977C44.1661 4.81977 44.4495 4.75977 44.7695 4.75977C45.1295 4.75977 45.4395 4.82643 45.6995 4.95977C45.9661 5.08643 46.1695 5.2631 46.3095 5.48977C46.4495 5.71643 46.5195 5.97977 46.5195 6.27977C46.5195 6.57977 46.4395 6.84977 46.2795 7.08977C46.1128 7.3231 45.8828 7.5431 45.5895 7.74977L44.9295 8.22976C44.7895 8.3231 44.6728 8.42643 44.5795 8.53977C44.4795 8.6531 44.4028 8.77643 44.3495 8.90977H46.5895V9.74977H43.1995ZM49.8595 9.82977C49.4661 9.82977 49.1161 9.7231 48.8095 9.50977C48.5095 9.28977 48.2728 8.98977 48.0995 8.60977C47.9261 8.22976 47.8395 7.7931 47.8395 7.29977C47.8395 6.80643 47.9261 6.36977 48.0995 5.98977C48.2728 5.60977 48.5095 5.30977 48.8095 5.08977C49.1095 4.87643 49.4595 4.76977 49.8595 4.76977C50.2528 4.76977 50.6028 4.87643 50.9095 5.08977C51.2161 5.30977 51.4561 5.60977 51.6295 5.98977C51.8028 6.36977 51.8895 6.80643 51.8895 7.29977C51.8895 7.7931 51.8028 8.22976 51.6295 8.60977C51.4561 8.98977 51.2161 9.28977 50.9095 9.50977C50.6095 9.7231 50.2595 9.82977 49.8595 9.82977ZM49.8595 8.96977C50.0728 8.96977 50.2628 8.89643 50.4295 8.74977C50.5895 8.60977 50.7161 8.4131 50.8095 8.15977C50.9028 7.9131 50.9495 7.62643 50.9495 7.29977C50.9495 6.9731 50.9028 6.6831 50.8095 6.42977C50.7161 6.17643 50.5895 5.97977 50.4295 5.83977C50.2628 5.69977 50.0728 5.62977 49.8595 5.62977C49.6461 5.62977 49.4595 5.69977 49.2995 5.83977C49.1328 5.97977 49.0028 6.17643 48.9095 6.42977C48.8228 6.6831 48.7795 6.9731 48.7795 7.29977C48.7795 7.62643 48.8228 7.9131 48.9095 8.15977C49.0028 8.4131 49.1328 8.60977 49.2995 8.74977C49.4661 8.89643 49.6528 8.96977 49.8595 8.96977ZM53.1895 9.74977V9.03977C53.1895 8.90643 53.2295 8.75977 53.3095 8.59977C53.3961 8.4331 53.5128 8.26977 53.6595 8.10977C53.8128 7.9431 53.9895 7.78977 54.1895 7.64977L54.9295 7.11977C55.0295 7.04643 55.1261 6.96643 55.2195 6.87977C55.3128 6.7931 55.3895 6.69643 55.4495 6.58977C55.5028 6.4831 55.5295 6.3831 55.5295 6.28977C55.5295 6.1631 55.5028 6.0531 55.4495 5.95977C55.3895 5.85977 55.3028 5.7831 55.1895 5.72977C55.0761 5.66977 54.9395 5.63977 54.7795 5.63977C54.6395 5.63977 54.5128 5.66977 54.3995 5.72977C54.2928 5.7831 54.2028 5.85643 54.1295 5.94977C54.0628 6.0431 54.0161 6.1431 53.9895 6.24977L52.9995 6.07977C53.0461 5.84643 53.1461 5.62977 53.2995 5.42977C53.4528 5.22977 53.6561 5.06643 53.9095 4.93977C54.1561 4.81977 54.4395 4.75977 54.7595 4.75977C55.1195 4.75977 55.4295 4.82643 55.6895 4.95977C55.9561 5.08643 56.1595 5.2631 56.2995 5.48977C56.4395 5.71643 56.5095 5.97977 56.5095 6.27977C56.5095 6.57977 56.4261 6.84977 56.2595 7.08977C56.0995 7.3231 55.8728 7.5431 55.5795 7.74977L54.9195 8.22976C54.7795 8.3231 54.6628 8.42643 54.5695 8.53977C54.4695 8.6531 54.3928 8.77643 54.3395 8.90977H56.5795V9.74977H53.1895ZM59.6795 9.82977C59.3461 9.82977 59.0628 9.7731 58.8295 9.65977C58.6028 9.53977 58.4161 9.3731 58.2695 9.15977C58.1228 8.9531 58.0128 8.70977 57.9395 8.42977C57.8728 8.14977 57.8395 7.84977 57.8395 7.52977C57.8395 7.15643 57.8795 6.8031 57.9595 6.46977C58.0395 6.13643 58.1595 5.8431 58.3195 5.58977C58.4795 5.32977 58.6861 5.12643 58.9395 4.97977C59.1928 4.83977 59.4961 4.76977 59.8495 4.76977C60.1095 4.76977 60.3595 4.80643 60.5995 4.87977C60.8461 4.9531 61.0695 5.05977 61.2695 5.19977L60.7895 5.89977C60.6428 5.79977 60.4861 5.72643 60.3195 5.67977C60.1595 5.6331 60.0095 5.60977 59.8695 5.60977C59.5095 5.60977 59.2261 5.76643 59.0195 6.07977C58.8128 6.39977 58.7128 6.9031 58.7195 7.58977L58.5395 7.44977C58.6461 7.19643 58.8095 6.9931 59.0295 6.83977C59.2561 6.68643 59.5228 6.60977 59.8295 6.60977C60.1428 6.60977 60.4195 6.67977 60.6595 6.81977C60.8995 6.96643 61.0895 7.16643 61.2295 7.41977C61.3628 7.66643 61.4295 7.9431 61.4295 8.24977C61.4295 8.55643 61.3595 8.82977 61.2195 9.06977C61.0728 9.30976 60.8661 9.49643 60.5995 9.62977C60.3395 9.7631 60.0328 9.82977 59.6795 9.82977ZM59.6795 9.01977C59.8328 9.01977 59.9695 8.98643 60.0895 8.91977C60.2095 8.84643 60.3061 8.74977 60.3795 8.62977C60.4461 8.50977 60.4795 8.36977 60.4795 8.20977C60.4795 8.04977 60.4461 7.90977 60.3795 7.78977C60.3061 7.6631 60.2095 7.5631 60.0895 7.48977C59.9695 7.41643 59.8328 7.37977 59.6795 7.37977C59.5261 7.37977 59.3861 7.41643 59.2595 7.48977C59.1395 7.5631 59.0428 7.6631 58.9695 7.78977C58.8961 7.90977 58.8595 8.04977 58.8595 8.20977C58.8595 8.36977 58.8961 8.50977 58.9695 8.62977C59.0428 8.74977 59.1395 8.84643 59.2595 8.91977C59.3861 8.98643 59.5261 9.01977 59.6795 9.01977ZM21.2195 16.7498V11.8498H24.3195V12.7198L22.1795 12.7298V13.8398H24.0295V14.6898H22.1795V15.8798H24.3495V16.7498H21.2195ZM27.9595 16.8498C27.5528 16.8498 27.2028 16.7698 26.9095 16.6098C26.6095 16.4498 26.3795 16.2264 26.2195 15.9398C26.0595 15.6531 25.9795 15.3131 25.9795 14.9198V11.8498H26.9295V14.9198C26.9295 15.1331 26.9728 15.3164 27.0595 15.4698C27.1461 15.6298 27.2695 15.7498 27.4295 15.8298C27.5828 15.9164 27.7661 15.9598 27.9795 15.9598C28.1861 15.9598 28.3695 15.9164 28.5295 15.8298C28.6828 15.7498 28.8028 15.6298 28.8895 15.4698C28.9761 15.3164 29.0195 15.1331 29.0195 14.9198V11.8498H29.9795V14.9198C29.9795 15.3131 29.8961 15.6531 29.7295 15.9398C29.5628 16.2264 29.3295 16.4498 29.0295 16.6098C28.7295 16.7698 28.3728 16.8498 27.9595 16.8498ZM31.6695 16.7498V11.8498H33.4895C33.8361 11.8498 34.1428 11.9164 34.4095 12.0498C34.6761 12.1898 34.8828 12.3764 35.0295 12.6098C35.1828 12.8431 35.2595 13.1164 35.2595 13.4298C35.2595 13.7364 35.1795 14.0098 35.0195 14.2498C34.8661 14.4898 34.6528 14.6764 34.3795 14.8098C34.1128 14.9431 33.8061 15.0098 33.4595 15.0098H32.6295V16.7498H31.6695ZM34.3695 16.7498L33.2295 14.7798L33.9695 14.2598L35.4495 16.7498H34.3695ZM32.6295 14.1398H33.4995C33.6461 14.1398 33.7761 14.1098 33.8895 14.0498C34.0028 13.9898 34.0928 13.9064 34.1595 13.7998C34.2261 13.6931 34.2595 13.5698 34.2595 13.4298C34.2595 13.2231 34.1861 13.0531 34.0395 12.9198C33.8861 12.7931 33.6895 12.7298 33.4495 12.7298H32.6295V14.1398ZM39.1295 16.8298C38.6361 16.8298 38.1995 16.7231 37.8195 16.5098C37.4395 16.2898 37.1395 15.9898 36.9195 15.6098C36.7061 15.2298 36.5995 14.7964 36.5995 14.3098C36.5995 13.8098 36.7061 13.3698 36.9195 12.9898C37.1395 12.6098 37.4361 12.3131 37.8095 12.0998C38.1828 11.8798 38.6161 11.7698 39.1095 11.7698C39.6028 11.7698 40.0361 11.8798 40.4095 12.0998C40.7895 12.3131 41.0861 12.6098 41.2995 12.9898C41.5128 13.3764 41.6195 13.8164 41.6195 14.3098C41.6195 14.7964 41.5128 15.2298 41.2995 15.6098C41.0861 15.9898 40.7928 16.2898 40.4195 16.5098C40.0461 16.7231 39.6161 16.8298 39.1295 16.8298ZM39.1295 15.9598C39.4295 15.9598 39.6928 15.8898 39.9195 15.7498C40.1461 15.6031 40.3228 15.4064 40.4495 15.1598C40.5761 14.9131 40.6395 14.6298 40.6395 14.3098C40.6395 13.9831 40.5728 13.6964 40.4395 13.4498C40.3128 13.2031 40.1361 13.0064 39.9095 12.8598C39.6761 12.7198 39.4095 12.6498 39.1095 12.6498C38.8161 12.6498 38.5528 12.7198 38.3195 12.8598C38.0861 13.0064 37.9061 13.2031 37.7795 13.4498C37.6461 13.6964 37.5795 13.9831 37.5795 14.3098C37.5795 14.6298 37.6461 14.9131 37.7795 15.1598C37.9061 15.4064 38.0861 15.6031 38.3195 15.7498C38.5528 15.8898 38.8228 15.9598 39.1295 15.9598ZM43.0995 16.7498V11.8498H44.9195C45.2661 11.8498 45.5695 11.9198 45.8295 12.0598C46.0961 12.1931 46.3061 12.3831 46.4595 12.6298C46.6061 12.8764 46.6795 13.1598 46.6795 13.4798C46.6795 13.7998 46.6061 14.0831 46.4595 14.3298C46.3195 14.5764 46.1228 14.7698 45.8695 14.9098C45.6161 15.0564 45.3228 15.1298 44.9895 15.1298H44.0595V16.7498H43.0995ZM44.0595 14.2398H44.9695C45.1895 14.2398 45.3661 14.1698 45.4995 14.0298C45.6395 13.8898 45.7095 13.7064 45.7095 13.4798C45.7095 13.2598 45.6328 13.0764 45.4795 12.9298C45.3261 12.7964 45.1328 12.7298 44.8995 12.7298H44.0595V14.2398ZM48.0195 16.7498V11.8498H51.1195V12.7198L48.9795 12.7298V13.8398H50.8295V14.6898H48.9795V15.8798H51.1495V16.7498H48.0195Z" fill="black"/>
<path d="M37.1595 46.0002V34.8002H39.7295V46.0002H37.1595ZM29.9195 46.0002V34.7802H32.4995V46.0002H29.9195ZM31.7495 41.4702V39.1002H38.5295V41.4702H31.7495ZM41.7795 46.0002V38.0002H44.2795V46.0002H41.7795ZM43.0295 36.9802C42.6561 36.9802 42.3261 36.8368 42.0395 36.5502C41.7595 36.2702 41.6195 35.9435 41.6195 35.5702C41.6195 35.1768 41.7595 34.8435 42.0395 34.5702C42.3261 34.2968 42.6561 34.1602 43.0295 34.1602C43.4095 34.1602 43.7395 34.2968 44.0195 34.5702C44.2995 34.8435 44.4395 35.1768 44.4395 35.5702C44.4395 35.9435 44.2995 36.2702 44.0195 36.5502C43.7395 36.8368 43.4095 36.9802 43.0295 36.9802ZM49.8295 49.4202C49.1761 49.4202 48.6061 49.3802 48.1195 49.3002C47.6395 49.2135 47.2261 49.1002 46.8795 48.9602C46.5395 48.8202 46.2595 48.6668 46.0395 48.5002L47.0095 46.5102C47.1828 46.5835 47.3861 46.6768 47.6195 46.7902C47.8528 46.9035 48.1395 47.0035 48.4795 47.0902C48.8261 47.1768 49.2395 47.2202 49.7195 47.2202C50.0928 47.2202 50.4261 47.1468 50.7195 47.0002C51.0128 46.8535 51.2395 46.6302 51.3995 46.3302C51.5661 46.0235 51.6495 45.6402 51.6495 45.1802V38.0002H54.1495V45.0902C54.1495 45.9835 53.9795 46.7568 53.6395 47.4102C53.2928 48.0568 52.7995 48.5535 52.1595 48.9002C51.5195 49.2468 50.7428 49.4202 49.8295 49.4202ZM49.2495 45.7002C48.5028 45.7002 47.8595 45.5468 47.3195 45.2402C46.7861 44.9335 46.3728 44.5002 46.0795 43.9402C45.7861 43.3735 45.6395 42.7002 45.6395 41.9202C45.6395 41.0668 45.7861 40.3368 46.0795 39.7302C46.3728 39.1235 46.7861 38.6502 47.3195 38.3102C47.8595 37.9768 48.5028 37.8102 49.2495 37.8102C49.8695 37.8102 50.4061 37.9768 50.8595 38.3102C51.3128 38.6502 51.6628 39.1268 51.9095 39.7402C52.1561 40.3602 52.2795 41.1035 52.2795 41.9702C52.2795 42.7368 52.1561 43.3968 51.9095 43.9502C51.6628 44.5035 51.3128 44.9335 50.8595 45.2402C50.4061 45.5468 49.8695 45.7002 49.2495 45.7002ZM49.9895 43.6202C50.3095 43.6202 50.5828 43.5402 50.8095 43.3802C51.0428 43.2268 51.2195 43.0168 51.3395 42.7502C51.4595 42.4835 51.5195 42.1802 51.5195 41.8402C51.5195 41.4802 51.4561 41.1668 51.3295 40.9002C51.2028 40.6335 51.0261 40.4235 50.7995 40.2702C50.5661 40.1235 50.2895 40.0502 49.9695 40.0502C49.6628 40.0502 49.3895 40.1235 49.1495 40.2702C48.9095 40.4235 48.7228 40.6335 48.5895 40.9002C48.4561 41.1668 48.3828 41.4802 48.3695 41.8402C48.3828 42.1802 48.4561 42.4835 48.5895 42.7502C48.7228 43.0168 48.9128 43.2268 49.1595 43.3802C49.3995 43.5402 49.6761 43.6202 49.9895 43.6202ZM55.8095 46.0002V34.8002H58.3095V46.0002H55.8095ZM60.9595 46.0002V41.9002H63.4595V46.0002H60.9595ZM60.9595 41.9002C60.9595 41.4735 60.9128 41.1368 60.8195 40.8902C60.7261 40.6368 60.5861 40.4535 60.3995 40.3402C60.2195 40.2202 60.0061 40.1535 59.7595 40.1402C59.2795 40.1335 58.9195 40.2668 58.6795 40.5402C58.4328 40.8068 58.3095 41.2202 58.3095 41.7802H57.5595C57.5595 40.9335 57.6861 40.2135 57.9395 39.6202C58.1928 39.0335 58.5428 38.5835 58.9895 38.2702C59.4295 37.9635 59.9395 37.8102 60.5195 37.8102C61.1661 37.8102 61.7095 37.9402 62.1495 38.2002C62.5828 38.4602 62.9095 38.8568 63.1295 39.3902C63.3495 39.9235 63.4595 40.6068 63.4595 41.4402V41.9002H60.9595ZM9.43945 62.0002V50.8002H13.8395C14.6461 50.8002 15.3661 50.9635 15.9995 51.2902C16.6261 51.6168 17.1195 52.0635 17.4795 52.6302C17.8328 53.2035 18.0095 53.8668 18.0095 54.6202C18.0095 55.3602 17.8361 56.0202 17.4895 56.6002C17.1428 57.1802 16.6595 57.6368 16.0395 57.9702C15.4261 58.2968 14.7195 58.4602 13.9195 58.4602H12.0095V62.0002H9.43945ZM12.0095 56.1002H13.8495C14.3095 56.1002 14.6795 55.9635 14.9595 55.6902C15.2328 55.4168 15.3695 55.0602 15.3695 54.6202C15.3695 54.1868 15.2228 53.8335 14.9295 53.5602C14.6361 53.2868 14.2495 53.1502 13.7695 53.1502H12.0095V56.1002ZM22.6695 62.1902C21.8361 62.1902 21.0995 62.0135 20.4595 61.6602C19.8195 61.3002 19.3195 60.8068 18.9595 60.1802C18.5928 59.5468 18.4095 58.8202 18.4095 58.0002C18.4095 57.1668 18.5928 56.4368 18.9595 55.8102C19.3328 55.1768 19.8395 54.6868 20.4795 54.3402C21.1195 53.9868 21.8595 53.8102 22.6995 53.8102C23.4595 53.8102 24.1428 53.9902 24.7495 54.3502C25.3561 54.7168 25.8395 55.2568 26.1995 55.9702C26.5528 56.6835 26.7295 57.5735 26.7295 58.6402H20.7195L20.9895 58.3402C20.9895 58.7002 21.0628 59.0202 21.2095 59.3002C21.3628 59.5735 21.5728 59.7835 21.8395 59.9302C22.1061 60.0702 22.4028 60.1402 22.7295 60.1402C23.1228 60.1402 23.4561 60.0535 23.7295 59.8802C24.0028 59.7068 24.1928 59.4868 24.2995 59.2202L26.5095 59.9702C26.2961 60.4702 25.9928 60.8868 25.5995 61.2202C25.2128 61.5468 24.7695 61.7902 24.2695 61.9502C23.7695 62.1102 23.2361 62.1902 22.6695 62.1902ZM21.0495 57.3002L20.7995 56.9802H24.3795L24.1595 57.3002C24.1595 56.9002 24.0795 56.5835 23.9195 56.3502C23.7595 56.1168 23.5595 55.9502 23.3195 55.8502C23.0861 55.7502 22.8528 55.7002 22.6195 55.7002C22.3861 55.7002 22.1495 55.7502 21.9095 55.8502C21.6695 55.9502 21.4661 56.1168 21.2995 56.3502C21.1328 56.5835 21.0495 56.9002 21.0495 57.3002ZM29.6295 57.8602C29.6295 56.9935 29.8028 56.2735 30.1495 55.7002C30.4961 55.1202 30.9328 54.6868 31.4595 54.4002C31.9861 54.1135 32.5395 53.9702 33.1195 53.9702V56.4002C32.6261 56.4002 32.1628 56.4535 31.7295 56.5602C31.2961 56.6668 30.9461 56.8302 30.6795 57.0502C30.4128 57.2702 30.2795 57.5502 30.2795 57.8902L29.6295 57.8602ZM27.7895 62.0002V54.0002H30.2795V62.0002H27.7895ZM34.9595 62.0002V53.2602C34.9595 52.3868 35.1861 51.7002 35.6395 51.2002C36.0995 50.7002 36.8061 50.4502 37.7595 50.4502C38.1061 50.4502 38.4728 50.5102 38.8595 50.6302C39.2461 50.7568 39.5761 50.9002 39.8495 51.0602L38.9195 52.8202C38.7928 52.7335 38.6661 52.6702 38.5395 52.6302C38.4128 52.5968 38.2961 52.5802 38.1895 52.5802C37.9295 52.5802 37.7428 52.6668 37.6295 52.8402C37.5095 53.0135 37.4495 53.3035 37.4495 53.7102V62.0002H34.9595ZM33.6895 55.9702V54.0002H39.2595V55.9702H33.6895ZM44.2395 62.1902C43.3928 62.1902 42.6495 62.0135 42.0095 61.6602C41.3695 61.3002 40.8661 60.8068 40.4995 60.1802C40.1328 59.5468 39.9495 58.8202 39.9495 58.0002C39.9495 57.1802 40.1261 56.4535 40.4795 55.8202C40.8395 55.1935 41.3428 54.7002 41.9895 54.3402C42.6361 53.9868 43.3695 53.8102 44.1895 53.8102C45.0295 53.8102 45.7728 53.9868 46.4195 54.3402C47.0661 54.7002 47.5661 55.1935 47.9195 55.8202C48.2795 56.4535 48.4595 57.1802 48.4595 58.0002C48.4595 58.8202 48.2795 59.5468 47.9195 60.1802C47.5661 60.8068 47.0695 61.3002 46.4295 61.6602C45.7895 62.0135 45.0595 62.1902 44.2395 62.1902ZM44.2395 59.8902C44.5595 59.8902 44.8428 59.8102 45.0895 59.6502C45.3428 59.4902 45.5395 59.2668 45.6795 58.9802C45.8261 58.7002 45.8995 58.3735 45.8995 58.0002C45.8995 57.6268 45.8261 57.3002 45.6795 57.0202C45.5395 56.7335 45.3395 56.5102 45.0795 56.3502C44.8261 56.1902 44.5328 56.1102 44.1995 56.1102C43.8728 56.1102 43.5795 56.1902 43.3195 56.3502C43.0661 56.5102 42.8661 56.7335 42.7195 57.0202C42.5795 57.3002 42.5095 57.6268 42.5095 58.0002C42.5095 58.3735 42.5795 58.7002 42.7195 58.9802C42.8661 59.2668 43.0695 59.4902 43.3295 59.6502C43.5895 59.8102 43.8928 59.8902 44.2395 59.8902ZM51.5195 57.8602C51.5195 56.9935 51.6928 56.2735 52.0395 55.7002C52.3861 55.1202 52.8228 54.6868 53.3495 54.4002C53.8761 54.1135 54.4261 53.9702 54.9995 53.9702V56.4002C54.5128 56.4002 54.0528 56.4535 53.6195 56.5602C53.1861 56.6668 52.8361 56.8302 52.5695 57.0502C52.3028 57.2702 52.1695 57.5502 52.1695 57.8902L51.5195 57.8602ZM49.6795 62.0002V54.0002H52.1695V62.0002H49.6795ZM56.0395 62.0002V54.0002H58.3995L58.4895 55.0102C58.7495 54.6168 59.0661 54.3168 59.4395 54.1102C59.8195 53.9102 60.2395 53.8102 60.6995 53.8102C61.3595 53.8102 61.9061 53.9468 62.3395 54.2202C62.7728 54.4868 63.0895 54.9002 63.2895 55.4602C63.5361 54.9268 63.8728 54.5168 64.2995 54.2302C64.7261 53.9502 65.2061 53.8102 65.7395 53.8102C66.6995 53.8102 67.4228 54.1035 67.9095 54.6902C68.3961 55.2768 68.6328 56.1868 68.6195 57.4202V62.0002H66.1195V57.9002C66.1195 57.4735 66.0761 57.1368 65.9895 56.8902C65.8961 56.6368 65.7661 56.4535 65.5995 56.3402C65.4261 56.2202 65.2228 56.1535 64.9895 56.1402C64.5295 56.1335 64.1795 56.2668 63.9395 56.5402C63.6995 56.8068 63.5795 57.2202 63.5795 57.7802V62.0002H61.0795V57.9002C61.0795 57.4735 61.0361 57.1368 60.9495 56.8902C60.8561 56.6368 60.7261 56.4535 60.5595 56.3402C60.3861 56.2202 60.1828 56.1535 59.9495 56.1402C59.4895 56.1335 59.1395 56.2668 58.8995 56.5402C58.6595 56.8068 58.5395 57.2202 58.5395 57.7802V62.0002H56.0395ZM73.9795 62.1902C73.1461 62.1902 72.4095 62.0135 71.7695 61.6602C71.1295 61.3002 70.6295 60.8068 70.2695 60.1802C69.9028 59.5468 69.7195 58.8202 69.7195 58.0002C69.7195 57.1668 69.9061 56.4368 70.2795 55.8102C70.6461 55.1768 71.1495 54.6868 71.7895 54.3402C72.4295 53.9868 73.1695 53.8102 74.0095 53.8102C74.7695 53.8102 75.4528 53.9902 76.0594 54.3502C76.6661 54.7168 77.1495 55.2568 77.5095 55.9702C77.8628 56.6835 78.0395 57.5735 78.0395 58.6402H72.0295L72.2995 58.3402C72.2995 58.7002 72.3728 59.0202 72.5195 59.3002C72.6728 59.5735 72.8828 59.7835 73.1495 59.9302C73.4161 60.0702 73.7128 60.1402 74.0395 60.1402C74.4395 60.1402 74.7728 60.0535 75.0395 59.8802C75.3128 59.7068 75.5028 59.4868 75.6095 59.2202L77.8195 59.9702C77.6061 60.4702 77.3061 60.8868 76.9194 61.2202C76.5261 61.5468 76.0795 61.7902 75.5795 61.9502C75.0795 62.1102 74.5461 62.1902 73.9795 62.1902ZM72.3595 57.3002L72.1095 56.9802H75.6895L75.4695 57.3002C75.4695 56.9002 75.3895 56.5835 75.2295 56.3502C75.0695 56.1168 74.8728 55.9502 74.6395 55.8502C74.3995 55.7502 74.1628 55.7002 73.9295 55.7002C73.6961 55.7002 73.4595 55.7502 73.2195 55.8502C72.9795 55.9502 72.7761 56.1168 72.6095 56.3502C72.4428 56.5835 72.3595 56.9002 72.3595 57.3002ZM80.9395 57.8602C80.9395 56.9935 81.1128 56.2735 81.4594 55.7002C81.8061 55.1202 82.2428 54.6868 82.7694 54.4002C83.2961 54.1135 83.8494 53.9702 84.4295 53.9702V56.4002C83.9361 56.4002 83.4728 56.4535 83.0395 56.5602C82.6128 56.6668 82.2661 56.8302 81.9995 57.0502C81.7328 57.2702 81.5994 57.5502 81.5994 57.8902L80.9395 57.8602ZM79.0994 62.0002V54.0002H81.5994V62.0002H79.0994Z" fill="black"/>
<path d="M71 0H92V21H71V0Z" fill="#FF492C"/>
<path fill-rule="evenodd" clip-rule="evenodd" d="M86.0495 8.04164H84.2555C84.3045 7.76164 84.4775 7.60364 84.8305 7.42564L85.1605 7.25764C85.7525 6.95464 86.0665 6.61364 86.0665 6.05764C86.0725 5.89671 86.0385 5.7368 85.9675 5.59227C85.8964 5.44775 85.7906 5.32314 85.6595 5.22964C85.3945 5.02964 85.0695 4.93164 84.6945 4.93164C84.3965 4.93164 84.1255 5.00764 83.8765 5.16464C83.6415 5.30352 83.453 5.50881 83.3345 5.75464L83.8545 6.27364C84.0545 5.86764 84.3475 5.66764 84.7325 5.66764C85.0585 5.66764 85.2585 5.83564 85.2585 6.06764C85.2585 6.26264 85.1615 6.42464 84.7865 6.61364L84.5765 6.71664C84.1145 6.94964 83.7945 7.21464 83.6105 7.51664C83.4265 7.81464 83.3345 8.19864 83.3345 8.65864V8.78264H86.0505V8.04264L86.0495 8.04164ZM85.8055 9.64164H82.8385L81.3555 12.2116H84.3225L85.8055 14.7816L87.2885 12.2116L85.8055 9.64164Z" fill="white"/>
<path fill-rule="evenodd" clip-rule="evenodd" d="M81.6075 13.9276C80.6984 13.9268 79.8267 13.5654 79.1837 12.9228C78.5406 12.2801 78.1788 11.4087 78.1775 10.4996C78.1791 9.59065 78.541 8.71945 79.184 8.07702C79.827 7.43459 80.6985 7.07337 81.6075 7.07258L82.7825 4.61658C81.912 4.44244 81.0138 4.46362 80.1525 4.67859C79.2912 4.89356 78.4884 5.29696 77.8018 5.85971C77.1153 6.42247 76.5622 7.13054 76.1824 7.93289C75.8026 8.73524 75.6055 9.61187 75.6055 10.4996C75.6057 11.2875 75.7612 12.0677 76.063 12.7955C76.3647 13.5234 76.8069 14.1847 77.3642 14.7416C77.9216 15.2986 78.5832 15.7403 79.3112 16.0416C80.0393 16.3429 80.8195 16.4978 81.6075 16.4976C82.8781 16.4997 84.1163 16.0968 85.1425 15.3476L83.8425 13.0976C83.2425 13.6136 82.4605 13.9276 81.6075 13.9276Z" fill="white"/>
<path d="M0 83.2235V77.0195L46 100.063L92 77.0195V83.2915L46 106.001L0 83.2235Z" fill="#EE4288"/>
<path d="M0 77.5664V71.0664L46 94.1084L92 71.0664V77.5664L46 100.046L0 77.5664Z" fill="white"/>
<path d="M0 71.6319V65.1319L46 88.1749L92 65.1309V71.6309L46 94.1109L0 71.6319Z" fill="white"/>
<path d="M91.53 20.533H0.625M71.262 0.909V20.533M91.5 0.5V83.022L46 105.441L0.5 83.022V0.5H91.5Z" stroke="black"/>
</g>
<defs>
<clipPath id="clip0_2121_12562">
<rect width="92" height="106" fill="white"/>
</clipPath>
</defs>
</svg>
