<svg width="92" height="106" viewBox="0 0 92 106" fill="none" xmlns="http://www.w3.org/2000/svg">
<g clip-path="url(#clip0_2121_12491)">
<path d="M0 83.334L46 106L92 83.334V0H0V83.334Z" fill="white"/>
<path d="M0 83.334L46 106L92 83.334V0H0V83.334Z" fill="white"/>
<path d="M12.8295 9.82977C12.5828 9.82977 12.3528 9.79977 12.1395 9.73977C11.9261 9.67977 11.7361 9.59643 11.5695 9.48977C11.3961 9.37643 11.2561 9.2531 11.1495 9.11977C11.0428 8.98643 10.9728 8.8431 10.9395 8.68976L11.8695 8.40977C11.9295 8.56977 12.0395 8.70643 12.1995 8.81977C12.3528 8.9331 12.5461 8.9931 12.7795 8.99977C13.0261 9.00643 13.2261 8.9531 13.3795 8.83977C13.5395 8.72643 13.6195 8.5831 13.6195 8.40977C13.6195 8.24977 13.5561 8.11977 13.4295 8.01977C13.3095 7.9131 13.1395 7.8331 12.9195 7.77977L12.2895 7.60977C12.0495 7.54977 11.8395 7.45643 11.6595 7.32977C11.4728 7.20977 11.3295 7.05643 11.2295 6.86977C11.1295 6.68977 11.0795 6.47977 11.0795 6.23977C11.0795 5.7731 11.2295 5.40977 11.5295 5.14977C11.8361 4.89643 12.2695 4.76977 12.8295 4.76977C13.1428 4.76977 13.4195 4.8131 13.6595 4.89977C13.8928 4.9931 14.0895 5.1231 14.2495 5.28977C14.4095 5.45643 14.5295 5.65643 14.6095 5.88977L13.6795 6.16977C13.6261 6.01643 13.5228 5.8831 13.3695 5.76977C13.2228 5.65643 13.0328 5.59977 12.7995 5.59977C12.5661 5.59977 12.3861 5.6531 12.2595 5.75977C12.1261 5.86643 12.0595 6.01977 12.0595 6.21977C12.0595 6.3731 12.1095 6.4931 12.2095 6.57977C12.3161 6.66643 12.4595 6.7331 12.6395 6.77977L13.2895 6.93977C13.7095 7.04643 14.0361 7.2331 14.2695 7.49977C14.5028 7.76643 14.6195 8.0631 14.6195 8.38977C14.6195 8.67643 14.5495 8.92643 14.4095 9.13977C14.2695 9.35977 14.0661 9.52977 13.7995 9.64977C13.5328 9.76976 13.2095 9.82977 12.8295 9.82977ZM16.1395 9.74977V4.84977H17.9595C18.2995 4.84977 18.6028 4.91977 18.8695 5.05977C19.1361 5.1931 19.3461 5.3831 19.4995 5.62977C19.6461 5.87643 19.7195 6.15977 19.7195 6.47977C19.7195 6.79977 19.6461 7.0831 19.4995 7.32977C19.3595 7.57643 19.1628 7.76977 18.9095 7.90977C18.6561 8.05643 18.3628 8.12977 18.0295 8.12977H17.0995V9.74977H16.1395ZM17.0995 7.23977H18.0095C18.2228 7.23977 18.3995 7.16977 18.5395 7.02977C18.6795 6.88977 18.7495 6.70643 18.7495 6.47977C18.7495 6.25977 18.6728 6.07977 18.5195 5.93977C18.3661 5.79977 18.1728 5.72977 17.9395 5.72977H17.0995V7.23977ZM21.0595 9.74977V4.84977H22.8795C23.2261 4.84977 23.5295 4.91643 23.7895 5.04977C24.0561 5.18977 24.2661 5.37643 24.4195 5.60977C24.5661 5.8431 24.6395 6.11643 24.6395 6.42977C24.6395 6.73643 24.5628 7.00977 24.4095 7.24977C24.2495 7.48977 24.0361 7.67643 23.7695 7.80977C23.4961 7.9431 23.1861 8.00977 22.8395 8.00977H22.0195V9.74977H21.0595ZM23.7495 9.74977L22.6195 7.77977L23.3495 7.25977L24.8395 9.74977H23.7495ZM22.0195 7.13977H22.8795C23.0261 7.13977 23.1561 7.10977 23.2695 7.04977C23.3828 6.98977 23.4761 6.90643 23.5495 6.79977C23.6161 6.6931 23.6495 6.56977 23.6495 6.42977C23.6495 6.2231 23.5728 6.0531 23.4195 5.91977C23.2661 5.7931 23.0728 5.72977 22.8395 5.72977H22.0195V7.13977ZM26.2695 9.74977V4.84977H27.2295V9.74977H26.2695ZM28.9995 9.74977V4.84977H29.9995L32.3895 8.13977V4.84977H33.3395V9.74977H32.3895L29.9495 6.39977V9.74977H28.9995ZM37.3795 9.82977C36.8795 9.82977 36.4395 9.7231 36.0595 9.50977C35.6728 9.28977 35.3695 8.98977 35.1495 8.60977C34.9295 8.22976 34.8195 7.7931 34.8195 7.29977C34.8195 6.80643 34.9295 6.36977 35.1495 5.98977C35.3695 5.60977 35.6728 5.30977 36.0595 5.08977C36.4395 4.87643 36.8795 4.76977 37.3795 4.76977C37.6795 4.76977 37.9561 4.8131 38.2095 4.89977C38.4628 4.98643 38.6861 5.10977 38.8795 5.26977C39.0728 5.4231 39.2328 5.59977 39.3595 5.79977L38.5795 6.28977C38.4995 6.1631 38.3961 6.0531 38.2695 5.95977C38.1361 5.85977 37.9928 5.7831 37.8395 5.72977C37.6861 5.66977 37.5328 5.63977 37.3795 5.63977C37.0728 5.63977 36.7995 5.70977 36.5595 5.84977C36.3261 5.99643 36.1395 6.1931 35.9995 6.43977C35.8661 6.68643 35.7995 6.9731 35.7995 7.29977C35.7995 7.61977 35.8661 7.90643 35.9995 8.15977C36.1328 8.4131 36.3195 8.60977 36.5595 8.74977C36.8061 8.89643 37.0861 8.96977 37.3995 8.96977C37.6461 8.96977 37.8661 8.91976 38.0595 8.81977C38.2528 8.71977 38.4061 8.5831 38.5195 8.40977C38.6328 8.22977 38.6895 8.0231 38.6895 7.78977L39.5995 7.64977C39.5995 8.10977 39.5061 8.5031 39.3195 8.82977C39.1261 9.15643 38.8628 9.40643 38.5295 9.57977C38.1961 9.74643 37.8128 9.82977 37.3795 9.82977ZM37.5395 7.86977V7.12977H39.5995V7.71977L39.0795 7.86977H37.5395ZM43.1995 9.74977V9.03977C43.1995 8.90643 43.2395 8.75977 43.3195 8.59977C43.4061 8.4331 43.5228 8.26977 43.6695 8.10977C43.8228 7.9431 43.9995 7.78977 44.1995 7.64977L44.9395 7.11977C45.0461 7.04643 45.1428 6.96643 45.2295 6.87977C45.3228 6.7931 45.3995 6.69643 45.4595 6.58977C45.5128 6.4831 45.5395 6.3831 45.5395 6.28977C45.5395 6.1631 45.5128 6.0531 45.4595 5.95977C45.3995 5.85977 45.3128 5.7831 45.1995 5.72977C45.0861 5.66977 44.9495 5.63977 44.7895 5.63977C44.6495 5.63977 44.5228 5.66977 44.4095 5.72977C44.3028 5.7831 44.2128 5.85643 44.1395 5.94977C44.0728 6.0431 44.0261 6.1431 43.9995 6.24977L43.0095 6.07977C43.0561 5.84643 43.1561 5.62977 43.3095 5.42977C43.4628 5.22977 43.6661 5.06643 43.9195 4.93977C44.1661 4.81977 44.4495 4.75977 44.7695 4.75977C45.1295 4.75977 45.4395 4.82643 45.6995 4.95977C45.9661 5.08643 46.1695 5.2631 46.3095 5.48977C46.4495 5.71643 46.5195 5.97977 46.5195 6.27977C46.5195 6.57977 46.4395 6.84977 46.2795 7.08977C46.1128 7.3231 45.8828 7.5431 45.5895 7.74977L44.9295 8.22976C44.7895 8.3231 44.6728 8.42643 44.5795 8.53977C44.4795 8.6531 44.4028 8.77643 44.3495 8.90977H46.5895V9.74977H43.1995ZM49.8595 9.82977C49.4661 9.82977 49.1161 9.7231 48.8095 9.50977C48.5095 9.28977 48.2728 8.98977 48.0995 8.60977C47.9261 8.22976 47.8395 7.7931 47.8395 7.29977C47.8395 6.80643 47.9261 6.36977 48.0995 5.98977C48.2728 5.60977 48.5095 5.30977 48.8095 5.08977C49.1095 4.87643 49.4595 4.76977 49.8595 4.76977C50.2528 4.76977 50.6028 4.87643 50.9095 5.08977C51.2161 5.30977 51.4561 5.60977 51.6295 5.98977C51.8028 6.36977 51.8895 6.80643 51.8895 7.29977C51.8895 7.7931 51.8028 8.22976 51.6295 8.60977C51.4561 8.98977 51.2161 9.28977 50.9095 9.50977C50.6095 9.7231 50.2595 9.82977 49.8595 9.82977ZM49.8595 8.96977C50.0728 8.96977 50.2628 8.89643 50.4295 8.74977C50.5895 8.60977 50.7161 8.4131 50.8095 8.15977C50.9028 7.9131 50.9495 7.62643 50.9495 7.29977C50.9495 6.9731 50.9028 6.6831 50.8095 6.42977C50.7161 6.17643 50.5895 5.97977 50.4295 5.83977C50.2628 5.69977 50.0728 5.62977 49.8595 5.62977C49.6461 5.62977 49.4595 5.69977 49.2995 5.83977C49.1328 5.97977 49.0028 6.17643 48.9095 6.42977C48.8228 6.6831 48.7795 6.9731 48.7795 7.29977C48.7795 7.62643 48.8228 7.9131 48.9095 8.15977C49.0028 8.4131 49.1328 8.60977 49.2995 8.74977C49.4661 8.89643 49.6528 8.96977 49.8595 8.96977ZM53.1895 9.74977V9.03977C53.1895 8.90643 53.2295 8.75977 53.3095 8.59977C53.3961 8.4331 53.5128 8.26977 53.6595 8.10977C53.8128 7.9431 53.9895 7.78977 54.1895 7.64977L54.9295 7.11977C55.0295 7.04643 55.1261 6.96643 55.2195 6.87977C55.3128 6.7931 55.3895 6.69643 55.4495 6.58977C55.5028 6.4831 55.5295 6.3831 55.5295 6.28977C55.5295 6.1631 55.5028 6.0531 55.4495 5.95977C55.3895 5.85977 55.3028 5.7831 55.1895 5.72977C55.0761 5.66977 54.9395 5.63977 54.7795 5.63977C54.6395 5.63977 54.5128 5.66977 54.3995 5.72977C54.2928 5.7831 54.2028 5.85643 54.1295 5.94977C54.0628 6.0431 54.0161 6.1431 53.9895 6.24977L52.9995 6.07977C53.0461 5.84643 53.1461 5.62977 53.2995 5.42977C53.4528 5.22977 53.6561 5.06643 53.9095 4.93977C54.1561 4.81977 54.4395 4.75977 54.7595 4.75977C55.1195 4.75977 55.4295 4.82643 55.6895 4.95977C55.9561 5.08643 56.1595 5.2631 56.2995 5.48977C56.4395 5.71643 56.5095 5.97977 56.5095 6.27977C56.5095 6.57977 56.4261 6.84977 56.2595 7.08977C56.0995 7.3231 55.8728 7.5431 55.5795 7.74977L54.9195 8.22976C54.7795 8.3231 54.6628 8.42643 54.5695 8.53977C54.4695 8.6531 54.3928 8.77643 54.3395 8.90977H56.5795V9.74977H53.1895ZM59.6795 9.82977C59.3461 9.82977 59.0628 9.7731 58.8295 9.65977C58.6028 9.53977 58.4161 9.3731 58.2695 9.15977C58.1228 8.9531 58.0128 8.70977 57.9395 8.42977C57.8728 8.14977 57.8395 7.84977 57.8395 7.52977C57.8395 7.15643 57.8795 6.8031 57.9595 6.46977C58.0395 6.13643 58.1595 5.8431 58.3195 5.58977C58.4795 5.32977 58.6861 5.12643 58.9395 4.97977C59.1928 4.83977 59.4961 4.76977 59.8495 4.76977C60.1095 4.76977 60.3595 4.80643 60.5995 4.87977C60.8461 4.9531 61.0695 5.05977 61.2695 5.19977L60.7895 5.89977C60.6428 5.79977 60.4861 5.72643 60.3195 5.67977C60.1595 5.6331 60.0095 5.60977 59.8695 5.60977C59.5095 5.60977 59.2261 5.76643 59.0195 6.07977C58.8128 6.39977 58.7128 6.9031 58.7195 7.58977L58.5395 7.44977C58.6461 7.19643 58.8095 6.9931 59.0295 6.83977C59.2561 6.68643 59.5228 6.60977 59.8295 6.60977C60.1428 6.60977 60.4195 6.67977 60.6595 6.81977C60.8995 6.96643 61.0895 7.16643 61.2295 7.41977C61.3628 7.66643 61.4295 7.9431 61.4295 8.24977C61.4295 8.55643 61.3595 8.82977 61.2195 9.06977C61.0728 9.30976 60.8661 9.49643 60.5995 9.62977C60.3395 9.7631 60.0328 9.82977 59.6795 9.82977ZM59.6795 9.01977C59.8328 9.01977 59.9695 8.98643 60.0895 8.91977C60.2095 8.84643 60.3061 8.74977 60.3795 8.62977C60.4461 8.50977 60.4795 8.36977 60.4795 8.20977C60.4795 8.04977 60.4461 7.90977 60.3795 7.78977C60.3061 7.6631 60.2095 7.5631 60.0895 7.48977C59.9695 7.41643 59.8328 7.37977 59.6795 7.37977C59.5261 7.37977 59.3861 7.41643 59.2595 7.48977C59.1395 7.5631 59.0428 7.6631 58.9695 7.78977C58.8961 7.90977 58.8595 8.04977 58.8595 8.20977C58.8595 8.36977 58.8961 8.50977 58.9695 8.62977C59.0428 8.74977 59.1395 8.84643 59.2595 8.91977C59.3861 8.98643 59.5261 9.01977 59.6795 9.01977ZM21.2195 16.7498V11.8498H24.3195V12.7198L22.1795 12.7298V13.8398H24.0295V14.6898H22.1795V15.8798H24.3495V16.7498H21.2195ZM27.9595 16.8498C27.5528 16.8498 27.2028 16.7698 26.9095 16.6098C26.6095 16.4498 26.3795 16.2264 26.2195 15.9398C26.0595 15.6531 25.9795 15.3131 25.9795 14.9198V11.8498H26.9295V14.9198C26.9295 15.1331 26.9728 15.3164 27.0595 15.4698C27.1461 15.6298 27.2695 15.7498 27.4295 15.8298C27.5828 15.9164 27.7661 15.9598 27.9795 15.9598C28.1861 15.9598 28.3695 15.9164 28.5295 15.8298C28.6828 15.7498 28.8028 15.6298 28.8895 15.4698C28.9761 15.3164 29.0195 15.1331 29.0195 14.9198V11.8498H29.9795V14.9198C29.9795 15.3131 29.8961 15.6531 29.7295 15.9398C29.5628 16.2264 29.3295 16.4498 29.0295 16.6098C28.7295 16.7698 28.3728 16.8498 27.9595 16.8498ZM31.6695 16.7498V11.8498H33.4895C33.8361 11.8498 34.1428 11.9164 34.4095 12.0498C34.6761 12.1898 34.8828 12.3764 35.0295 12.6098C35.1828 12.8431 35.2595 13.1164 35.2595 13.4298C35.2595 13.7364 35.1795 14.0098 35.0195 14.2498C34.8661 14.4898 34.6528 14.6764 34.3795 14.8098C34.1128 14.9431 33.8061 15.0098 33.4595 15.0098H32.6295V16.7498H31.6695ZM34.3695 16.7498L33.2295 14.7798L33.9695 14.2598L35.4495 16.7498H34.3695ZM32.6295 14.1398H33.4995C33.6461 14.1398 33.7761 14.1098 33.8895 14.0498C34.0028 13.9898 34.0928 13.9064 34.1595 13.7998C34.2261 13.6931 34.2595 13.5698 34.2595 13.4298C34.2595 13.2231 34.1861 13.0531 34.0395 12.9198C33.8861 12.7931 33.6895 12.7298 33.4495 12.7298H32.6295V14.1398ZM39.1295 16.8298C38.6361 16.8298 38.1995 16.7231 37.8195 16.5098C37.4395 16.2898 37.1395 15.9898 36.9195 15.6098C36.7061 15.2298 36.5995 14.7964 36.5995 14.3098C36.5995 13.8098 36.7061 13.3698 36.9195 12.9898C37.1395 12.6098 37.4361 12.3131 37.8095 12.0998C38.1828 11.8798 38.6161 11.7698 39.1095 11.7698C39.6028 11.7698 40.0361 11.8798 40.4095 12.0998C40.7895 12.3131 41.0861 12.6098 41.2995 12.9898C41.5128 13.3764 41.6195 13.8164 41.6195 14.3098C41.6195 14.7964 41.5128 15.2298 41.2995 15.6098C41.0861 15.9898 40.7928 16.2898 40.4195 16.5098C40.0461 16.7231 39.6161 16.8298 39.1295 16.8298ZM39.1295 15.9598C39.4295 15.9598 39.6928 15.8898 39.9195 15.7498C40.1461 15.6031 40.3228 15.4064 40.4495 15.1598C40.5761 14.9131 40.6395 14.6298 40.6395 14.3098C40.6395 13.9831 40.5728 13.6964 40.4395 13.4498C40.3128 13.2031 40.1361 13.0064 39.9095 12.8598C39.6761 12.7198 39.4095 12.6498 39.1095 12.6498C38.8161 12.6498 38.5528 12.7198 38.3195 12.8598C38.0861 13.0064 37.9061 13.2031 37.7795 13.4498C37.6461 13.6964 37.5795 13.9831 37.5795 14.3098C37.5795 14.6298 37.6461 14.9131 37.7795 15.1598C37.9061 15.4064 38.0861 15.6031 38.3195 15.7498C38.5528 15.8898 38.8228 15.9598 39.1295 15.9598ZM43.0995 16.7498V11.8498H44.9195C45.2661 11.8498 45.5695 11.9198 45.8295 12.0598C46.0961 12.1931 46.3061 12.3831 46.4595 12.6298C46.6061 12.8764 46.6795 13.1598 46.6795 13.4798C46.6795 13.7998 46.6061 14.0831 46.4595 14.3298C46.3195 14.5764 46.1228 14.7698 45.8695 14.9098C45.6161 15.0564 45.3228 15.1298 44.9895 15.1298H44.0595V16.7498H43.0995ZM44.0595 14.2398H44.9695C45.1895 14.2398 45.3661 14.1698 45.4995 14.0298C45.6395 13.8898 45.7095 13.7064 45.7095 13.4798C45.7095 13.2598 45.6328 13.0764 45.4795 12.9298C45.3261 12.7964 45.1328 12.7298 44.8995 12.7298H44.0595V14.2398ZM48.0195 16.7498V11.8498H51.1195V12.7198L48.9795 12.7298V13.8398H50.8295V14.6898H48.9795V15.8798H51.1495V16.7498H48.0195Z" fill="black"/>
<path d="M15.1797 46.0002V34.8002H19.5797C20.393 34.8002 21.113 34.9568 21.7397 35.2702C22.3664 35.5835 22.8597 36.0202 23.2197 36.5802C23.5797 37.1402 23.7597 37.7835 23.7597 38.5102C23.7597 39.2368 23.5764 39.8835 23.2097 40.4502C22.8497 41.0168 22.353 41.4568 21.7197 41.7702C21.0797 42.0835 20.3497 42.2402 19.5297 42.2402H17.7597V46.0002H15.1797ZM21.2597 46.0002L18.7297 41.5502L20.6697 40.1302L24.1997 46.0002H21.2597ZM17.7597 39.8702H19.4997C19.7997 39.8702 20.0664 39.8135 20.2997 39.7002C20.533 39.5802 20.7164 39.4168 20.8497 39.2102C20.983 39.0035 21.0497 38.7702 21.0497 38.5102C21.0497 38.1168 20.903 37.7935 20.6097 37.5402C20.3164 37.2802 19.9297 37.1502 19.4497 37.1502H17.7597V39.8702ZM29.2097 46.1902C28.3764 46.1902 27.6397 46.0135 26.9997 45.6602C26.3597 45.3002 25.8597 44.8068 25.4997 44.1802C25.1397 43.5468 24.9597 42.8202 24.9597 42.0002C24.9597 41.1668 25.143 40.4368 25.5097 39.8102C25.8764 39.1768 26.3797 38.6868 27.0197 38.3402C27.6597 37.9868 28.3997 37.8102 29.2397 37.8102C29.9997 37.8102 30.683 37.9902 31.2897 38.3502C31.8964 38.7168 32.3797 39.2568 32.7397 39.9702C33.0997 40.6835 33.2797 41.5735 33.2797 42.6402H27.2597L27.5297 42.3402C27.5297 42.7002 27.6064 43.0202 27.7597 43.3002C27.9064 43.5735 28.113 43.7835 28.3797 43.9302C28.6464 44.0702 28.9464 44.1402 29.2797 44.1402C29.673 44.1402 30.0064 44.0535 30.2797 43.8802C30.5464 43.7068 30.733 43.4868 30.8397 43.2202L33.0497 43.9702C32.8364 44.4702 32.5364 44.8868 32.1497 45.2202C31.7564 45.5468 31.3097 45.7902 30.8097 45.9502C30.3097 46.1102 29.7764 46.1902 29.2097 46.1902ZM27.5997 41.3002L27.3397 40.9802H30.9197L30.6997 41.3002C30.6997 40.9002 30.6197 40.5835 30.4597 40.3502C30.2997 40.1168 30.103 39.9502 29.8697 39.8502C29.6364 39.7502 29.3997 39.7002 29.1597 39.7002C28.9264 39.7002 28.6897 39.7502 28.4497 39.8502C28.2097 39.9502 28.0064 40.1168 27.8397 40.3502C27.6797 40.5835 27.5997 40.9002 27.5997 41.3002ZM38.1097 49.4202C37.4564 49.4202 36.8864 49.3802 36.3997 49.3002C35.9197 49.2135 35.5064 49.1002 35.1597 48.9602C34.8197 48.8202 34.5397 48.6668 34.3197 48.5002L35.2897 46.5102C35.463 46.5835 35.6664 46.6768 35.8997 46.7902C36.133 46.9035 36.4197 47.0035 36.7597 47.0902C37.1064 47.1768 37.5197 47.2202 37.9997 47.2202C38.373 47.2202 38.7064 47.1468 38.9997 47.0002C39.293 46.8535 39.5197 46.6302 39.6797 46.3302C39.8464 46.0235 39.9297 45.6402 39.9297 45.1802V38.0002H42.4297V45.0902C42.4297 45.9835 42.2597 46.7568 41.9197 47.4102C41.573 48.0568 41.0797 48.5535 40.4397 48.9002C39.7997 49.2468 39.023 49.4202 38.1097 49.4202ZM37.5297 45.7002C36.783 45.7002 36.1397 45.5468 35.5997 45.2402C35.0664 44.9335 34.653 44.5002 34.3597 43.9402C34.0664 43.3735 33.9197 42.7002 33.9197 41.9202C33.9197 41.0668 34.0664 40.3368 34.3597 39.7302C34.653 39.1235 35.0664 38.6502 35.5997 38.3102C36.1397 37.9768 36.783 37.8102 37.5297 37.8102C38.1497 37.8102 38.6864 37.9768 39.1397 38.3102C39.593 38.6502 39.943 39.1268 40.1897 39.7402C40.4364 40.3602 40.5597 41.1035 40.5597 41.9702C40.5597 42.7368 40.4364 43.3968 40.1897 43.9502C39.943 44.5035 39.593 44.9335 39.1397 45.2402C38.6864 45.5468 38.1497 45.7002 37.5297 45.7002ZM38.2697 43.6202C38.5897 43.6202 38.863 43.5402 39.0897 43.3802C39.323 43.2268 39.4997 43.0168 39.6197 42.7502C39.7397 42.4835 39.7997 42.1802 39.7997 41.8402C39.7997 41.4802 39.7364 41.1668 39.6097 40.9002C39.483 40.6335 39.3064 40.4235 39.0797 40.2702C38.8464 40.1235 38.5697 40.0502 38.2497 40.0502C37.943 40.0502 37.6697 40.1235 37.4297 40.2702C37.1897 40.4235 37.003 40.6335 36.8697 40.9002C36.7364 41.1668 36.663 41.4802 36.6497 41.8402C36.663 42.1802 36.7364 42.4835 36.8697 42.7502C37.003 43.0168 37.193 43.2268 37.4397 43.3802C37.6797 43.5402 37.9564 43.6202 38.2697 43.6202ZM44.1997 46.0002V38.0002H46.6997V46.0002H44.1997ZM45.4497 36.9802C45.0764 36.9802 44.7497 36.8368 44.4697 36.5502C44.183 36.2702 44.0397 35.9435 44.0397 35.5702C44.0397 35.1768 44.183 34.8435 44.4697 34.5702C44.7497 34.2968 45.0764 34.1602 45.4497 34.1602C45.8364 34.1602 46.1664 34.2968 46.4397 34.5702C46.7197 34.8435 46.8597 35.1768 46.8597 35.5702C46.8597 35.9435 46.7197 36.2702 46.4397 36.5502C46.1664 36.8368 45.8364 36.9802 45.4497 36.9802ZM52.3497 46.1902C51.503 46.1902 50.7597 46.0135 50.1197 45.6602C49.4797 45.3002 48.9764 44.8068 48.6097 44.1802C48.243 43.5468 48.0597 42.8202 48.0597 42.0002C48.0597 41.1802 48.2397 40.4535 48.5997 39.8202C48.953 39.1935 49.453 38.7002 50.0997 38.3402C50.7464 37.9868 51.4797 37.8102 52.2997 37.8102C53.1397 37.8102 53.883 37.9868 54.5297 38.3402C55.1764 38.7002 55.6797 39.1935 56.0397 39.8202C56.393 40.4535 56.5697 41.1802 56.5697 42.0002C56.5697 42.8202 56.393 43.5468 56.0397 44.1802C55.6797 44.8068 55.1797 45.3002 54.5397 45.6602C53.8997 46.0135 53.1697 46.1902 52.3497 46.1902ZM52.3497 43.8902C52.6697 43.8902 52.953 43.8102 53.1997 43.6502C53.453 43.4902 53.653 43.2668 53.7997 42.9802C53.9397 42.7002 54.0097 42.3735 54.0097 42.0002C54.0097 41.6268 53.9397 41.3002 53.7997 41.0202C53.653 40.7335 53.453 40.5102 53.1997 40.3502C52.9397 40.1902 52.6464 40.1102 52.3197 40.1102C51.9864 40.1102 51.693 40.1902 51.4397 40.3502C51.1797 40.5102 50.9797 40.7335 50.8397 41.0202C50.693 41.3002 50.6197 41.6268 50.6197 42.0002C50.6197 42.3735 50.693 42.7002 50.8397 42.9802C50.9797 43.2668 51.1797 43.4902 51.4397 43.6502C51.7064 43.8102 52.0097 43.8902 52.3497 43.8902ZM57.7897 46.0002V38.0002H60.1397L60.2797 39.4702V46.0002H57.7897ZM62.9397 46.0002V41.9002H65.4397V46.0002H62.9397ZM62.9397 41.9002C62.9397 41.4735 62.893 41.1368 62.7997 40.8902C62.6997 40.6368 62.563 40.4535 62.3897 40.3402C62.2097 40.2202 61.993 40.1535 61.7397 40.1402C61.2597 40.1335 60.8964 40.2668 60.6497 40.5402C60.403 40.8068 60.2797 41.2202 60.2797 41.7802H59.5297C59.5297 40.9335 59.6597 40.2135 59.9197 39.6202C60.173 39.0335 60.5197 38.5835 60.9597 38.2702C61.4064 37.9635 61.923 37.8102 62.5097 37.8102C63.1497 37.8102 63.6864 37.9402 64.1197 38.2002C64.5597 38.4602 64.8897 38.8568 65.1097 39.3902C65.3297 39.9235 65.4397 40.6068 65.4397 41.4402V41.9002H62.9397ZM71.7097 46.0002L71.6397 44.2702V42.0202C71.6397 41.5935 71.603 41.2202 71.5297 40.9002C71.4564 40.5802 71.323 40.3268 71.1297 40.1402C70.9364 39.9602 70.6497 39.8702 70.2697 39.8702C69.9697 39.8702 69.7064 39.9402 69.4797 40.0802C69.2597 40.2202 69.0697 40.4135 68.9097 40.6602L66.7297 39.9402C66.9097 39.5402 67.1597 39.1802 67.4797 38.8602C67.793 38.5402 68.1797 38.2868 68.6397 38.1002C69.093 37.9068 69.6264 37.8102 70.2397 37.8102C71.0664 37.8102 71.7697 37.9635 72.3497 38.2702C72.923 38.5835 73.353 39.0168 73.6397 39.5702C73.933 40.1235 74.0797 40.7802 74.0797 41.5402L74.0397 46.0002H71.7097ZM69.5297 46.1902C68.583 46.1902 67.8464 45.9768 67.3197 45.5502C66.7997 45.1235 66.5397 44.5202 66.5397 43.7402C66.5397 42.9002 66.813 42.2735 67.3597 41.8602C67.8997 41.4402 68.6597 41.2302 69.6397 41.2302H71.8397V42.8302H70.5897C70.0564 42.8302 69.673 42.9068 69.4397 43.0602C69.1997 43.2068 69.0797 43.4135 69.0797 43.6802C69.0797 43.8735 69.1697 44.0268 69.3497 44.1402C69.523 44.2468 69.7664 44.3002 70.0797 44.3002C70.3864 44.3002 70.6564 44.2335 70.8897 44.1002C71.123 43.9668 71.3064 43.7902 71.4397 43.5702C71.573 43.3435 71.6397 43.0968 71.6397 42.8302H72.2697C72.2697 43.8968 72.0464 44.7235 71.5997 45.3102C71.1464 45.8968 70.4564 46.1902 69.5297 46.1902ZM75.5997 46.0002V34.8002H78.0897V46.0002H75.5997ZM21.9597 62.0002V50.8002H24.5397V59.6302H29.3097V62.0002H21.9597ZM34.2497 62.1902C33.4164 62.1902 32.6797 62.0135 32.0397 61.6602C31.3997 61.3002 30.8997 60.8068 30.5397 60.1802C30.1797 59.5468 29.9997 58.8202 29.9997 58.0002C29.9997 57.1668 30.183 56.4368 30.5497 55.8102C30.9164 55.1768 31.4197 54.6868 32.0597 54.3402C32.6997 53.9868 33.4397 53.8102 34.2797 53.8102C35.0397 53.8102 35.723 53.9902 36.3297 54.3502C36.9364 54.7168 37.4197 55.2568 37.7797 55.9702C38.1397 56.6835 38.3197 57.5735 38.3197 58.6402H32.2997L32.5697 58.3402C32.5697 58.7002 32.6464 59.0202 32.7997 59.3002C32.9464 59.5735 33.153 59.7835 33.4197 59.9302C33.6864 60.0702 33.9864 60.1402 34.3197 60.1402C34.713 60.1402 35.0464 60.0535 35.3197 59.8802C35.5864 59.7068 35.773 59.4868 35.8797 59.2202L38.0897 59.9702C37.8764 60.4702 37.5764 60.8868 37.1897 61.2202C36.7964 61.5468 36.3497 61.7902 35.8497 61.9502C35.3497 62.1102 34.8164 62.1902 34.2497 62.1902ZM32.6397 57.3002L32.3797 56.9802H35.9597L35.7397 57.3002C35.7397 56.9002 35.6597 56.5835 35.4997 56.3502C35.3397 56.1168 35.143 55.9502 34.9097 55.8502C34.6764 55.7502 34.4397 55.7002 34.1997 55.7002C33.9664 55.7002 33.7297 55.7502 33.4897 55.8502C33.2497 55.9502 33.0464 56.1168 32.8797 56.3502C32.7197 56.5835 32.6397 56.9002 32.6397 57.3002ZM44.1197 62.0002L44.0597 60.2702V58.0202C44.0597 57.5935 44.023 57.2202 43.9497 56.9002C43.8764 56.5802 43.743 56.3268 43.5497 56.1402C43.3564 55.9602 43.0664 55.8702 42.6797 55.8702C42.3864 55.8702 42.1264 55.9402 41.8997 56.0802C41.673 56.2202 41.4797 56.4135 41.3197 56.6602L39.1497 55.9402C39.3297 55.5402 39.5764 55.1802 39.8897 54.8602C40.203 54.5402 40.5897 54.2868 41.0497 54.1002C41.5097 53.9068 42.043 53.8102 42.6497 53.8102C43.483 53.8102 44.1864 53.9635 44.7597 54.2702C45.3397 54.5835 45.773 55.0168 46.0597 55.5702C46.3464 56.1235 46.4897 56.7802 46.4897 57.5402L46.4597 62.0002H44.1197ZM41.9497 62.1902C40.9964 62.1902 40.2597 61.9768 39.7397 61.5502C39.2197 61.1235 38.9597 60.5202 38.9597 59.7402C38.9597 58.9002 39.2297 58.2735 39.7697 57.8602C40.3164 57.4402 41.0797 57.2302 42.0597 57.2302H44.2497V58.8302H42.9997C42.4664 58.8302 42.083 58.9068 41.8497 59.0602C41.6164 59.2068 41.4997 59.4135 41.4997 59.6802C41.4997 59.8735 41.5864 60.0268 41.7597 60.1402C41.9397 60.2468 42.183 60.3002 42.4897 60.3002C42.803 60.3002 43.0764 60.2335 43.3097 60.1002C43.543 59.9668 43.7264 59.7902 43.8597 59.5702C43.993 59.3435 44.0597 59.0968 44.0597 58.8302H44.6797C44.6797 59.8968 44.4564 60.7235 44.0097 61.3102C43.563 61.8968 42.8764 62.1902 41.9497 62.1902ZM53.5997 62.0002L53.4797 60.5102V50.8002H55.9797V62.0002H53.5997ZM51.2097 62.1902C50.463 62.1902 49.8197 62.0235 49.2797 61.6902C48.7464 61.3502 48.333 60.8668 48.0397 60.2402C47.7464 59.6135 47.5997 58.8668 47.5997 58.0002C47.5997 57.1268 47.7464 56.3768 48.0397 55.7502C48.333 55.1302 48.7464 54.6502 49.2797 54.3102C49.8197 53.9768 50.463 53.8102 51.2097 53.8102C51.8697 53.8102 52.4264 53.9768 52.8797 54.3102C53.333 54.6502 53.673 55.1302 53.8997 55.7502C54.1264 56.3768 54.2397 57.1268 54.2397 58.0002C54.2397 58.8668 54.1264 59.6135 53.8997 60.2402C53.673 60.8668 53.333 61.3502 52.8797 61.6902C52.4264 62.0235 51.8697 62.1902 51.2097 62.1902ZM51.8697 59.8902C52.1764 59.8902 52.453 59.8102 52.6997 59.6502C52.9464 59.4902 53.1397 59.2668 53.2797 58.9802C53.413 58.7002 53.4797 58.3735 53.4797 58.0002C53.4797 57.6268 53.413 57.3002 53.2797 57.0202C53.1397 56.7335 52.9464 56.5102 52.6997 56.3502C52.453 56.1902 52.1697 56.1102 51.8497 56.1102C51.5297 56.1102 51.2464 56.1902 50.9997 56.3502C50.7597 56.5102 50.5664 56.7335 50.4197 57.0202C50.273 57.3002 50.1964 57.6268 50.1897 58.0002C50.1964 58.3735 50.273 58.7002 50.4197 58.9802C50.5664 59.2668 50.763 59.4902 51.0097 59.6502C51.263 59.8102 51.5497 59.8902 51.8697 59.8902ZM61.4497 62.1902C60.6164 62.1902 59.8797 62.0135 59.2397 61.6602C58.5997 61.3002 58.0997 60.8068 57.7397 60.1802C57.3797 59.5468 57.1997 58.8202 57.1997 58.0002C57.1997 57.1668 57.383 56.4368 57.7497 55.8102C58.1164 55.1768 58.6197 54.6868 59.2597 54.3402C59.8997 53.9868 60.6397 53.8102 61.4797 53.8102C62.2397 53.8102 62.923 53.9902 63.5297 54.3502C64.1364 54.7168 64.6197 55.2568 64.9797 55.9702C65.3397 56.6835 65.5197 57.5735 65.5197 58.6402H59.4997L59.7697 58.3402C59.7697 58.7002 59.8464 59.0202 59.9997 59.3002C60.1464 59.5735 60.353 59.7835 60.6197 59.9302C60.8864 60.0702 61.1864 60.1402 61.5197 60.1402C61.913 60.1402 62.2464 60.0535 62.5197 59.8802C62.7864 59.7068 62.973 59.4868 63.0797 59.2202L65.2897 59.9702C65.0764 60.4702 64.7764 60.8868 64.3897 61.2202C63.9964 61.5468 63.5497 61.7902 63.0497 61.9502C62.5497 62.1102 62.0164 62.1902 61.4497 62.1902ZM59.8397 57.3002L59.5797 56.9802H63.1597L62.9397 57.3002C62.9397 56.9002 62.8597 56.5835 62.6997 56.3502C62.5397 56.1168 62.343 55.9502 62.1097 55.8502C61.8764 55.7502 61.6397 55.7002 61.3997 55.7002C61.1664 55.7002 60.9297 55.7502 60.6897 55.8502C60.4497 55.9502 60.2464 56.1168 60.0797 56.3502C59.9197 56.5835 59.8397 56.9002 59.8397 57.3002ZM68.4097 57.8602C68.4097 56.9935 68.583 56.2735 68.9297 55.7002C69.2764 55.1202 69.713 54.6868 70.2397 54.4002C70.773 54.1135 71.3264 53.9702 71.8997 53.9702V56.4002C71.4064 56.4002 70.9464 56.4535 70.5197 56.5602C70.0863 56.6668 69.7364 56.8302 69.4697 57.0502C69.203 57.2702 69.0697 57.5502 69.0697 57.8902L68.4097 57.8602ZM66.5697 62.0002V54.0002H69.0697V62.0002H66.5697Z" fill="black"/>
<path d="M71 0H92V21H71V0Z" fill="#FF492C"/>
<path fill-rule="evenodd" clip-rule="evenodd" d="M86.0495 8.04164H84.2555C84.3045 7.76164 84.4775 7.60364 84.8305 7.42564L85.1605 7.25764C85.7525 6.95464 86.0665 6.61364 86.0665 6.05764C86.0725 5.89671 86.0385 5.7368 85.9675 5.59227C85.8964 5.44775 85.7906 5.32314 85.6595 5.22964C85.3945 5.02964 85.0695 4.93164 84.6945 4.93164C84.3965 4.93164 84.1255 5.00764 83.8765 5.16464C83.6415 5.30352 83.453 5.50881 83.3345 5.75464L83.8545 6.27364C84.0545 5.86764 84.3475 5.66764 84.7325 5.66764C85.0585 5.66764 85.2585 5.83564 85.2585 6.06764C85.2585 6.26264 85.1615 6.42464 84.7865 6.61364L84.5765 6.71664C84.1145 6.94964 83.7945 7.21464 83.6105 7.51664C83.4265 7.81464 83.3345 8.19864 83.3345 8.65864V8.78264H86.0505V8.04264L86.0495 8.04164ZM85.8055 9.64164H82.8385L81.3555 12.2116H84.3225L85.8055 14.7816L87.2885 12.2116L85.8055 9.64164Z" fill="white"/>
<path fill-rule="evenodd" clip-rule="evenodd" d="M81.6075 13.9276C80.6984 13.9268 79.8267 13.5654 79.1837 12.9228C78.5406 12.2801 78.1788 11.4087 78.1775 10.4996C78.1791 9.59065 78.541 8.71945 79.184 8.07702C79.827 7.43459 80.6985 7.07337 81.6075 7.07258L82.7825 4.61658C81.912 4.44244 81.0138 4.46362 80.1525 4.67859C79.2912 4.89356 78.4884 5.29696 77.8018 5.85971C77.1153 6.42247 76.5622 7.13054 76.1824 7.93289C75.8026 8.73524 75.6055 9.61187 75.6055 10.4996C75.6057 11.2875 75.7612 12.0677 76.063 12.7955C76.3647 13.5234 76.8069 14.1847 77.3642 14.7416C77.9216 15.2986 78.5832 15.7403 79.3112 16.0416C80.0393 16.3429 80.8195 16.4978 81.6075 16.4976C82.8781 16.4997 84.1163 16.0968 85.1425 15.3476L83.8425 13.0976C83.2425 13.6136 82.4605 13.9276 81.6075 13.9276Z" fill="white"/>
<path d="M0 83.2235V77.0195L46 100.063L92 77.0195V83.2915L46 106.001L0 83.2235Z" fill="#EE4288"/>
<path d="M0 77.5664V71.0664L46 94.1084L92 71.0664V77.5664L46 100.046L0 77.5664Z" fill="white"/>
<path d="M0 71.6319V65.1319L46 88.1749L92 65.1309V71.6309L46 94.1109L0 71.6319Z" fill="white"/>
<path d="M91.53 20.533H0.625M71.262 0.909V20.533M91.5 0.5V83.022L46 105.441L0.5 83.022V0.5H91.5Z" stroke="black"/>
</g>
<defs>
<clipPath id="clip0_2121_12491">
<rect width="92" height="106" fill="white"/>
</clipPath>
</defs>
</svg>
