<svg width="107" height="113" viewBox="0 0 107 113" fill="none" xmlns="http://www.w3.org/2000/svg">
<g clip-path="url(#clip0_933_6929)">
<path d="M53.1242 0C50.5833 0 48.0605 0.65088 45.844 1.86224L11.2988 20.6835C4.3249 24.4803 0 31.7846 0 39.7398V72.3381C0 80.3114 4.3249 87.6157 11.2988 91.4125L45.8259 110.234C48.0605 111.445 50.5833 112.096 53.1062 112.096C55.6291 112.096 58.1699 111.445 60.3865 110.234L94.9136 91.4125C101.887 87.6157 106.212 80.3114 106.212 72.3381V39.7398C106.212 31.7846 101.887 24.4622 94.9136 20.6654L60.4045 1.86224C58.1699 0.65088 55.6471 0 53.1242 0Z" fill="#423B70"/>
<path d="M93.3266 23.6485L58.7994 4.82726C57.0695 3.8871 55.1052 3.38086 53.123 3.38086C51.1408 3.38086 51.1408 3.50742 50.1857 3.74246C49.2306 3.9775 48.3116 4.3391 47.4285 4.82726L12.9014 23.6485C7.00873 26.8668 3.35059 33.0321 3.35059 39.7578V72.3561C3.35059 79.0818 7.00873 85.2471 12.9014 88.4653L47.4285 107.287C49.1765 108.227 51.1227 108.733 53.105 108.733C55.0872 108.733 57.0515 108.227 58.7814 107.287L93.3085 88.4653C99.2012 85.2471 102.859 79.0818 102.859 72.3561V39.7578C102.859 33.0321 99.2012 26.8668 93.3085 23.6485H93.3266ZM101.31 72.3561C101.31 78.5033 97.9578 84.1442 92.5697 87.0913L58.0426 105.913C56.5108 106.744 54.7989 107.178 53.105 107.178C51.4111 107.178 49.6991 106.762 48.1674 105.913L13.6402 87.0913C8.25214 84.1623 4.90034 78.5033 4.90034 72.3561V39.7578C4.90034 33.6106 8.25214 27.9697 13.6402 25.0226L48.1674 6.20134C49.6991 5.36966 51.4111 4.93574 53.105 4.93574C54.7989 4.93574 56.4928 5.35158 58.0426 6.20134L92.5697 25.0226C97.9578 27.9516 101.31 33.6106 101.31 39.7578V72.3561Z" fill="white"/>
<path d="M87.8492 47.9662H18.3984V48.5086H87.8492V47.9662Z" fill="white"/>
<path d="M47.8436 54.963C48.0058 55.18 48.0959 55.4512 48.0959 55.7766C48.0959 56.1021 47.9337 56.5722 47.6274 56.8253C47.303 57.0784 46.8705 57.205 46.3299 57.205H43.9692V51.9979H46.2398C46.7804 51.9979 47.1949 52.1245 47.5012 52.3595C47.8076 52.5946 47.9698 52.9381 47.9698 53.3539C47.9698 53.7698 47.8977 53.8602 47.7535 54.0771C47.6094 54.276 47.4111 54.4206 47.1589 54.511C47.4652 54.6014 47.6814 54.7461 47.8617 54.963H47.8436ZM44.8883 54.1856H46.0956C46.7444 54.1856 47.0688 53.9506 47.0688 53.4624C47.0688 52.9742 46.9967 53.0285 46.8345 52.92C46.6723 52.7934 46.42 52.7392 46.0956 52.7392H44.8883V54.1856ZM46.9606 56.2829C47.1228 56.1563 47.1949 55.9755 47.1949 55.7043C47.1949 55.4331 47.1228 55.2523 46.9606 55.1258C46.7984 54.9992 46.5462 54.9269 46.2218 54.9269H44.9063V56.4637H46.2218C46.5642 56.4637 46.8165 56.4094 46.9787 56.2829H46.9606Z" fill="white"/>
<path d="M49.3389 57.205V51.9979H52.8168V52.7573H50.2759V54.1856H52.6726V54.9269H50.2759V56.4456H52.8168V57.205H49.3389Z" fill="white"/>
<path d="M54.6013 57.0965C54.2589 56.988 53.9525 56.8434 53.7183 56.6445L54.0426 55.9575C54.2949 56.1564 54.5472 56.2829 54.8355 56.3733C55.1058 56.4637 55.4122 56.4999 55.7365 56.4999C56.0609 56.4999 56.3673 56.4456 56.5655 56.3191C56.7637 56.1925 56.8538 56.0117 56.8538 55.7948C56.8538 55.5778 56.7637 55.4512 56.5835 55.3428C56.4033 55.2343 56.115 55.1439 55.6825 55.0535C55.25 54.9631 54.9076 54.8546 54.6373 54.728C54.367 54.6015 54.1688 54.4388 54.0246 54.258C53.8804 54.0591 53.8264 53.824 53.8264 53.5348C53.8264 53.2455 53.9165 52.9562 54.0787 52.7212C54.2409 52.4861 54.4751 52.2872 54.7815 52.1607C55.0878 52.0341 55.4302 51.9618 55.8266 51.9618C56.2231 51.9618 56.5294 52.016 56.8718 52.1245C57.1962 52.233 57.4665 52.3776 57.6828 52.5765L57.3584 53.2636C56.8899 52.902 56.3853 52.7031 55.8266 52.7031C55.268 52.7031 55.232 52.7754 55.0338 52.902C54.8355 53.0285 54.7454 53.2274 54.7454 53.4624C54.7454 53.6975 54.8355 53.824 54.9977 53.9325C55.1779 54.041 55.4662 54.1495 55.8807 54.2399C56.3132 54.3303 56.6736 54.4388 56.9439 54.5653C57.2142 54.6919 57.4305 54.8365 57.5746 55.0354C57.7188 55.2162 57.7909 55.4512 57.7909 55.7405C57.7909 56.0298 57.7008 56.3191 57.5386 56.5541C57.3764 56.7892 57.1421 56.97 56.8178 57.0965C56.5114 57.2231 56.133 57.2773 55.7185 57.2773C55.3041 57.2773 54.9436 57.2231 54.6013 57.1146V57.0965Z" fill="white"/>
<path d="M60.1334 57.2051V52.7936H58.4395V52.0161H62.7644V52.7936H61.0704V57.2051H60.1154H60.1334Z" fill="white"/>
<path d="M23.7683 67.4746C23.1917 67.1491 22.7412 66.6971 22.4348 66.1186C22.1285 65.54 21.9663 64.853 21.9663 64.0936C21.9663 63.3342 22.1285 62.6472 22.4348 62.0686C22.7412 61.4901 23.1917 61.0381 23.7683 60.7126C24.345 60.3872 25.0298 60.2245 25.8047 60.2245C26.5795 60.2245 26.7597 60.2968 27.2283 60.4414C27.6788 60.5861 28.0572 60.785 28.3455 61.0381L27.7328 62.4302C27.1201 61.9963 26.4894 61.7794 25.8407 61.7794C25.192 61.7794 24.7595 61.9782 24.4351 62.3579C24.1107 62.7376 23.9486 63.3162 23.9486 64.0755C23.9486 64.8349 24.1107 65.4134 24.4351 65.7931C24.7595 66.1728 25.228 66.3717 25.8407 66.3717C26.4534 66.3717 27.1201 66.1547 27.7328 65.7208L28.3455 67.113C28.0572 67.3661 27.6788 67.565 27.2283 67.7096C26.7778 67.8542 26.2912 67.9266 25.8047 67.9266C25.0298 67.9266 24.345 67.7638 23.7683 67.4384V67.4746Z" fill="white"/>
<path d="M30.6883 67.1129C30.1296 66.5524 29.8413 65.7569 29.8413 64.6902V60.351H31.7515V64.7806C31.7515 65.323 31.8776 65.7388 32.1119 66.0281C32.3461 66.3174 32.7066 66.462 33.1571 66.462C33.6076 66.462 33.95 66.3174 34.2023 66.0281C34.4365 65.7388 34.5627 65.323 34.5627 64.7806V60.351H36.4908V64.6902C36.4908 65.7569 36.2025 66.5524 35.6439 67.1129C35.0672 67.6734 34.2563 67.9446 33.1751 67.9446C32.0939 67.9446 31.2649 67.6734 30.7063 67.1129H30.6883Z" fill="white"/>
<path d="M39.374 67.7277C38.8334 67.583 38.3829 67.3841 38.0405 67.131L38.6532 65.7389C39.0136 65.9739 39.3921 66.1366 39.8065 66.2632C40.221 66.3898 40.6355 66.444 41.0499 66.444C41.4644 66.444 41.8068 66.3898 42.023 66.2632C42.2393 66.1547 42.3654 65.9739 42.3654 65.775C42.3654 65.5761 42.2573 65.4315 42.0591 65.305C41.8609 65.1784 41.4644 65.0699 40.9058 64.9434C40.203 64.7987 39.6624 64.6179 39.2659 64.419C38.8695 64.2201 38.5992 63.967 38.437 63.6958C38.2748 63.4246 38.2027 63.0811 38.2027 62.6653C38.2027 62.2494 38.3289 61.7974 38.5992 61.4178C38.8514 61.0562 39.2299 60.7669 39.6984 60.5499C40.1669 60.333 40.7076 60.2426 41.3202 60.2426C41.9329 60.2426 42.3834 60.3149 42.888 60.4776C43.3926 60.6222 43.789 60.8211 44.0774 61.0742L43.4827 62.4664C42.7979 61.9963 42.0951 61.7613 41.3383 61.7613C40.5814 61.7613 40.6895 61.8336 40.4733 61.9602C40.257 62.1048 40.1489 62.2856 40.1489 62.5026C40.1489 62.7195 40.185 62.7557 40.257 62.828C40.3291 62.9184 40.4733 62.9907 40.6895 63.0811C40.9058 63.1715 41.2121 63.2438 41.6266 63.3342C42.3114 63.4789 42.834 63.6597 43.2304 63.8766C43.6269 64.0936 43.8972 64.3286 44.0593 64.5998C44.2215 64.871 44.3116 65.2145 44.3116 65.5942C44.3116 66.3355 44.0233 66.9141 43.4647 67.3299C42.906 67.7457 42.0951 67.9446 41.068 67.9446C40.0408 67.9446 39.9507 67.8723 39.4101 67.7277H39.374Z" fill="white"/>
<path d="M47.4474 67.854V61.9238H45.2129V60.3328H51.6642V61.9238H49.4297V67.854H47.4474Z" fill="white"/>
<path d="M54.1508 67.4746C53.5922 67.1672 53.1597 66.7152 52.8533 66.1366C52.547 65.5581 52.4028 64.871 52.4028 64.0936C52.4028 63.3162 52.547 62.6291 52.8533 62.0506C53.1597 61.472 53.5922 61.02 54.1508 60.7126C54.7094 60.4053 55.3762 60.2426 56.1511 60.2426C56.926 60.2426 57.5747 60.4053 58.1514 60.7126C58.71 61.02 59.1425 61.472 59.4488 62.0506C59.7552 62.6291 59.8993 63.3162 59.8993 64.0936C59.8993 64.871 59.7552 65.5581 59.4488 66.1366C59.1425 66.7152 58.71 67.1672 58.1514 67.4746C57.5927 67.7819 56.926 67.9446 56.1691 67.9446C55.4122 67.9446 54.7455 67.7819 54.1688 67.4746H54.1508ZM57.4666 65.8474C57.7909 65.4496 57.9531 64.853 57.9531 64.0936C57.9531 63.3342 57.7909 62.7376 57.4666 62.3398C57.1422 61.9421 56.7097 61.7432 56.1511 61.7432C55.5925 61.7432 55.1419 61.9421 54.8176 62.3398C54.4932 62.7376 54.331 63.3162 54.331 64.0936C54.331 64.871 54.4932 65.4496 54.8176 65.8474C55.1419 66.2451 55.5744 66.444 56.1511 66.444C56.7277 66.444 57.1602 66.2451 57.4846 65.8474H57.4666Z" fill="white"/>
<path d="M67.6301 60.351H69.1438V67.8722H67.4499V63.9308L66.0083 66.6247H64.7468L63.3052 63.985V67.8722H61.5933V60.351H63.125L65.3776 64.6178L67.6121 60.351H67.6301Z" fill="white"/>
<path d="M71.0366 67.854V60.3328H76.3526V61.8515H72.9288V63.2798H76.1364V64.7804H72.9288V66.3353H76.3526V67.854H71.0366Z" fill="white"/>
<path d="M84.6415 67.854H82.4971L81.1996 65.4494C81.0374 65.1782 80.7851 65.0336 80.4247 65.0336H79.83V67.854H77.9019V60.3328H81.4699C82.3709 60.3328 83.0557 60.5316 83.5062 60.9294C83.9567 61.3272 84.191 61.8876 84.191 62.647C84.191 63.4064 84.0288 63.6956 83.7225 64.0934C83.4161 64.4912 82.9656 64.7443 82.407 64.8889C82.8395 64.9793 83.1818 65.2686 83.4341 65.7387L84.6235 67.8721L84.6415 67.854ZM82.1006 63.3702C82.2808 63.2436 82.3889 63.0086 82.3889 62.7012C82.3889 62.3939 82.2988 62.1588 82.1006 62.0323C81.9024 61.9057 81.596 61.8334 81.1636 61.8334H79.812V63.5872H81.1636C81.596 63.5872 81.9024 63.5148 82.1006 63.3883V63.3702Z" fill="white"/>
<path d="M27.354 77.5631C26.8134 77.4185 26.3629 77.2196 26.0205 76.9665L26.6332 75.5743C26.9936 75.8094 27.372 75.9721 27.7865 76.0986C28.201 76.2252 28.6155 76.2794 29.0299 76.2794C29.4444 76.2794 29.7868 76.2252 30.003 76.0986C30.2193 75.9902 30.3454 75.8094 30.3454 75.6105C30.3454 75.4116 30.2373 75.267 30.0391 75.1404C29.8408 75.0138 29.4444 74.9054 28.8858 74.7788C28.183 74.6342 27.6423 74.4534 27.2459 74.2545C26.8494 74.0556 26.5791 73.8025 26.417 73.5313C26.2548 73.2601 26.1827 72.9166 26.1827 72.5007C26.1827 72.0849 26.3088 71.6329 26.5791 71.2532C26.8314 70.8916 27.2099 70.6023 27.6784 70.3854C28.1469 70.1684 28.6875 70.078 29.3002 70.078C29.9129 70.078 30.3634 70.1503 30.868 70.313C31.3726 70.4577 31.769 70.6566 32.0574 70.9097L31.4627 72.3018C30.7779 71.8318 30.0751 71.5967 29.3182 71.5967C28.5614 71.5967 28.6695 71.669 28.4533 71.7956C28.237 71.9402 28.1289 72.121 28.1289 72.338C28.1289 72.555 28.1649 72.5911 28.237 72.6634C28.3091 72.7538 28.4533 72.8262 28.6695 72.9166C28.8858 73.007 29.1921 73.0793 29.6066 73.1697C30.2914 73.3143 30.8139 73.4951 31.2104 73.7121C31.6068 73.929 31.8771 74.1641 32.0393 74.4353C32.2015 74.7065 32.2916 75.05 32.2916 75.4297C32.2916 76.171 32.0033 76.7495 31.4447 77.1654C30.886 77.5812 30.0751 77.7801 29.0479 77.7801C28.0208 77.7801 27.9307 77.7078 27.3901 77.5631H27.354Z" fill="white"/>
<path d="M34.6888 76.9665C34.1301 76.406 33.8418 75.6105 33.8418 74.5438V70.2046H35.752V74.6342C35.752 75.1766 35.8781 75.5924 36.1124 75.8817C36.3466 76.171 36.707 76.3156 37.1576 76.3156C37.6081 76.3156 37.9505 76.171 38.2027 75.8817C38.437 75.5924 38.5631 75.1766 38.5631 74.6342V70.2046H40.4913V74.5438C40.4913 75.6105 40.203 76.406 39.6444 76.9665C39.0677 77.527 38.2568 77.7982 37.1756 77.7982C36.0944 77.7982 35.2654 77.527 34.7068 76.9665H34.6888Z" fill="white"/>
<path d="M42.33 70.1865H45.9521C46.7811 70.1865 47.4298 70.4035 47.8803 70.8193C48.3308 71.2352 48.5651 71.8318 48.5651 72.5912C48.5651 73.3505 48.3308 73.9291 47.8623 74.3449C47.3938 74.7789 46.7631 74.9777 45.9341 74.9777H44.2582V77.6897H42.312V70.1685L42.33 70.1865ZM45.6818 73.5133C46.0422 73.5133 46.3125 73.4409 46.4928 73.2963C46.673 73.1517 46.745 72.9166 46.745 72.6093C46.745 72.3019 46.6549 72.0669 46.4928 71.9041C46.3125 71.7595 46.0603 71.6691 45.6818 71.6691H44.2762V73.5133H45.6818Z" fill="white"/>
<path d="M50.0419 70.1865H53.664C54.493 70.1865 55.1417 70.4035 55.5922 70.8193C56.0427 71.2352 56.277 71.8318 56.277 72.5912C56.277 73.3505 56.0427 73.9291 55.5742 74.3449C55.1057 74.7789 54.475 74.9777 53.646 74.9777H51.9701V77.6897H50.0239V70.1685L50.0419 70.1865ZM53.4118 73.5133C53.7722 73.5133 54.0425 73.4409 54.2227 73.2963C54.4029 73.1517 54.475 72.9166 54.475 72.6093C54.475 72.3019 54.3849 72.0669 54.2227 71.9041C54.0425 71.7595 53.7902 71.6691 53.4118 71.6691H52.0062V73.5133H53.4118Z" fill="white"/>
<path d="M59.3588 77.31C58.8002 77.0026 58.3677 76.5506 58.0614 75.9721C57.755 75.3935 57.6108 74.7065 57.6108 73.929C57.6108 73.1516 57.755 72.4646 58.0614 71.886C58.3677 71.3074 58.8002 70.8554 59.3588 70.5481C59.9175 70.2407 60.5842 70.078 61.3591 70.078C62.134 70.078 62.7827 70.2407 63.3594 70.5481C63.918 70.8554 64.3505 71.3074 64.6568 71.886C64.9632 72.4646 65.1073 73.1516 65.1073 73.929C65.1073 74.7065 64.9632 75.3935 64.6568 75.9721C64.3505 76.5506 63.918 77.0026 63.3594 77.31C62.8007 77.6174 62.134 77.7801 61.3771 77.7801C60.6203 77.7801 59.9535 77.6174 59.3768 77.31H59.3588ZM62.6746 75.6828C62.9989 75.285 63.1611 74.6884 63.1611 73.929C63.1611 73.1697 62.9989 72.573 62.6746 72.1753C62.3502 71.7775 61.9177 71.5786 61.3591 71.5786C60.8005 71.5786 60.3499 71.7775 60.0256 72.1753C59.7012 72.573 59.539 73.1516 59.539 73.929C59.539 74.7065 59.7012 75.285 60.0256 75.6828C60.3499 76.0806 60.7824 76.2794 61.3591 76.2794C61.9357 76.2794 62.3682 76.0806 62.6926 75.6828H62.6746Z" fill="white"/>
<path d="M73.5048 77.6897H71.3603L70.0629 75.2851C69.9007 75.0139 69.6484 74.8693 69.288 74.8693H68.6933V77.6897H66.7651V70.1685H70.3332C71.2342 70.1685 71.919 70.3673 72.3695 70.7651C72.82 71.1629 73.0543 71.7233 73.0543 72.4827C73.0543 73.2421 72.8921 73.5313 72.5857 73.9291C72.2794 74.3269 71.8289 74.58 71.2702 74.7246C71.7027 74.815 72.0451 75.1043 72.2974 75.5744L73.4868 77.7078L73.5048 77.6897ZM70.9639 73.2059C71.1441 73.0793 71.2522 72.8443 71.2522 72.5369C71.2522 72.2296 71.1621 71.9945 70.9639 71.868C70.7657 71.7414 70.4593 71.6691 70.0268 71.6691H68.6753V73.4229H70.0268C70.4593 73.4229 70.7657 73.3505 70.9639 73.224V73.2059Z" fill="white"/>
<path d="M76.2795 77.6897V71.7595H74.0449V70.1685H80.4962V71.7595H78.2617V77.6897H76.2795Z" fill="white"/>
<path d="M87.8492 81.8481H18.3984V82.3905H87.8492V81.8481Z" fill="white"/>
<path d="M69.3247 27.0836C69.3247 26.27 69.9914 25.6011 70.8023 25.6011H81.7588C82.5697 25.6011 83.2364 26.27 83.2364 27.0836V32.4896C83.2364 33.3032 82.5697 33.9721 81.7588 33.9721H80.6235C79.8125 33.9721 78.5511 34.2976 77.8483 34.6953L73.8658 36.9192C73.145 37.3169 72.8386 37.0276 73.181 36.2864L73.6315 35.2739C73.9739 34.5326 73.5775 33.9179 72.7666 33.9179H70.7843C69.9734 33.9179 69.3066 33.2489 69.3066 32.4353V27.0836H69.3247Z" fill="#F58120"/>
<path d="M26.3633 29.0545C25.6425 28.7833 24.8856 28.5844 24.8856 28.0058C24.8856 27.4273 25.228 27.2284 25.6965 27.2284H25.8948C26.3453 27.2284 26.6336 27.4453 26.8138 27.8973C26.8499 28.0058 26.9219 28.042 27.012 28.0058L28.2915 27.3549C28.3636 27.3188 28.4176 27.1741 28.3275 27.0476C28.2194 26.8487 28.0933 26.6498 27.9311 26.4871C27.4806 25.9809 26.8318 25.6193 25.8768 25.6193H25.6785C24.0567 25.6193 23.0475 26.5775 23.0475 28.0601C23.0475 29.5426 24.0026 30.1212 25.21 30.6093C25.9849 30.9167 26.6697 31.0975 26.6697 31.7484C26.6697 32.3993 26.2552 32.5258 25.7867 32.5258H25.4623C25.0118 32.5258 24.7234 32.3089 24.5432 31.8569C24.5072 31.7484 24.4171 31.7122 24.345 31.7484L23.0656 32.3993C22.9935 32.4354 22.9574 32.5801 23.0295 32.7066C23.1376 32.9236 23.2818 33.1225 23.462 33.3033C23.8945 33.7914 24.5613 34.1349 25.4803 34.1349H25.8948C27.5527 34.1349 28.5077 33.1767 28.5077 31.7122C28.5077 30.2477 27.6067 29.5788 26.3813 29.0906" fill="white"/>
<path d="M31.7882 27.7527C30.2024 27.7527 29.1572 28.729 29.1572 30.1392V31.7303C29.1572 33.1405 30.2024 34.0988 31.7882 34.0988C33.374 34.0988 34.3832 33.1405 34.3832 31.7303V30.1392C34.3832 28.7109 33.338 27.7527 31.7882 27.7527ZM32.5631 31.7664C32.5631 32.1823 32.2207 32.5258 31.7702 32.5258C31.3197 32.5258 30.9593 32.1823 30.9593 31.7664V30.0669C30.9593 29.6692 31.3017 29.3076 31.7702 29.3076C32.2387 29.3076 32.5631 29.6511 32.5631 30.0669V31.7664Z" fill="white"/>
<path d="M39.2839 25.6735C39.0676 25.6193 38.7072 25.5831 38.3648 25.5831C36.4366 25.5831 35.7158 26.9211 35.7158 27.9878V28.3132C35.7158 28.4036 35.6798 28.4398 35.5716 28.4398H35.2653C35.1932 28.4398 35.1392 28.4759 35.1392 28.5663V29.9404C35.1392 30.0308 35.1932 30.067 35.2653 30.067H35.5716C35.6798 30.067 35.7158 30.1031 35.7158 30.1935V33.8095C35.7158 33.8999 35.7519 33.9361 35.842 33.9361H37.3737C37.4638 33.9361 37.4998 33.8999 37.4998 33.8095V30.1935C37.4998 30.1031 37.5359 30.067 37.644 30.067H38.491C38.5811 30.067 38.6171 30.0308 38.6171 29.9404V28.5663C38.6171 28.4759 38.5811 28.4398 38.491 28.4398H37.644C37.5359 28.4398 37.4998 28.4036 37.4998 28.3132V27.9697C37.4998 27.5177 37.8242 27.2284 38.3108 27.2284C38.7973 27.2284 38.6531 27.2465 38.7973 27.3007C38.8874 27.3188 38.9415 27.3007 38.9595 27.2284L39.3559 25.8905C39.374 25.8001 39.3559 25.7278 39.2478 25.7097" fill="white"/>
<path d="M43.1765 27.8974H42.3115C42.2034 27.8974 42.1494 27.8613 42.1494 27.7709V26.9573C42.1494 26.8669 42.1313 26.8307 42.0412 26.8307H41.2303C41.1763 26.8307 41.1222 26.8488 41.0681 26.903L39.4463 28.5302V29.4161C39.4463 29.5065 39.4823 29.5427 39.5724 29.5427H40.2212C40.3473 29.5427 40.3834 29.5969 40.3834 29.6873V31.7123C40.3834 33.2852 41.3565 34.0808 42.5999 34.0808H43.1405C43.2486 34.0808 43.3027 34.0265 43.3027 33.9361V32.5982C43.3027 32.5259 43.2666 32.4717 43.1765 32.4717H42.9603C42.4197 32.4717 42.1674 32.1462 42.1674 31.5857V29.6873C42.1674 29.5969 42.2034 29.5427 42.3296 29.5427H43.1945C43.2846 29.5427 43.3207 29.5246 43.3207 29.4161V28.0421C43.3207 27.9517 43.3027 27.9155 43.1945 27.9155" fill="white"/>
<path d="M51.9346 27.8973H50.3668C50.2947 27.8973 50.2407 27.9335 50.2226 28.0058L49.646 30.4647C49.5739 30.7359 49.5379 31.1337 49.5198 31.4049H49.4838C49.4838 31.1337 49.4117 30.7721 49.3396 30.4647L48.763 28.0058C48.763 27.9335 48.6909 27.8973 48.6188 27.8973H47.3394C47.2673 27.8973 47.2132 27.9335 47.2132 28.0058L46.6366 30.4466C46.5645 30.7178 46.5104 31.0794 46.4924 31.3325H46.4564C46.4564 31.0794 46.3843 30.7178 46.3302 30.4466L45.7356 28.0058C45.7356 27.9335 45.6815 27.8973 45.6094 27.8973H44.0056C43.8795 27.8973 43.8434 27.9697 43.8795 28.0601L45.7175 33.8637C45.7356 33.9361 45.7896 33.9541 45.8437 33.9541H46.979C47.0511 33.9541 47.0871 33.9361 47.1051 33.8637L47.8259 31.1698C47.898 30.8625 47.9701 30.3562 47.9701 30.3562H48.0061C48.0061 30.3562 48.0782 30.8625 48.1503 31.1698L48.8531 33.8637C48.8531 33.9361 48.9072 33.9722 48.9792 33.9722H50.1145C50.1866 33.9722 50.2226 33.9541 50.2407 33.8818L52.0968 28.0781C52.1148 27.9877 52.0968 27.9154 51.9706 27.9154" fill="white"/>
<path d="M55.0164 27.7528C54.2055 27.7528 53.6108 28.0059 53.1783 28.4218C52.9261 28.6387 52.7278 28.9099 52.5837 29.1992C52.5116 29.3258 52.5476 29.4704 52.6197 29.5066L53.8992 30.1575C53.9712 30.1936 54.0613 30.1575 54.0974 30.049C54.2776 29.597 54.5839 29.38 55.0164 29.38C55.4489 29.38 55.7913 29.7055 55.7913 30.1213V30.1936C55.7913 30.284 55.7553 30.3383 55.6652 30.3383H54.5299C53.3946 30.3383 52.4575 30.9711 52.4575 32.0559V32.1824C52.4575 33.2853 53.2865 33.9543 54.4037 33.9543H54.8542C55.1966 33.9543 55.5931 33.8277 55.8634 33.6107C55.9174 33.5746 55.9715 33.5927 55.9895 33.6107L56.0256 33.8277C56.0256 33.9 56.0976 33.9362 56.1697 33.9362H57.4492C57.5213 33.9362 57.5753 33.9 57.5753 33.8096V30.1213C57.5753 28.7111 56.5842 27.7347 54.9984 27.7347M55.0525 32.544H54.5659C54.2956 32.544 54.1334 32.3813 54.1334 32.0016C54.1334 31.6219 54.3136 31.5496 54.5839 31.5496H55.6832C55.7553 31.5496 55.7913 31.6943 55.7913 31.7304C55.7733 32.2186 55.3948 32.5259 55.0525 32.5259" fill="white"/>
<path d="M61.9539 27.9156C61.8638 27.9156 61.7556 27.8975 61.6115 27.8975C61.1249 27.8975 60.6564 28.1325 60.4402 28.3856C60.3681 28.458 60.278 28.4399 60.278 28.3133V28.006C60.278 27.9156 60.2419 27.8794 60.1518 27.8794H58.9264C58.8544 27.8794 58.8003 27.9156 58.8003 28.006V33.8096C58.8003 33.9 58.8544 33.9362 58.9264 33.9362H60.4582C60.5303 33.9362 60.5843 33.9 60.5843 33.8096V30.3564C60.5843 29.9044 60.9087 29.5789 61.3592 29.5789C61.8097 29.5789 61.7196 29.597 61.8818 29.6512C62.0079 29.6693 62.08 29.6512 62.08 29.5247V28.0421C62.08 27.9698 62.044 27.9336 61.9719 27.9156" fill="white"/>
<path d="M65.359 27.6986C63.8273 27.6986 62.728 28.8015 62.728 30.0671V31.7485C62.728 33.1588 63.7732 34.1351 65.359 34.1351C66.9448 34.1351 66.8367 33.8277 67.2872 33.4119C67.5034 33.1949 67.6656 32.9599 67.8098 32.7068C67.8819 32.5802 67.8458 32.4356 67.7737 32.3994L66.4943 31.7485C66.4222 31.7124 66.3321 31.7485 66.2961 31.857C66.1159 32.309 65.8095 32.526 65.377 32.526C64.9445 32.526 64.5661 32.2005 64.5661 31.7847V31.4954C64.5661 31.405 64.6022 31.3508 64.7283 31.3508H67.8638C67.9359 31.3508 67.99 31.3146 67.99 31.2242V30.0852C67.99 28.8376 66.9088 27.7167 65.395 27.7167M66.1159 30.1756H64.6923C64.5841 30.1756 64.5481 30.1033 64.5481 30.0309V29.8501C64.5841 29.4704 64.9445 29.1992 65.4131 29.1992C65.8816 29.1992 66.224 29.4704 66.26 29.832V30.0128C66.26 30.1032 66.26 30.1756 66.1159 30.1756Z" fill="white"/>
<path d="M43.6457 35.7984C43.6277 35.7261 43.5736 35.708 43.5196 35.708H42.3663C42.2942 35.708 42.2581 35.7261 42.2401 35.7984L39.6812 43.7536C39.6452 43.8621 39.6812 43.9163 39.8074 43.9163H41.4472C41.5193 43.9163 41.5373 43.8982 41.5553 43.8259L41.9338 42.6326C41.9518 42.5603 41.9878 42.5603 42.0779 42.5603H43.7899C43.88 42.5603 43.916 42.5603 43.934 42.6326L44.2944 43.8259C44.3125 43.8982 44.3485 43.9163 44.4206 43.9163H46.0785C46.2046 43.9163 46.2406 43.844 46.2046 43.7536L43.6457 35.7984ZM43.3213 41.1139H42.5284C42.4023 41.1139 42.3482 41.0416 42.3663 40.9512L42.6366 39.9026C42.7627 39.4144 42.8708 38.8539 42.8889 38.5104H42.9429C42.9609 38.8539 43.051 39.4144 43.1772 39.9026L43.4475 40.9512C43.4655 41.0235 43.4295 41.1139 43.3033 41.1139" fill="white"/>
<path d="M51.7722 35.708H50.2405C50.1684 35.708 50.1143 35.7442 50.1143 35.8346V37.6426C50.1143 37.8414 50.1503 38.2211 50.1503 38.2211C49.8981 37.9861 49.4656 37.8595 49.1412 37.8595C47.7176 37.8595 46.6904 38.8178 46.6904 40.228V41.5478C46.6904 43.0666 47.5734 43.9163 49.1592 43.9163C50.745 43.9163 49.9521 43.7898 50.2224 43.5728C50.2945 43.5005 50.3846 43.5366 50.3846 43.6451V43.844C50.3846 43.8982 50.4207 43.9344 50.4927 43.9344H51.7542C51.8263 43.9344 51.8803 43.8982 51.8803 43.8078V35.8526C51.8803 35.7622 51.8263 35.7261 51.7542 35.7261M50.1143 41.6563C50.1143 42.0902 49.7719 42.4157 49.3034 42.4157C48.8349 42.4157 48.5105 42.0902 48.5105 41.6563V40.0834C48.5105 39.6675 48.8349 39.3602 49.3034 39.3602C49.7719 39.3602 50.1143 39.6675 50.1143 40.0834V41.6563Z" fill="white"/>
<path d="M58.6201 37.8595H56.9622C56.8901 37.8595 56.8541 37.8957 56.818 37.968L55.8449 40.7704C55.7909 40.915 55.7188 41.2585 55.6827 41.4213H55.6467C55.6287 41.2585 55.5566 40.9331 55.4845 40.7704L54.4754 37.9499C54.4573 37.8776 54.4033 37.8595 54.3492 37.8595H52.6913C52.5832 37.8595 52.5292 37.9318 52.5832 38.0403L54.9079 43.8259C54.9259 43.8982 54.9799 43.9163 55.034 43.9163H56.2414C56.3135 43.9163 56.3495 43.8982 56.3855 43.8259L58.7282 38.0403C58.7642 37.9318 58.7282 37.8595 58.6201 37.8595Z" fill="white"/>
<path d="M61.1066 37.8595H59.5568C59.4667 37.8595 59.4307 37.8957 59.4307 37.9861V43.7897C59.4307 43.8801 59.4667 43.9163 59.5568 43.9163H61.1066C61.1786 43.9163 61.2147 43.8801 61.2147 43.7897V37.9861C61.2147 37.8957 61.1606 37.8595 61.1066 37.8595Z" fill="white"/>
<path d="M64.7644 39.2696C65.1608 39.2696 65.4672 39.5227 65.6834 40.0471C65.7195 40.1375 65.7915 40.1555 65.8816 40.1194L67.1611 39.5408C67.2332 39.5047 67.2692 39.4323 67.2332 39.3239C67.107 39.0527 66.9809 38.7995 66.8187 38.6007C66.3862 38.0221 65.7555 37.6967 64.7644 37.6967C63.1606 37.6967 62.1694 38.673 62.1694 40.0832V41.6743C62.1694 43.0845 63.1425 44.0427 64.7644 44.0427C66.3862 44.0427 66.2781 43.7715 66.6926 43.2834C66.9088 43.0303 67.089 42.741 67.2332 42.3975C67.2692 42.289 67.2332 42.2347 67.1611 42.1805L65.8816 41.6019C65.7915 41.5658 65.7195 41.6019 65.6834 41.6743C65.4672 42.1986 65.1608 42.4698 64.7644 42.4698C64.3679 42.4698 63.9715 42.1263 63.9715 41.7104V40.0109C63.9715 39.5951 64.2778 39.2515 64.7644 39.2515" fill="white"/>
<path d="M70.4772 37.6787C68.9454 37.6787 67.8462 38.7816 67.8462 40.0472V41.7286C67.8462 43.1389 68.8914 44.1152 70.4772 44.1152C72.063 44.1152 71.9548 43.8078 72.4054 43.392C72.6216 43.175 72.7838 42.94 72.928 42.6869C73 42.5603 72.964 42.4157 72.8919 42.3795L71.6125 41.7286C71.5404 41.6925 71.4503 41.7286 71.4142 41.8371C71.234 42.2891 70.9277 42.5061 70.4952 42.5061C70.0627 42.5061 69.6843 42.1806 69.6843 41.7648V41.4755C69.6843 41.3851 69.7203 41.3309 69.8465 41.3309H72.982C73.0541 41.3309 73.1082 41.2947 73.1082 41.2043V40.0653C73.1082 38.8178 72.0269 37.6968 70.5132 37.6968M71.234 40.1376H69.8104C69.7023 40.1376 69.6663 40.0653 69.6663 39.993V39.8122C69.7023 39.4325 70.0627 39.1613 70.5312 39.1613C70.9998 39.1613 71.3422 39.4325 71.3782 39.7941V39.9749C71.3782 40.0653 71.3782 40.1376 71.234 40.1376Z" fill="white"/>
<path d="M60.3316 35.292C59.8271 35.292 59.4126 35.7078 59.4126 36.2141C59.4126 36.7203 59.8271 37.1362 60.3316 37.1362C60.8362 37.1362 61.2507 36.7203 61.2507 36.2141C61.2507 35.7078 60.8362 35.292 60.3316 35.292Z" fill="white"/>
<path d="M39.1752 95.2635V93.6001L41.7702 90.87C41.9864 90.635 42.1666 90.4361 42.2927 90.2553C42.4189 90.0745 42.509 89.8937 42.5811 89.731C42.6351 89.5683 42.6712 89.4055 42.6712 89.2428C42.6712 88.9355 42.5631 88.7004 42.3648 88.5377C42.1666 88.375 41.8603 88.3027 41.4638 88.3027C41.0674 88.3027 40.8151 88.3569 40.4727 88.4835C40.1303 88.61 39.7879 88.8089 39.4635 89.0801L38.7607 87.4167C39.1392 87.1275 39.5897 86.8924 40.1303 86.7116C40.6709 86.5308 41.2115 86.4404 41.7882 86.4404C42.3648 86.4404 43.0136 86.5308 43.4821 86.7297C43.9326 86.9286 44.275 87.2179 44.5093 87.5975C44.7435 87.9772 44.8697 88.4292 44.8697 88.9716C44.8697 89.514 44.8516 89.4959 44.7976 89.7491C44.7435 90.0022 44.6534 90.2553 44.5273 90.4903C44.4011 90.7254 44.2389 90.9785 44.0407 91.2316C43.8425 91.4847 43.6082 91.7559 43.3199 92.0271L41.3377 93.9979V93.4193H45.194V95.2454H39.1752V95.2635Z" fill="#F58120"/>
<path d="M49.3759 95.408C48.6731 95.408 48.0604 95.2272 47.5738 94.8656C47.0873 94.504 46.7088 93.9977 46.4566 93.3288C46.2043 92.6598 46.0781 91.8462 46.0781 90.888C46.0781 89.9297 46.2043 89.1342 46.4566 88.4652C46.7088 87.7963 47.0873 87.3081 47.5738 86.9646C48.0604 86.6211 48.6731 86.4584 49.3759 86.4584C50.0787 86.4584 50.6914 86.6392 51.1779 86.9827C51.6645 87.3262 52.0429 87.8325 52.2952 88.4833C52.5475 89.1342 52.6736 89.9478 52.6736 90.906C52.6736 91.8643 52.5475 92.6779 52.2952 93.3468C52.0429 94.0158 51.6645 94.5401 51.1779 94.8836C50.6914 95.2272 50.0787 95.426 49.3759 95.426V95.408ZM49.3759 93.6C49.7723 93.6 50.0606 93.383 50.2408 92.9491C50.421 92.5152 50.5292 91.8281 50.5292 90.8699C50.5292 89.9117 50.4391 89.2608 50.2408 88.8449C50.0606 88.4472 49.7543 88.2302 49.3759 88.2302C48.9974 88.2302 48.6911 88.4291 48.5109 88.8449C48.3307 89.2427 48.2226 89.9297 48.2226 90.888C48.2226 91.8462 48.3127 92.5152 48.5109 92.9491C48.6911 93.383 48.9974 93.6 49.3759 93.6Z" fill="#F58120"/>
<path d="M53.8803 95.2635V93.6001L56.4752 90.87C56.6915 90.635 56.8717 90.4361 56.9978 90.2553C57.124 90.0745 57.2141 89.8937 57.2861 89.731C57.3402 89.5683 57.3762 89.4055 57.3762 89.2428C57.3762 88.9355 57.2681 88.7004 57.0699 88.5377C56.8717 88.375 56.5653 88.3027 56.1689 88.3027C55.7724 88.3027 55.5201 88.3569 55.1778 88.4835C54.8354 88.61 54.493 88.8089 54.1686 89.0801L53.4658 87.4167C53.8442 87.1275 54.2948 86.8924 54.8354 86.7116C55.376 86.5308 55.9166 86.4404 56.4932 86.4404C57.0699 86.4404 57.7186 86.5308 58.1872 86.7297C58.6377 86.9286 58.9801 87.2179 59.2143 87.5975C59.4486 87.9772 59.5747 88.4292 59.5747 88.9716C59.5747 89.514 59.5567 89.4959 59.5027 89.7491C59.4486 90.0022 59.3585 90.2553 59.2324 90.4903C59.1062 90.7254 58.944 90.9785 58.7458 91.2316C58.5476 91.4847 58.3133 91.7559 58.025 92.0271L56.0427 93.9979V93.4193H59.8991V95.2454H53.8803V95.2635Z" fill="#F58120"/>
<path d="M64.4221 95.4081C63.6652 95.4081 63.0345 95.2273 62.4939 94.8838C61.9713 94.5403 61.5568 94.034 61.2865 93.3831C61.0162 92.7323 60.8721 91.9367 60.8721 91.0147C60.8721 90.0926 61.0343 89.2248 61.3586 88.5377C61.683 87.8507 62.1335 87.3444 62.7102 86.9828C63.3048 86.6212 64.0076 86.4404 64.8366 86.4404C65.6655 86.4404 65.4673 86.4766 65.7736 86.5489C66.08 86.6212 66.3863 86.7297 66.6566 86.8563C66.9269 86.9828 67.1972 87.1455 67.4495 87.3444L66.7467 89.0078C66.4584 88.7727 66.134 88.5919 65.8097 88.4835C65.4853 88.375 65.1429 88.3027 64.8005 88.3027C64.4581 88.3027 64.2239 88.3569 64.0076 88.4473C63.7734 88.5377 63.5932 88.6823 63.431 88.8812C63.2688 89.0801 63.1607 89.3152 63.0886 89.6044C63.0165 89.8937 62.9805 90.2191 62.9805 90.5807V91.2497H62.7822C62.8723 90.8881 62.9985 90.5808 63.1967 90.3457C63.3949 90.0926 63.6292 89.9118 63.9355 89.7671C64.2419 89.6225 64.5663 89.5502 64.9087 89.5502C65.251 89.5502 65.8277 89.6767 66.1881 89.9118C66.5665 90.1649 66.8549 90.4903 67.0891 90.9062C67.3054 91.322 67.4135 91.8102 67.4135 92.3707C67.4135 92.9311 67.2873 93.4555 67.0351 93.9255C66.7828 94.3775 66.4224 94.7391 65.9899 95.0103C65.5394 95.2635 65.0168 95.39 64.4401 95.39L64.4221 95.4081ZM64.296 93.6724C64.5122 93.6724 64.6924 93.6182 64.8546 93.5278C65.0168 93.4374 65.1429 93.2927 65.215 93.1119C65.3051 92.9311 65.3411 92.7142 65.3411 92.4791C65.3411 92.2441 65.3051 92.0271 65.215 91.8463C65.1249 91.6655 65.0168 91.539 64.8546 91.4305C64.6924 91.322 64.5122 91.2678 64.2779 91.2678C64.0437 91.2678 63.8995 91.322 63.7373 91.4305C63.5751 91.539 63.449 91.6655 63.3769 91.8463C63.2868 92.0271 63.2508 92.226 63.2508 92.4791C63.2508 92.7323 63.2868 92.9311 63.3769 93.1119C63.467 93.2927 63.5932 93.4374 63.7373 93.5278C63.8995 93.6182 64.0797 93.6724 64.2779 93.6724H64.296Z" fill="#F58120"/>
</g>
<defs>
<clipPath id="clip0_933_6929">
<rect width="106.23" height="113" fill="white"/>
</clipPath>
</defs>
</svg>
