<svg width="92" height="106" viewBox="0 0 92 106" fill="none" xmlns="http://www.w3.org/2000/svg">
<g clip-path="url(#clip0_2121_11891)">
<path d="M0 83.334L46 106L92 83.334V0H0V83.334Z" fill="white"/>
<path d="M0 83.334L46 106L92 83.334V0H0V83.334Z" fill="white"/>
<path d="M12.8295 13.3298C12.5828 13.3298 12.3528 13.2998 12.1395 13.2398C11.9261 13.1798 11.7361 13.0964 11.5695 12.9898C11.3961 12.8764 11.2561 12.7531 11.1495 12.6198C11.0428 12.4864 10.9728 12.3431 10.9395 12.1898L11.8695 11.9098C11.9295 12.0698 12.0395 12.2064 12.1995 12.3198C12.3528 12.4331 12.5461 12.4931 12.7795 12.4998C13.0261 12.5064 13.2261 12.4531 13.3795 12.3398C13.5395 12.2264 13.6195 12.0831 13.6195 11.9098C13.6195 11.7564 13.5561 11.6264 13.4295 11.5198C13.3095 11.4131 13.1395 11.3331 12.9195 11.2798L12.2895 11.1098C12.0495 11.0498 11.8395 10.9564 11.6595 10.8298C11.4728 10.7098 11.3295 10.5564 11.2295 10.3698C11.1295 10.1898 11.0795 9.97977 11.0795 9.73977C11.0795 9.2731 11.2295 8.90977 11.5295 8.64977C11.8361 8.39643 12.2695 8.26977 12.8295 8.26977C13.1428 8.26977 13.4195 8.3131 13.6595 8.39977C13.8928 8.4931 14.0895 8.6231 14.2495 8.78977C14.4095 8.95643 14.5295 9.15643 14.6095 9.38977L13.6795 9.66977C13.6261 9.50977 13.5228 9.37643 13.3695 9.26977C13.2228 9.15643 13.0328 9.09977 12.7995 9.09977C12.5661 9.09977 12.3861 9.1531 12.2595 9.25977C12.1261 9.36643 12.0595 9.51977 12.0595 9.71977C12.0595 9.8731 12.1095 9.9931 12.2095 10.0798C12.3161 10.1664 12.4595 10.2331 12.6395 10.2798L13.2895 10.4398C13.7095 10.5464 14.0361 10.7331 14.2695 10.9998C14.5028 11.2664 14.6195 11.5631 14.6195 11.8898C14.6195 12.1764 14.5495 12.4264 14.4095 12.6398C14.2695 12.8598 14.0661 13.0298 13.7995 13.1498C13.5328 13.2698 13.2095 13.3298 12.8295 13.3298ZM16.1395 13.2498V8.34977H17.9595C18.2995 8.34977 18.6028 8.41977 18.8695 8.55977C19.1361 8.6931 19.3461 8.8831 19.4995 9.12977C19.6461 9.37643 19.7195 9.65977 19.7195 9.97976C19.7195 10.2998 19.6461 10.5831 19.4995 10.8298C19.3595 11.0764 19.1628 11.2698 18.9095 11.4098C18.6561 11.5564 18.3628 11.6298 18.0295 11.6298H17.0995V13.2498H16.1395ZM17.0995 10.7398H18.0095C18.2228 10.7398 18.3995 10.6698 18.5395 10.5298C18.6795 10.3898 18.7495 10.2064 18.7495 9.97976C18.7495 9.75976 18.6728 9.57643 18.5195 9.42977C18.3661 9.29643 18.1728 9.22976 17.9395 9.22976H17.0995V10.7398ZM21.0595 13.2498V8.34977H22.8795C23.2261 8.34977 23.5295 8.41643 23.7895 8.54977C24.0561 8.68977 24.2661 8.87643 24.4195 9.10977C24.5661 9.3431 24.6395 9.61643 24.6395 9.92977C24.6395 10.2364 24.5628 10.5098 24.4095 10.7498C24.2495 10.9898 24.0361 11.1764 23.7695 11.3098C23.4961 11.4431 23.1861 11.5098 22.8395 11.5098H22.0195V13.2498H21.0595ZM23.7495 13.2498L22.6195 11.2798L23.3495 10.7598L24.8395 13.2498H23.7495ZM22.0195 10.6398H22.8795C23.0261 10.6398 23.1561 10.6098 23.2695 10.5498C23.3828 10.4898 23.4761 10.4064 23.5495 10.2998C23.6161 10.1931 23.6495 10.0698 23.6495 9.92977C23.6495 9.7231 23.5728 9.5531 23.4195 9.41977C23.2661 9.2931 23.0728 9.22976 22.8395 9.22976H22.0195V10.6398ZM26.2695 13.2498V8.34977H27.2295V13.2498H26.2695ZM28.9995 13.2498V8.34977H29.9995L32.3895 11.6398V8.34977H33.3395V13.2498H32.3895L29.9495 9.89977V13.2498H28.9995ZM37.3795 13.3298C36.8795 13.3298 36.4395 13.2231 36.0595 13.0098C35.6728 12.7898 35.3695 12.4898 35.1495 12.1098C34.9295 11.7298 34.8195 11.2931 34.8195 10.7998C34.8195 10.3064 34.9295 9.86977 35.1495 9.48977C35.3695 9.10977 35.6728 8.80977 36.0595 8.58977C36.4395 8.37643 36.8795 8.26977 37.3795 8.26977C37.6795 8.26977 37.9561 8.3131 38.2095 8.39977C38.4628 8.48643 38.6861 8.60977 38.8795 8.76977C39.0728 8.9231 39.2328 9.09977 39.3595 9.29977L38.5795 9.78977C38.4995 9.6631 38.3961 9.5531 38.2695 9.45977C38.1361 9.35977 37.9928 9.2831 37.8395 9.22976C37.6861 9.16976 37.5328 9.13977 37.3795 9.13977C37.0728 9.13977 36.7995 9.20977 36.5595 9.34977C36.3261 9.49643 36.1395 9.6931 35.9995 9.93976C35.8661 10.1864 35.7995 10.4731 35.7995 10.7998C35.7995 11.1198 35.8661 11.4064 35.9995 11.6598C36.1328 11.9131 36.3195 12.1098 36.5595 12.2498C36.8061 12.3964 37.0861 12.4698 37.3995 12.4698C37.6461 12.4698 37.8661 12.4198 38.0595 12.3198C38.2528 12.2198 38.4061 12.0831 38.5195 11.9098C38.6328 11.7298 38.6895 11.5231 38.6895 11.2898L39.5995 11.1498C39.5995 11.6098 39.5061 12.0031 39.3195 12.3298C39.1261 12.6564 38.8628 12.9064 38.5295 13.0798C38.1961 13.2464 37.8128 13.3298 37.3795 13.3298ZM37.5395 11.3698V10.6298H39.5995V11.2198L39.0795 11.3698H37.5395ZM43.1995 13.2498V12.5398C43.1995 12.4064 43.2395 12.2598 43.3195 12.0998C43.4061 11.9331 43.5228 11.7698 43.6695 11.6098C43.8228 11.4431 43.9995 11.2898 44.1995 11.1498L44.9395 10.6198C45.0461 10.5464 45.1428 10.4664 45.2295 10.3798C45.3228 10.2931 45.3995 10.1964 45.4595 10.0898C45.5128 9.9831 45.5395 9.8831 45.5395 9.78977C45.5395 9.6631 45.5128 9.5531 45.4595 9.45977C45.3995 9.35977 45.3128 9.2831 45.1995 9.22976C45.0861 9.16976 44.9495 9.13977 44.7895 9.13977C44.6495 9.13977 44.5228 9.16976 44.4095 9.22976C44.3028 9.2831 44.2128 9.35643 44.1395 9.44977C44.0728 9.5431 44.0261 9.6431 43.9995 9.74977L43.0095 9.57977C43.0561 9.34643 43.1561 9.12977 43.3095 8.92977C43.4628 8.72977 43.6661 8.56643 43.9195 8.43976C44.1661 8.31976 44.4495 8.25977 44.7695 8.25977C45.1295 8.25977 45.4395 8.32643 45.6995 8.45977C45.9661 8.58643 46.1695 8.7631 46.3095 8.98977C46.4495 9.21643 46.5195 9.47977 46.5195 9.77977C46.5195 10.0798 46.4395 10.3498 46.2795 10.5898C46.1128 10.8231 45.8828 11.0431 45.5895 11.2498L44.9295 11.7298C44.7895 11.8231 44.6728 11.9264 44.5795 12.0398C44.4795 12.1531 44.4028 12.2764 44.3495 12.4098H46.5895V13.2498H43.1995ZM49.8595 13.3298C49.4661 13.3298 49.1161 13.2231 48.8095 13.0098C48.5095 12.7898 48.2728 12.4898 48.0995 12.1098C47.9261 11.7298 47.8395 11.2931 47.8395 10.7998C47.8395 10.3064 47.9261 9.86977 48.0995 9.48977C48.2728 9.10977 48.5095 8.80977 48.8095 8.58977C49.1095 8.37643 49.4595 8.26977 49.8595 8.26977C50.2528 8.26977 50.6028 8.37643 50.9095 8.58977C51.2161 8.80977 51.4561 9.10977 51.6295 9.48977C51.8028 9.86977 51.8895 10.3064 51.8895 10.7998C51.8895 11.2931 51.8028 11.7298 51.6295 12.1098C51.4561 12.4898 51.2161 12.7898 50.9095 13.0098C50.6095 13.2231 50.2595 13.3298 49.8595 13.3298ZM49.8595 12.4698C50.0728 12.4698 50.2628 12.3964 50.4295 12.2498C50.5895 12.1098 50.7161 11.9131 50.8095 11.6598C50.9028 11.4131 50.9495 11.1264 50.9495 10.7998C50.9495 10.4731 50.9028 10.1831 50.8095 9.92977C50.7161 9.67643 50.5895 9.47977 50.4295 9.33977C50.2628 9.19977 50.0728 9.12977 49.8595 9.12977C49.6461 9.12977 49.4595 9.19977 49.2995 9.33977C49.1328 9.47977 49.0028 9.67643 48.9095 9.92977C48.8228 10.1831 48.7795 10.4731 48.7795 10.7998C48.7795 11.1264 48.8228 11.4131 48.9095 11.6598C49.0028 11.9131 49.1328 12.1098 49.2995 12.2498C49.4661 12.3964 49.6528 12.4698 49.8595 12.4698ZM53.1895 13.2498V12.5398C53.1895 12.4064 53.2295 12.2598 53.3095 12.0998C53.3961 11.9331 53.5128 11.7698 53.6595 11.6098C53.8128 11.4431 53.9895 11.2898 54.1895 11.1498L54.9295 10.6198C55.0295 10.5464 55.1261 10.4664 55.2195 10.3798C55.3128 10.2931 55.3895 10.1964 55.4495 10.0898C55.5028 9.9831 55.5295 9.8831 55.5295 9.78977C55.5295 9.6631 55.5028 9.5531 55.4495 9.45977C55.3895 9.35977 55.3028 9.2831 55.1895 9.22976C55.0761 9.16976 54.9395 9.13977 54.7795 9.13977C54.6395 9.13977 54.5128 9.16976 54.3995 9.22976C54.2928 9.2831 54.2028 9.35643 54.1295 9.44977C54.0628 9.5431 54.0161 9.6431 53.9895 9.74977L52.9995 9.57977C53.0461 9.34643 53.1461 9.12977 53.2995 8.92977C53.4528 8.72977 53.6561 8.56643 53.9095 8.43976C54.1561 8.31976 54.4395 8.25977 54.7595 8.25977C55.1195 8.25977 55.4295 8.32643 55.6895 8.45977C55.9561 8.58643 56.1595 8.7631 56.2995 8.98977C56.4395 9.21643 56.5095 9.47977 56.5095 9.77977C56.5095 10.0798 56.4261 10.3498 56.2595 10.5898C56.0995 10.8231 55.8728 11.0431 55.5795 11.2498L54.9195 11.7298C54.7795 11.8231 54.6628 11.9264 54.5695 12.0398C54.4695 12.1531 54.3928 12.2764 54.3395 12.4098H56.5795V13.2498H53.1895ZM59.6795 13.3298C59.3461 13.3298 59.0628 13.2731 58.8295 13.1598C58.6028 13.0398 58.4161 12.8731 58.2695 12.6598C58.1228 12.4531 58.0128 12.2098 57.9395 11.9298C57.8728 11.6498 57.8395 11.3498 57.8395 11.0298C57.8395 10.6564 57.8795 10.3031 57.9595 9.96977C58.0395 9.63643 58.1595 9.3431 58.3195 9.08977C58.4795 8.82977 58.6861 8.62643 58.9395 8.47976C59.1928 8.33976 59.4961 8.26977 59.8495 8.26977C60.1095 8.26977 60.3595 8.30643 60.5995 8.37977C60.8461 8.4531 61.0695 8.55977 61.2695 8.69977L60.7895 9.39977C60.6428 9.29976 60.4861 9.22643 60.3195 9.17977C60.1595 9.1331 60.0095 9.10977 59.8695 9.10977C59.5095 9.10977 59.2261 9.26643 59.0195 9.57977C58.8128 9.89977 58.7128 10.4031 58.7195 11.0898L58.5395 10.9498C58.6461 10.6964 58.8095 10.4931 59.0295 10.3398C59.2561 10.1864 59.5228 10.1098 59.8295 10.1098C60.1428 10.1098 60.4195 10.1798 60.6595 10.3198C60.8995 10.4664 61.0895 10.6664 61.2295 10.9198C61.3628 11.1664 61.4295 11.4431 61.4295 11.7498C61.4295 12.0564 61.3595 12.3298 61.2195 12.5698C61.0728 12.8098 60.8661 12.9964 60.5995 13.1298C60.3395 13.2631 60.0328 13.3298 59.6795 13.3298ZM59.6795 12.5198C59.8328 12.5198 59.9695 12.4864 60.0895 12.4198C60.2095 12.3464 60.3061 12.2498 60.3795 12.1298C60.4461 12.0098 60.4795 11.8698 60.4795 11.7098C60.4795 11.5498 60.4461 11.4098 60.3795 11.2898C60.3061 11.1631 60.2095 11.0631 60.0895 10.9898C59.9695 10.9164 59.8328 10.8798 59.6795 10.8798C59.5261 10.8798 59.3861 10.9164 59.2595 10.9898C59.1395 11.0631 59.0428 11.1631 58.9695 11.2898C58.8961 11.4098 58.8595 11.5498 58.8595 11.7098C58.8595 11.8698 58.8961 12.0098 58.9695 12.1298C59.0428 12.2498 59.1395 12.3464 59.2595 12.4198C59.3861 12.4864 59.5261 12.5198 59.6795 12.5198Z" fill="black"/>
<path d="M24.0402 42.63C23.4402 42.63 22.9202 42.5167 22.4802 42.29C22.0469 42.0633 21.7136 41.7433 21.4802 41.33C21.2469 40.91 21.1302 40.4133 21.1302 39.84V35.5H22.7402V39.84C22.7402 40.1067 22.7936 40.3367 22.9002 40.53C23.0069 40.7233 23.1569 40.8733 23.3502 40.98C23.5502 41.0867 23.7869 41.14 24.0602 41.14C24.3269 41.14 24.5602 41.0867 24.7602 40.98C24.9602 40.8733 25.1136 40.7233 25.2202 40.53C25.3269 40.3367 25.3802 40.1067 25.3802 39.84V35.5H26.9902V39.84C26.9902 40.4133 26.8736 40.91 26.6402 41.33C26.4002 41.7433 26.0602 42.0633 25.6202 42.29C25.1736 42.5167 24.6469 42.63 24.0402 42.63ZM29.9602 42.62C29.6336 42.62 29.3302 42.5733 29.0502 42.48C28.7636 42.38 28.5169 42.2433 28.3102 42.07C28.1036 41.89 27.9502 41.6733 27.8502 41.42L29.1302 40.88C29.2169 41.0533 29.3369 41.1833 29.4902 41.27C29.6436 41.35 29.8002 41.39 29.9602 41.39C30.1269 41.39 30.2569 41.3633 30.3502 41.31C30.4436 41.25 30.4902 41.17 30.4902 41.07C30.4902 40.9633 30.4436 40.88 30.3502 40.82C30.2502 40.76 30.1102 40.7067 29.9302 40.66L29.5002 40.55C29.0336 40.43 28.6769 40.2333 28.4302 39.96C28.1769 39.68 28.0502 39.3567 28.0502 38.99C28.0502 38.4767 28.2269 38.08 28.5802 37.8C28.9336 37.52 29.4236 37.38 30.0502 37.38C30.4036 37.38 30.7169 37.4267 30.9902 37.52C31.2569 37.6133 31.4836 37.7467 31.6702 37.92C31.8502 38.0867 31.9802 38.2833 32.0602 38.51L30.8202 39.02C30.7736 38.8867 30.6802 38.7833 30.5402 38.71C30.3936 38.6433 30.2336 38.61 30.0602 38.61C29.9136 38.61 29.8002 38.6433 29.7202 38.71C29.6402 38.77 29.6002 38.8533 29.6002 38.96C29.6002 39.04 29.6502 39.11 29.7502 39.17C29.8436 39.2233 29.9836 39.2733 30.1702 39.32L30.7002 39.45C31.0136 39.53 31.2769 39.6533 31.4902 39.82C31.7036 39.98 31.8636 40.17 31.9702 40.39C32.0769 40.6033 32.1302 40.8333 32.1302 41.08C32.1302 41.3933 32.0402 41.6667 31.8602 41.9C31.6736 42.1267 31.4169 42.3033 31.0902 42.43C30.7636 42.5567 30.3869 42.62 29.9602 42.62ZM35.2702 42.62C34.7502 42.62 34.2902 42.51 33.8902 42.29C33.4902 42.0633 33.1769 41.7533 32.9502 41.36C32.7236 40.9667 32.6102 40.5133 32.6102 40C32.6102 39.48 32.7269 39.0233 32.9602 38.63C33.1869 38.2367 33.5002 37.93 33.9002 37.71C34.3002 37.49 34.7636 37.38 35.2902 37.38C35.7636 37.38 36.1902 37.4933 36.5702 37.72C36.9502 37.9467 37.2536 38.2833 37.4802 38.73C37.7002 39.1767 37.8102 39.7333 37.8102 40.4H34.0502L34.2202 40.21C34.2202 40.4367 34.2669 40.6367 34.3602 40.81C34.4536 40.9833 34.5836 41.1167 34.7502 41.21C34.9169 41.2967 35.1036 41.34 35.3102 41.34C35.5569 41.34 35.7669 41.2867 35.9402 41.18C36.1069 41.0667 36.2236 40.9267 36.2902 40.76L37.6702 41.23C37.5369 41.5433 37.3469 41.8033 37.1002 42.01C36.8602 42.2167 36.5836 42.37 36.2702 42.47C35.9569 42.57 35.6236 42.62 35.2702 42.62ZM34.2602 39.56L34.1002 39.36H36.3402L36.2002 39.56C36.2002 39.3133 36.1502 39.1167 36.0502 38.97C35.9502 38.8233 35.8269 38.72 35.6802 38.66C35.5336 38.5933 35.3869 38.56 35.2402 38.56C35.0936 38.56 34.9469 38.5933 34.8002 38.66C34.6469 38.72 34.5202 38.8233 34.4202 38.97C34.3136 39.1167 34.2602 39.3133 34.2602 39.56ZM39.6202 39.91C39.6202 39.37 39.7302 38.92 39.9502 38.56C40.1636 38.2 40.4369 37.93 40.7702 37.75C41.0969 37.57 41.4402 37.48 41.8002 37.48V39C41.4936 39 41.2069 39.0333 40.9402 39.1C40.6669 39.1667 40.4469 39.27 40.2802 39.41C40.1136 39.5433 40.0302 39.7167 40.0302 39.93L39.6202 39.91ZM38.4702 42.5V37.5H40.0302V42.5H38.4702ZM44.3302 42.62C44.0036 42.62 43.7002 42.5733 43.4202 42.48C43.1336 42.38 42.8869 42.2433 42.6802 42.07C42.4736 41.89 42.3202 41.6733 42.2202 41.42L43.5002 40.88C43.5869 41.0533 43.7069 41.1833 43.8602 41.27C44.0136 41.35 44.1702 41.39 44.3302 41.39C44.4969 41.39 44.6269 41.3633 44.7202 41.31C44.8136 41.25 44.8602 41.17 44.8602 41.07C44.8602 40.9633 44.8136 40.88 44.7202 40.82C44.6202 40.76 44.4802 40.7067 44.3002 40.66L43.8702 40.55C43.4036 40.43 43.0436 40.2333 42.7902 39.96C42.5436 39.68 42.4202 39.3567 42.4202 38.99C42.4202 38.4767 42.5969 38.08 42.9502 37.8C43.3036 37.52 43.7936 37.38 44.4202 37.38C44.7736 37.38 45.0869 37.4267 45.3602 37.52C45.6269 37.6133 45.8536 37.7467 46.0402 37.92C46.2202 38.0867 46.3502 38.2833 46.4302 38.51L45.1902 39.02C45.1436 38.8867 45.0469 38.7833 44.9002 38.71C44.7602 38.6433 44.6036 38.61 44.4302 38.61C44.2836 38.61 44.1702 38.6433 44.0902 38.71C44.0102 38.77 43.9702 38.8533 43.9702 38.96C43.9702 39.04 44.0169 39.11 44.1102 39.17C44.2102 39.2233 44.3536 39.2733 44.5402 39.32L45.0702 39.45C45.3836 39.53 45.6469 39.6533 45.8602 39.82C46.0736 39.98 46.2336 40.17 46.3402 40.39C46.4469 40.6033 46.5002 40.8333 46.5002 41.08C46.5002 41.3933 46.4069 41.6667 46.2202 41.9C46.0402 42.1267 45.7869 42.3033 45.4602 42.43C45.1336 42.5567 44.7569 42.62 44.3302 42.62ZM49.7502 42.5V35.5H51.5202L53.3802 38.26L55.2502 35.5H57.0202V42.5H55.4102V38L53.3902 40.96L51.3602 38V42.5H49.7502ZM60.6302 42.62C60.1036 42.62 59.6402 42.51 59.2402 42.29C58.8402 42.0633 58.5269 41.7533 58.3002 41.36C58.0669 40.9667 57.9502 40.5133 57.9502 40C57.9502 39.4867 58.0636 39.0333 58.2902 38.64C58.5102 38.2467 58.8236 37.94 59.2302 37.72C59.6302 37.4933 60.0869 37.38 60.6002 37.38C61.1269 37.38 61.5936 37.49 62.0002 37.71C62.4002 37.9367 62.7136 38.2467 62.9402 38.64C63.1602 39.0333 63.2702 39.4867 63.2702 40C63.2702 40.5133 63.1602 40.9667 62.9402 41.36C62.7136 41.7533 62.4002 42.0633 62.0002 42.29C61.6002 42.51 61.1436 42.62 60.6302 42.62ZM60.6302 41.18C60.8302 41.18 61.0102 41.13 61.1702 41.03C61.3236 40.93 61.4469 40.7933 61.5402 40.62C61.6269 40.44 61.6702 40.2333 61.6702 40C61.6702 39.7667 61.6269 39.5633 61.5402 39.39C61.4469 39.21 61.3202 39.07 61.1602 38.97C61.0002 38.87 60.8169 38.82 60.6102 38.82C60.4036 38.82 60.2202 38.87 60.0602 38.97C59.9002 39.07 59.7769 39.21 59.6902 39.39C59.5969 39.5633 59.5502 39.7667 59.5502 40C59.5502 40.2333 59.5969 40.44 59.6902 40.62C59.7769 40.7933 59.9036 40.93 60.0702 41.03C60.2302 41.13 60.4169 41.18 60.6302 41.18ZM65.9102 42.62C65.5836 42.62 65.2769 42.5733 64.9902 42.48C64.7102 42.38 64.4669 42.2433 64.2602 42.07C64.0536 41.89 63.9002 41.6733 63.8002 41.42L65.0802 40.88C65.1669 41.0533 65.2869 41.1833 65.4402 41.27C65.5936 41.35 65.7502 41.39 65.9102 41.39C66.0769 41.39 66.2069 41.3633 66.3002 41.31C66.3936 41.25 66.4402 41.17 66.4402 41.07C66.4402 40.9633 66.3936 40.88 66.3002 40.82C66.2002 40.76 66.0602 40.7067 65.8802 40.66L65.4502 40.55C64.9836 40.43 64.6269 40.2333 64.3802 39.96C64.1269 39.68 64.0002 39.3567 64.0002 38.99C64.0002 38.4767 64.1769 38.08 64.5302 37.8C64.8836 37.52 65.3736 37.38 66.0002 37.38C66.3536 37.38 66.6669 37.4267 66.9402 37.52C67.2069 37.6133 67.4302 37.7467 67.6102 37.92C67.7969 38.0867 67.9302 38.2833 68.0102 38.51L66.7702 39.02C66.7236 38.8867 66.6302 38.7833 66.4902 38.71C66.3436 38.6433 66.1836 38.61 66.0102 38.61C65.8636 38.61 65.7502 38.6433 65.6702 38.71C65.5902 38.77 65.5502 38.8533 65.5502 38.96C65.5502 39.04 65.5969 39.11 65.6902 39.17C65.7902 39.2233 65.9336 39.2733 66.1202 39.32L66.6502 39.45C66.9636 39.53 67.2269 39.6533 67.4402 39.82C67.6536 39.98 67.8136 40.17 67.9202 40.39C68.0269 40.6033 68.0802 40.8333 68.0802 41.08C68.0802 41.3933 67.9869 41.6667 67.8002 41.9C67.6202 42.1267 67.3669 42.3033 67.0402 42.43C66.7136 42.5567 66.3369 42.62 65.9102 42.62ZM70.9702 42.62C70.3769 42.62 69.9369 42.48 69.6502 42.2C69.3569 41.9133 69.2102 41.5067 69.2102 40.98V35.94H70.7702V40.59C70.7702 40.79 70.8069 40.9367 70.8802 41.03C70.9536 41.1233 71.0669 41.17 71.2202 41.17C71.2802 41.17 71.3502 41.1567 71.4302 41.13C71.5102 41.0967 71.5836 41.0567 71.6502 41.01L72.1902 42.15C72.0302 42.2833 71.8402 42.3967 71.6202 42.49C71.3936 42.5767 71.1769 42.62 70.9702 42.62ZM68.4302 38.81V37.5H71.9102V38.81H68.4302ZM26.6102 52.5V45.5H28.2202V51.02H31.2002V52.5H26.6102ZM31.9802 52.5V47.5H33.5402V52.5H31.9802ZM32.7602 46.86C32.5269 46.86 32.3236 46.7733 32.1502 46.6C31.9702 46.42 31.8802 46.2133 31.8802 45.98C31.8802 45.7333 31.9702 45.5267 32.1502 45.36C32.3236 45.1867 32.5269 45.1 32.7602 45.1C33.0002 45.1 33.2069 45.1867 33.3802 45.36C33.5536 45.5267 33.6402 45.7333 33.6402 45.98C33.6402 46.2133 33.5536 46.42 33.3802 46.6C33.2069 46.7733 33.0002 46.86 32.7602 46.86ZM36.1302 51.39L35.2102 50.31L37.7202 47.5H39.5502L36.1302 51.39ZM34.6502 52.5V45.5H36.2102V52.5H34.6502ZM37.8702 52.5L36.3202 50.29L37.3402 49.22L39.6802 52.5H37.8702ZM42.3402 52.62C41.8202 52.62 41.3602 52.51 40.9602 52.29C40.5602 52.0633 40.2469 51.7533 40.0202 51.36C39.7936 50.9667 39.6802 50.5133 39.6802 50C39.6802 49.48 39.7969 49.0233 40.0302 48.63C40.2569 48.2367 40.5702 47.93 40.9702 47.71C41.3702 47.49 41.8336 47.38 42.3602 47.38C42.8336 47.38 43.2602 47.4933 43.6402 47.72C44.0202 47.9467 44.3236 48.2833 44.5502 48.73C44.7702 49.1767 44.8802 49.7333 44.8802 50.4H41.1202L41.2902 50.21C41.2902 50.4367 41.3369 50.6367 41.4302 50.81C41.5236 50.9833 41.6536 51.1167 41.8202 51.21C41.9869 51.2967 42.1736 51.34 42.3802 51.34C42.6269 51.34 42.8369 51.2867 43.0102 51.18C43.1769 51.0667 43.2936 50.9267 43.3602 50.76L44.7402 51.23C44.6069 51.5433 44.4202 51.8033 44.1802 52.01C43.9336 52.2167 43.6536 52.37 43.3402 52.47C43.0269 52.57 42.6936 52.62 42.3402 52.62ZM41.3302 49.56L41.1702 49.36H43.4102L43.2702 49.56C43.2702 49.3133 43.2202 49.1167 43.1202 48.97C43.0202 48.8233 42.8969 48.72 42.7502 48.66C42.6036 48.5933 42.4569 48.56 42.3102 48.56C42.1636 48.56 42.0169 48.5933 41.8702 48.66C41.7169 48.72 41.5902 48.8233 41.4902 48.97C41.3836 49.1167 41.3302 49.3133 41.3302 49.56ZM45.5402 52.5V45.5H47.1002V52.5H45.5402ZM49.3802 54.62C49.1669 54.62 48.9436 54.58 48.7102 54.5C48.4702 54.42 48.2702 54.3333 48.1102 54.24L48.6902 52.97C48.7836 53.0367 48.8769 53.0867 48.9702 53.12C49.0569 53.1533 49.1369 53.17 49.2102 53.17C49.3369 53.17 49.4502 53.14 49.5502 53.08C49.6502 53.0133 49.7302 52.91 49.7902 52.77L50.3802 51.38L51.8502 47.5H53.5802L51.3702 52.8C51.2236 53.16 51.0702 53.4767 50.9102 53.75C50.7502 54.0233 50.5536 54.2367 50.3202 54.39C50.0802 54.5433 49.7669 54.62 49.3802 54.62ZM49.9702 52.5L47.6302 47.5H49.3602L50.9302 51.38L51.4602 52.5H49.9702ZM58.1402 52.5V46.98H56.1002V45.5H61.7802V46.98H59.7402V52.5H58.1402ZM64.1802 52.62C63.6536 52.62 63.1902 52.51 62.7902 52.29C62.3902 52.0633 62.0769 51.7533 61.8502 51.36C61.6169 50.9667 61.5002 50.5133 61.5002 50C61.5002 49.4867 61.6136 49.0333 61.8402 48.64C62.0602 48.2467 62.3736 47.94 62.7802 47.72C63.1802 47.4933 63.6369 47.38 64.1502 47.38C64.6769 47.38 65.1436 47.4933 65.5502 47.72C65.9502 47.94 66.2636 48.2467 66.4902 48.64C66.7102 49.0333 66.8202 49.4867 66.8202 50C66.8202 50.5133 66.7102 50.9667 66.4902 51.36C66.2636 51.7533 65.9502 52.0633 65.5502 52.29C65.1502 52.51 64.6936 52.62 64.1802 52.62ZM64.1802 51.18C64.3802 51.18 64.5602 51.13 64.7202 51.03C64.8736 50.93 64.9936 50.7933 65.0802 50.62C65.1736 50.44 65.2202 50.2333 65.2202 50C65.2202 49.7667 65.1736 49.5633 65.0802 49.39C64.9936 49.21 64.8702 49.07 64.7102 48.97C64.5502 48.87 64.3669 48.82 64.1602 48.82C63.9536 48.82 63.7702 48.87 63.6102 48.97C63.4502 49.07 63.3269 49.21 63.2402 49.39C63.1469 49.5633 63.1002 49.7667 63.1002 50C63.1002 50.2333 63.1469 50.44 63.2402 50.62C63.3269 50.7933 63.4536 50.93 63.6202 51.03C63.7802 51.13 63.9669 51.18 64.1802 51.18ZM17.9902 62.5V55.5H20.7402C21.2402 55.5 21.6902 55.6 22.0902 55.8C22.4769 55.9933 22.7836 56.2667 23.0102 56.62C23.2369 56.9667 23.3502 57.3667 23.3502 57.82C23.3502 58.2733 23.2369 58.6767 23.0102 59.03C22.7836 59.3833 22.4702 59.66 22.0702 59.86C21.6769 60.0533 21.2236 60.15 20.7102 60.15H19.6002V62.5H17.9902ZM21.7902 62.5L20.2002 59.72L21.4202 58.83L23.6302 62.5H21.7902ZM19.6002 58.67H20.6902C20.8769 58.67 21.0436 58.6333 21.1902 58.56C21.3302 58.4867 21.4436 58.3867 21.5302 58.26C21.6169 58.1267 21.6602 57.98 21.6602 57.82C21.6602 57.5733 21.5669 57.37 21.3802 57.21C21.2002 57.05 20.9569 56.97 20.6502 56.97H19.6002V58.67ZM26.7602 62.62C26.2402 62.62 25.7802 62.51 25.3802 62.29C24.9802 62.0633 24.6669 61.7533 24.4402 61.36C24.2136 60.9667 24.1002 60.5133 24.1002 60C24.1002 59.48 24.2136 59.0233 24.4402 58.63C24.6669 58.2367 24.9836 57.93 25.3902 57.71C25.7902 57.49 26.2536 57.38 26.7802 57.38C27.2536 57.38 27.6802 57.4933 28.0602 57.72C28.4402 57.9467 28.7402 58.2833 28.9602 58.73C29.1869 59.1767 29.3002 59.7333 29.3002 60.4H25.5402L25.7102 60.21C25.7102 60.4367 25.7569 60.6367 25.8502 60.81C25.9436 60.9833 26.0736 61.1167 26.2402 61.21C26.4069 61.2967 26.5936 61.34 26.8002 61.34C27.0469 61.34 27.2536 61.2867 27.4202 61.18C27.5869 61.0667 27.7069 60.9267 27.7802 60.76L29.1602 61.23C29.0269 61.5433 28.8369 61.8033 28.5902 62.01C28.3502 62.2167 28.0736 62.37 27.7602 62.47C27.4469 62.57 27.1136 62.62 26.7602 62.62ZM25.7402 59.56L25.5802 59.36H27.8302L27.6902 59.56C27.6902 59.3133 27.6369 59.1167 27.5302 58.97C27.4369 58.8233 27.3169 58.72 27.1702 58.66C27.0236 58.5933 26.8769 58.56 26.7302 58.56C26.5836 58.56 26.4336 58.5933 26.2802 58.66C26.1336 58.72 26.0069 58.8233 25.9002 58.97C25.7936 59.1167 25.7402 59.3133 25.7402 59.56ZM32.4502 62.62C31.9169 62.62 31.4402 62.51 31.0202 62.29C30.6069 62.0633 30.2836 61.7533 30.0502 61.36C29.8169 60.96 29.7002 60.5067 29.7002 60C29.7002 59.4867 29.8169 59.0333 30.0502 58.64C30.2836 58.2467 30.6036 57.94 31.0102 57.72C31.4236 57.4933 31.8936 57.38 32.4202 57.38C32.9402 57.38 33.4136 57.51 33.8402 57.77C34.2669 58.03 34.5736 58.4067 34.7602 58.9L33.2802 59.4C33.2069 59.24 33.0836 59.11 32.9102 59.01C32.7436 58.9033 32.5569 58.85 32.3502 58.85C32.1369 58.85 31.9536 58.9 31.8002 59C31.6469 59.0933 31.5236 59.2267 31.4302 59.4C31.3436 59.5733 31.3002 59.7733 31.3002 60C31.3002 60.2267 31.3436 60.4267 31.4302 60.6C31.5236 60.7667 31.6502 60.9 31.8102 61C31.9769 61.1 32.1636 61.15 32.3702 61.15C32.5702 61.15 32.7536 61.0967 32.9202 60.99C33.0869 60.8833 33.2136 60.7433 33.3002 60.57L34.7802 61.07C34.5869 61.57 34.2769 61.9533 33.8502 62.22C33.4302 62.4867 32.9636 62.62 32.4502 62.62ZM37.8602 62.62C37.3336 62.62 36.8702 62.51 36.4702 62.29C36.0702 62.0633 35.7536 61.7533 35.5202 61.36C35.2936 60.9667 35.1802 60.5133 35.1802 60C35.1802 59.4867 35.2902 59.0333 35.5102 58.64C35.7369 58.2467 36.0502 57.94 36.4502 57.72C36.8569 57.4933 37.3169 57.38 37.8302 57.38C38.3569 57.38 38.8202 57.4933 39.2202 57.72C39.6269 57.94 39.9402 58.2467 40.1602 58.64C40.3869 59.0333 40.5002 59.4867 40.5002 60C40.5002 60.5133 40.3869 60.9667 40.1602 61.36C39.9402 61.7533 39.6302 62.0633 39.2302 62.29C38.8302 62.51 38.3736 62.62 37.8602 62.62ZM37.8602 61.18C38.0602 61.18 38.2369 61.13 38.3902 61.03C38.5502 60.93 38.6736 60.7933 38.7602 60.62C38.8536 60.44 38.9002 60.2333 38.9002 60C38.9002 59.7667 38.8536 59.5633 38.7602 59.39C38.6736 59.21 38.5502 59.07 38.3902 58.97C38.2302 58.87 38.0469 58.82 37.8402 58.82C37.6336 58.82 37.4502 58.87 37.2902 58.97C37.1302 59.07 37.0036 59.21 36.9102 59.39C36.8236 59.5633 36.7802 59.7667 36.7802 60C36.7802 60.2333 36.8236 60.44 36.9102 60.62C37.0036 60.7933 37.1302 60.93 37.2902 61.03C37.4569 61.13 37.6469 61.18 37.8602 61.18ZM41.2602 62.5V57.5H42.7202L42.7902 58.13C42.9502 57.8833 43.1469 57.6967 43.3802 57.57C43.6202 57.4433 43.8836 57.38 44.1702 57.38C44.5836 57.38 44.9236 57.4667 45.1902 57.64C45.4636 57.8067 45.6636 58.0633 45.7902 58.41C45.9436 58.0767 46.1536 57.8233 46.4202 57.65C46.6869 57.47 46.9869 57.38 47.3202 57.38C47.9202 57.38 48.3702 57.5633 48.6702 57.93C48.9769 58.2967 49.1236 58.8667 49.1102 59.64V62.5H47.5602V59.94C47.5602 59.6733 47.5302 59.4633 47.4702 59.31C47.4169 59.15 47.3336 59.0333 47.2202 58.96C47.1202 58.8867 46.9969 58.8467 46.8502 58.84C46.5636 58.8333 46.3436 58.9167 46.1902 59.09C46.0436 59.2567 45.9702 59.5133 45.9702 59.86V62.5H44.4102L44.4002 59.94C44.4002 59.6733 44.3736 59.4633 44.3202 59.31C44.2669 59.15 44.1869 59.0333 44.0802 58.96C43.9736 58.8867 43.8469 58.8467 43.7002 58.84C43.4136 58.8333 43.1936 58.9167 43.0402 59.09C42.8936 59.2567 42.8202 59.5133 42.8202 59.86V62.5H41.2602ZM50.0702 62.5V57.5H51.5402L51.6002 58.13C51.7602 57.8833 51.9569 57.6967 52.1902 57.57C52.4302 57.4433 52.6936 57.38 52.9802 57.38C53.3936 57.38 53.7336 57.4667 54.0002 57.64C54.2736 57.8067 54.4736 58.0633 54.6002 58.41C54.7536 58.0767 54.9636 57.8233 55.2302 57.65C55.4969 57.47 55.7969 57.38 56.1302 57.38C56.7302 57.38 57.1802 57.5633 57.4802 57.93C57.7869 58.2967 57.9369 58.8667 57.9302 59.64V62.5H56.3702V59.94C56.3702 59.6733 56.3402 59.4633 56.2802 59.31C56.2269 59.15 56.1469 59.0333 56.0402 58.96C55.9336 58.8867 55.8069 58.8467 55.6602 58.84C55.3736 58.8333 55.1536 58.9167 55.0002 59.09C54.8536 59.2567 54.7802 59.5133 54.7802 59.86V62.5H53.2202V59.94C53.2202 59.6733 53.1902 59.4633 53.1302 59.31C53.0769 59.15 52.9969 59.0333 52.8902 58.96C52.7836 58.8867 52.6569 58.8467 52.5102 58.84C52.2236 58.8333 52.0036 58.9167 51.8502 59.09C51.7036 59.2567 51.6302 59.5133 51.6302 59.86V62.5H50.0702ZM61.2802 62.62C60.7602 62.62 60.3002 62.51 59.9002 62.29C59.5002 62.0633 59.1869 61.7533 58.9602 61.36C58.7336 60.9667 58.6202 60.5133 58.6202 60C58.6202 59.48 58.7336 59.0233 58.9602 58.63C59.1936 58.2367 59.5102 57.93 59.9102 57.71C60.3102 57.49 60.7736 57.38 61.3002 57.38C61.7736 57.38 62.2002 57.4933 62.5802 57.72C62.9602 57.9467 63.2602 58.2833 63.4802 58.73C63.7069 59.1767 63.8202 59.7333 63.8202 60.4H60.0602L60.2302 60.21C60.2302 60.4367 60.2769 60.6367 60.3702 60.81C60.4636 60.9833 60.5936 61.1167 60.7602 61.21C60.9269 61.2967 61.1136 61.34 61.3202 61.34C61.5669 61.34 61.7736 61.2867 61.9402 61.18C62.1136 61.0667 62.2336 60.9267 62.3002 60.76L63.6802 61.23C63.5469 61.5433 63.3569 61.8033 63.1102 62.01C62.8702 62.2167 62.5936 62.37 62.2802 62.47C61.9669 62.57 61.6336 62.62 61.2802 62.62ZM60.2702 59.56L60.1102 59.36H62.3502L62.2102 59.56C62.2102 59.3133 62.1602 59.1167 62.0602 58.97C61.9602 58.8233 61.8369 58.72 61.6902 58.66C61.5436 58.5933 61.3969 58.56 61.2502 58.56C61.1036 58.56 60.9536 58.5933 60.8002 58.66C60.6536 58.72 60.5269 58.8233 60.4202 58.97C60.3202 59.1167 60.2702 59.3133 60.2702 59.56ZM64.4702 62.5V57.5H65.9402L66.0402 58.42V62.5H64.4702ZM67.6902 62.5V59.94H69.2602V62.5H67.6902ZM67.6902 59.94C67.6902 59.6733 67.6602 59.4633 67.6002 59.31C67.5469 59.15 67.4636 59.0333 67.3502 58.96C67.2436 58.8867 67.1069 58.8467 66.9402 58.84C66.6402 58.8333 66.4169 58.9167 66.2702 59.09C66.1169 59.2567 66.0402 59.5133 66.0402 59.86H65.5702C65.5702 59.3333 65.6469 58.8867 65.8002 58.52C65.9669 58.1467 66.1869 57.8633 66.4602 57.67C66.7402 57.4767 67.0636 57.38 67.4302 57.38C67.8236 57.38 68.1602 57.4633 68.4402 57.63C68.7136 57.79 68.9169 58.0367 69.0502 58.37C69.1902 58.7033 69.2602 59.13 69.2602 59.65V59.94H67.6902ZM73.6902 62.5L73.6302 61.57L73.6202 55.5H75.1802V62.5H73.6902ZM72.2102 62.62C71.7436 62.62 71.3402 62.5167 71.0002 62.31C70.6602 62.0967 70.4002 61.7933 70.2202 61.4C70.0336 61.0067 69.9402 60.54 69.9402 60C69.9402 59.4533 70.0336 58.9867 70.2202 58.6C70.4002 58.2067 70.6602 57.9067 71.0002 57.7C71.3402 57.4867 71.7436 57.38 72.2102 57.38C72.6169 57.38 72.9636 57.4867 73.2502 57.7C73.5369 57.9067 73.7469 58.2067 73.8802 58.6C74.0269 58.9867 74.1002 59.4533 74.1002 60C74.1002 60.54 74.0269 61.0067 73.8802 61.4C73.7469 61.7933 73.5369 62.0967 73.2502 62.31C72.9636 62.5167 72.6169 62.62 72.2102 62.62ZM72.6102 61.18C72.8036 61.18 72.9769 61.13 73.1302 61.03C73.2836 60.93 73.4036 60.7933 73.4902 60.62C73.5836 60.44 73.6302 60.2333 73.6302 60C73.6302 59.7667 73.5836 59.5633 73.4902 59.39C73.4036 59.21 73.2836 59.07 73.1302 58.97C72.9769 58.87 72.8002 58.82 72.6002 58.82C72.4002 58.82 72.2236 58.87 72.0702 58.97C71.9236 59.07 71.8036 59.21 71.7102 59.39C71.6169 59.5633 71.5702 59.7667 71.5702 60C71.5702 60.2333 71.6169 60.44 71.7102 60.62C71.8036 60.7933 71.9269 60.93 72.0802 61.03C72.2402 61.13 72.4169 61.18 72.6102 61.18Z" fill="black"/>
<path d="M26.8203 72.3793V68.5293H27.6403L28.7603 70.1893L29.8803 68.5293H30.7003V72.3793H29.9503V69.6993L28.7603 71.4493L27.5703 69.7093V72.3793H26.8203ZM32.0803 72.3793V68.5293H32.8403V72.3793H32.0803ZM34.2203 72.3793V68.5293H35.4503C35.8436 68.5293 36.1936 68.6093 36.5003 68.7693C36.8003 68.936 37.037 69.1626 37.2103 69.4493C37.377 69.736 37.4603 70.0693 37.4603 70.4493C37.4603 70.8226 37.377 71.156 37.2103 71.4493C37.037 71.736 36.8003 71.9626 36.5003 72.1293C36.1936 72.296 35.8436 72.3793 35.4503 72.3793H34.2203ZM34.9703 71.6693H35.4503C35.6303 71.6693 35.7936 71.6393 35.9403 71.5793C36.0936 71.5126 36.227 71.426 36.3403 71.3193C36.447 71.206 36.5336 71.076 36.6003 70.9293C36.6603 70.7826 36.6903 70.6226 36.6903 70.4493C36.6903 70.276 36.6603 70.116 36.6003 69.9693C36.5336 69.8226 36.447 69.6926 36.3403 69.5793C36.227 69.4726 36.0936 69.386 35.9403 69.3193C35.7936 69.2593 35.6303 69.2293 35.4503 69.2293H34.9703V71.6693ZM38.5003 71.0493V70.4293H40.1503V71.0493H38.5003ZM41.4203 72.3793V68.5293H42.2303L43.3603 70.1893L44.4803 68.5293H45.2903V72.3793H44.5403V69.6993L43.3603 71.4493L42.1703 69.7093V72.3793H41.4203ZM49.3503 72.3793L47.8703 68.5293H48.6303L50.1403 72.3793H49.3503ZM46.3003 72.3793L47.8203 68.5293H48.5803L47.1003 72.3793H46.3003ZM47.0203 71.5293V70.8593H49.4303V71.5293H47.0203ZM51.1603 72.3793V68.5293H52.5903C52.857 68.5293 53.097 68.5793 53.3103 68.6793C53.517 68.786 53.6803 68.9326 53.8003 69.1193C53.9136 69.306 53.9703 69.5226 53.9703 69.7693C53.9703 70.0093 53.9103 70.2226 53.7903 70.4093C53.6636 70.6026 53.4936 70.7493 53.2803 70.8493C53.0736 70.956 52.8336 71.0093 52.5603 71.0093H51.9103V72.3793H51.1603ZM53.2703 72.3793L52.3803 70.8293L52.9603 70.4193L54.1303 72.3793H53.2703ZM51.9103 70.3193H52.5903C52.7036 70.3193 52.807 70.296 52.9003 70.2493C52.987 70.2026 53.057 70.136 53.1103 70.0493C53.1636 69.9693 53.1903 69.876 53.1903 69.7693C53.1903 69.6026 53.1303 69.4693 53.0103 69.3693C52.8903 69.2626 52.737 69.2093 52.5503 69.2093H51.9103V70.3193ZM55.7003 71.3993L55.6203 70.4593L57.4203 68.5293H58.3903L55.7003 71.3993ZM55.2503 72.3793V68.5293H56.0003V72.3793H55.2503ZM57.5203 72.3793L55.9903 70.4193L56.5303 69.9693L58.4503 72.3793H57.5203ZM59.4703 72.3793V68.5293H61.9003V69.2093H60.2203V70.0893H61.6703V70.7593H60.2203V71.6893H61.9203V72.3793H59.4703ZM64.0703 72.3793V69.2093H62.9103V68.5293H65.9703V69.2093H64.8203V72.3793H64.0703Z" fill="black"/>
<path d="M71 0H92V21H71V0Z" fill="#FF492C"/>
<path fill-rule="evenodd" clip-rule="evenodd" d="M86.0495 8.04164H84.2555C84.3045 7.76164 84.4775 7.60364 84.8305 7.42564L85.1605 7.25764C85.7525 6.95464 86.0665 6.61364 86.0665 6.05764C86.0725 5.89671 86.0385 5.7368 85.9675 5.59227C85.8964 5.44775 85.7906 5.32314 85.6595 5.22964C85.3945 5.02964 85.0695 4.93164 84.6945 4.93164C84.3965 4.93164 84.1255 5.00764 83.8765 5.16464C83.6415 5.30352 83.453 5.50881 83.3345 5.75464L83.8545 6.27364C84.0545 5.86764 84.3475 5.66764 84.7325 5.66764C85.0585 5.66764 85.2585 5.83564 85.2585 6.06764C85.2585 6.26264 85.1615 6.42464 84.7865 6.61364L84.5765 6.71664C84.1145 6.94964 83.7945 7.21464 83.6105 7.51664C83.4265 7.81464 83.3345 8.19864 83.3345 8.65864V8.78264H86.0505V8.04264L86.0495 8.04164ZM85.8055 9.64164H82.8385L81.3555 12.2116H84.3225L85.8055 14.7816L87.2885 12.2116L85.8055 9.64164Z" fill="white"/>
<path fill-rule="evenodd" clip-rule="evenodd" d="M81.6075 13.9276C80.6984 13.9268 79.8267 13.5654 79.1837 12.9228C78.5406 12.2801 78.1788 11.4087 78.1775 10.4996C78.1791 9.59065 78.541 8.71945 79.184 8.07702C79.827 7.43459 80.6985 7.07337 81.6075 7.07258L82.7825 4.61658C81.912 4.44244 81.0138 4.46362 80.1525 4.67859C79.2912 4.89356 78.4884 5.29696 77.8018 5.85971C77.1153 6.42247 76.5622 7.13054 76.1824 7.93289C75.8026 8.73524 75.6055 9.61187 75.6055 10.4996C75.6057 11.2875 75.7612 12.0677 76.063 12.7955C76.3647 13.5234 76.8069 14.1847 77.3642 14.7416C77.9216 15.2986 78.5832 15.7403 79.3112 16.0416C80.0393 16.3429 80.8195 16.4978 81.6075 16.4976C82.8781 16.4997 84.1163 16.0968 85.1425 15.3476L83.8425 13.0976C83.2425 13.6136 82.4605 13.9276 81.6075 13.9276Z" fill="white"/>
<path d="M0 83.2235V77.0195L46 100.063L92 77.0195V83.2915L46 106.001L0 83.2235Z" fill="#5746B2"/>
<path d="M0 77.5664V71.0664L46 94.1084L92 71.0664V77.5664L46 100.046L0 77.5664Z" fill="white"/>
<path d="M0 71.6319V65.1319L46 88.1749L92 65.1309V71.6309L46 94.1109L0 71.6319Z" fill="white"/>
<path d="M91.53 20.533H0.625M71.262 0.909V20.533M91.5 0.5V83.022L46 105.441L0.5 83.022V0.5H91.5Z" stroke="black"/>
</g>
<defs>
<clipPath id="clip0_2121_11891">
<rect width="92" height="106" fill="white"/>
</clipPath>
</defs>
</svg>
